<mxfile host="app.diagrams.net" agent="Mozilla/5.0 (Windows NT 10.0; Win64; x64) AppleWebKit/537.36 (KHTML, like Gecko) Chrome/133.0.0.0 Safari/537.36" version="26.0.16" pages="2">
  <diagram name="Portada" id="BhBhbpVKF6FdP5_jhSsE">
    <mxGraphModel grid="1" page="1" gridSize="10" guides="1" tooltips="1" connect="1" arrows="1" fold="1" pageScale="1" pageWidth="827" pageHeight="1169" math="0" shadow="0">
      <root>
        <mxCell id="0" />
        <mxCell id="1" parent="0" />
        <mxCell id="ocqf6F87zvbqWiO9Ts27-1" value="&lt;h1&gt;&lt;i&gt;&lt;font style=&quot;font-size: 19px;&quot;&gt;&lt;font style=&quot;vertical-align: inherit;&quot;&gt;&lt;font style=&quot;vertical-align: inherit;&quot;&gt;INSTITUTO POLITÃ‰CNICO NACIONAL&lt;/font&gt;&lt;/font&gt;&lt;/font&gt;&lt;/i&gt;&lt;/h1&gt;" style="text;html=1;align=center;verticalAlign=middle;whiteSpace=wrap;rounded=0;" vertex="1" parent="1">
          <mxGeometry x="243" y="166.5" width="348" height="30" as="geometry" />
        </mxCell>
        <mxCell id="ocqf6F87zvbqWiO9Ts27-2" value="&lt;h2 style=&quot;&quot;&gt;&lt;i style=&quot;font-size: 15px;&quot;&gt;&lt;font style=&quot;font-size: 15px;&quot;&gt;ESCUELA SUPERIOR DE COMERCIO Y ADMINISTRACION&amp;nbsp;&amp;nbsp;&lt;/font&gt;&lt;/i&gt;&lt;/h2&gt;&lt;h2 style=&quot;&quot;&gt;&lt;i style=&quot;&quot;&gt;&lt;font style=&quot;font-size: 15px;&quot;&gt;&lt;br&gt;&lt;/font&gt;&lt;/i&gt;&lt;i style=&quot;&quot;&gt;&lt;font style=&quot;font-size: 15px;&quot;&gt;UNIDAD SANTO TOMAS&lt;/font&gt;&lt;/i&gt;&lt;/h2&gt;" style="text;html=1;align=center;verticalAlign=middle;whiteSpace=wrap;rounded=0;" vertex="1" parent="1">
          <mxGeometry x="266.5" y="242" width="301" height="30" as="geometry" />
        </mxCell>
        <mxCell id="ocqf6F87zvbqWiO9Ts27-3" value="" style="shape=image;verticalLabelPosition=bottom;labelBackgroundColor=default;verticalAlign=top;aspect=fixed;imageAspect=0;image=data:image/png,iVBORw0KGgoAAAANSUhEUgAAAsAAAALACAYAAACdL8TvAAAAGXRFWHRTb2Z0d2FyZQBBZG9iZSBJbWFnZVJlYWR5ccllPAAA0JtJREFUeNrsvQl8FeW9//8c1H/BW0gArwVkSdCCkLJIaC01SlBxAypa3BeCXnChV6BUBdsKaKuo18tyiyJUWVRUioIF6sIWMRQXgggGlGISFiF6ZQl4hf6wzX8+kzPh5OQs88zMM9v5vF+v80oIZ+ac88ycmc/zfT7f71cIQgghhBBCCCGEEEIIIYQQQgghhBBCCCGEEEIIIYQQQgghhBBCCCGEEEIIIYQQQgghhBBCCCGEEEIIIYQQQgghhBBCCCGEEEIIIYQQQgghhBBCCCGEEEIIIYQQQgghhBBCCCGEEEIIIYQQQgghhBBCCCGEEEIIIYQQQgghhBBCCCGEEEIIIYQQQgghhBBCCCGEEEIIIYQQQgghhBBCCCGEEEIIIYQQQgghhBBCCCGEEEIIIYQQQgghhBBCCCGEEEIIIYQQQgghhBBCCCGEEEIIIYQQQgghhBBCCCGEEEIIIYQQQgghhBBCiHUiHAJCCPE3NTU12dqPwdqjr/bISfHUSu3xjvZYEolEDnHkCCGEApgQQoIkenOiovdK7VFoYRdztccYs0JYe72eMSI7lk0Q1dp+lng0DnhfmABUau+hkmcGIYQQQkjIRK/2mKI9Kmqc4aD2mBiNICd7zcEmX0/fV4r9FGqPOdrjo7jtsO/F2qMo1ftIMAYfJXkf2NdoM/sihBBCCCH+Fb4Qh2tq1FERjaTGvmZ2VLDK8lHsvqLCd42EIB+dZAyyo8JXhjnRSDkhhBBCCAmA6M2ORmcratyjKOa1P7IZWe5pQbDGRnGzY8Yix+b7oRAmhBBCCAmA8D1Y4w1FUQHqNR9FxyLbwbGgECaEmIJJcIQQkkawitokNCz7G1UY4kVWsfZ4XdRWX6hMsa+J2o9Rojapi9Qm6uUIa0l+6fY7iUlzhBAKYEIIMSd4DUHWN/ozR3IXk7TH1NjqC0g0035MsbAvQiFMCKEAJoQQJaLXKP812CGRitJhV0V/nyOcj3ASeSE8hrWRCSEUwIQQit7aGrv4qcKScEjQ6uAncDymibjoPCGEApgQQsIueuHjHaVQ9BL/UylqbRFzORSEUAATQkhYRa/RRhjCtydHhEQpFrW2iE0cCkIogAkhJEzCd7QIWdWFY4f2if3lpeLowX11f2vSvLU4o9dAHnRrTBW1EWHaIgihACaEkEALX1RcCI3N4ci+7eLLre+IqrKVonpvWcLnnNq8nehx7e9Fi9x82693/OgR8c9/fCMaZ7fOlNOmUtRGg5fwG0QIBTAhhARN+IYm4otIb0XJAl30fntwt+ntel472XY0uGT6daLroPssi2njvXcZONaRsSh9/leiVd6FbkS5IYCHMRpMSPg5mUNACAmB+C0StVHfwAvfr7a+o4nHF8TX5estbV+29FFbQnHzoolJo8xm3/+mPz8gjh+tFk2atxE5591ge0yOHvxCbFo4TmxfMUN06j9SpRDGqkGhdj4NYzSYEApgQgjxq/DtGRW+hUH/LF9sXKYLPJlobzzteg8RnS6+w9Z72L1hkf77d0e/sSSeje3B9pV/1MXqKU2a2hqbJs3P0EU5xsYFIYxJFFpFzxWsHUxIaKEFghASVPE7UfsxIeif40BFqfh44W8tC194f3MLbrUtNOEzXjvt6rp/d+4/Spx10XBT28IzvPH5XyWMWrfKu0Tk3/LftsZox6rZ4rMV0xJ+dsURYVSIGMZKEYSED0aACSF+FLeF4kRUt29UiFSL2tJViMihu5rrJc3gbT28d7s4rInFbw9+IboPmWhLcG5d+oRlq8NpHfuItr2vdET8QcBumD/K8rbvz/6PpLaJqrK3dZFvJzmvWetOCf/uQkQY59ga7Xwcw7rBhFAAE0KI04I3R9T6L68Uie0Mxt9cjfgaJcf2l28Q+z9/v16UFslmVgXjjlWzRHnJHMvC94f973Sk2oMBordWItDpxK8BItz97n/D+o2qyfdT/n+sEM4bNE6c3rWvk6cBLBFztHO0ryaCh/HbSggFMCGEwhXCtWf00UF75MT8dyW0j/ZYogmHyiTbFwmfNahAElfV1jUNBG8sWHq3Em20Y3c4pUmWJu7GOx7l3LbsyYRRaES40267/ElTCXP4vLAxmLVUxGNW7ON1Ppw/UskkQaMoer5fRV8wIRTAhJDMErwQqojU9o2KVjNVF6ZEE4omGUI46t8dGieYPRe9VWUr9OoF6WiVd7H0ayTzsZohq02e6H3rVMfr8iLpLVkk+uiBL9J+ntiEt3SUl8wVbfMHWv4MmACYOTYAgv7rZ9bXJQU6OG6FotYS0Y8imBAKYEJIuEWvYU2w01iiCNtHhfBgPwhfo1bt7tLXTAsrgx/kFZp+bqoEMTNAxHUZMNZ2JYV44EFGyTQrIJItK+YxxttXPmPZN53Vuqv0GEKgY1LTsaDIcvQ5AZj4VURFMJPjCKEAJoSESPRCoI6KClenausajSo8xW6dXVmRuX7WMGmBbYClfDuJdqlEudX3hW1h47ACBGnb/EFOWxPSCm+I9d0bXnOsU170XF5DEUxIcGnEISCExAhfNAFYrP1aERWr2WH5bFjuX/PY5bpH1A3xiyipHfGLJf9eNsuHJROwSFxL976q921N+Hck8NmpVfz3FTMtbXeyzQg43vP6Z4bqnmeMgYMiuCevHIQED0aACSFG2TFUWCgM22dDxLds6WRbos2K2EZVAjsg4c1p24PZqg21z20okBHRtlq9wgCTDytl0U5tfoYjY4D3j/bSDkWDGQkmJKAwAkxIZgvfbO0BRbMmbOIXYu39WcP1iK/T4vdA+Ual4hc4Xe1BRvwmA3WLncBKFPjw3k8dGwuHo8FG57hsXlEIoQAmhPhf/MLiAKtDUZg+FwQNhA26mqmyOuz//IPEwrii1BHxC++v38QvPptT42lEgb0G0WCMCyZLNskRtZFgimBCKIAJIT4Vvoj6IuI7RYTI4wsgZEqmX2t7md6MgEMVifjX3jD/Hl+OyZrHL7MkfmNFqlXvbjJk95fMk2wXjAu82ojc2wRe4Dm8whBCAUwI8Z/4LRS1Ud/CsH021KVF1Nctr++e0hOCyWglbDXhTRWV617Sx8Tu+4LYdzqaLhMFxuurHFvsG5H7zYsm2t3V4GiNa0IIBTAhxCfiF5YHRH4DE/WFsEy3PI3nlD7/K8tNJqyCxg6Gf3TzogmOCm+IQzveVMP/XLb0D468H9TvVTOJWGrqeVVlxa4cU5Rpw7jZ9AVPiE40E05A4bnXHqgjHM9H2mNKtAQhIYQCmBDigPjF0uyUILxXRPsQuSyZfp14e1If8eXWd1I+Fx7OqrK3PRDn1WLn317Wo5gqXv+rbe9YmjA46X/+7ug3UQG6QpngNCM2K0rmu3ZcMW61ZeJsieB6SXEolRa1HeFRJBI3goGFQvflR0Uy/cSEKIRl0AgJt/DFTRTid7Dq10LU8fixI+Lw3u0i57wbpLeHkIQvNFa4oRZuh59dn/T17NTZdQJEgdFgQQXbV8wQp3fpa7oUGiYN21f+0dHxOByNvqscY3hvU50v+FxulrAD8AVDBJ87/E9WS9EZ37urtO9gkZD3BmMb2CnQPnwqr2SEOE+EQ0BIqMUvIk5KCvVDsKIcGCoixEcbB0z+xPR+EMX9eOGDCSOWnfuPStjC1g/i1w06FgwTXQaOTSsgIZZViESMf/XebUoj7Kc2byf63f+GLyc5WW3y7IhgsMSByWex9himCeFKXtUIcQ5GgAkJl+jNEbUJbvh5pdPiF00lqrau0ZfEU4kSiNrG2a3T7g/irWzpo0n31TZ/YMaKX4BqFs3adE5YEzhRxFwF+8vfV7p/CHcc06atO/nuODsQCXZi5QXf548YDSaEApgQ0lD44kY7Siio7gAvJLyuWOo3G2X89uDetAIYXtVU5coQGYzfRyaJXwNMEJpp4tAQiG4JX4Bj7sZYIxnOiHRj8oSkO/iD/YADItgJsJqDBLm+ojYafIhXPULsQQsEIcEXvkhuy1ElfGurHciJoLxBv0np60S5qXQCB80gzh0xu977sdvMIajAC43WyPvLN/hGGDoNjve3B/e47vc1S6u8S0T+Lf/th7dSqT2uYutlQuzBCDAhwRS+ELwInxaq2H86a0I6vjv2TdL/Q71eMyIuvvFBporfWvFf7UiHOT/jRkTbDvBBY9UinSfbBfDdhyUCkeC5vBoSYg2WQSMkeOIXUd+PVIhfvazYrOG62LKz9J2sVTA8xGbr9eL1je5cEB6ZKn6Jf4Bl56ut7/jl7aBU2hQeFUKsQQsEIcESvxO1HxNU7Bs39k1/fsARzyeW7C+ZsC5O0B7RW/LK7B/76VhQ5HqTC0JSnZMXjFpkKsnTJeZGIpFhPDKEUAATElbxC8tDkYp9w5bgtMhs13uI6D5kYt2/0a3Ni4YVhDhNvD+dIpgQCmBCSMDEr5mENDtCIbfgZr0qhFNteQnxAz2vnZywPB1FMCEUwISQDBa/hIQZWCH63femrdJo8Lif0ripOL1rX4pgQlyGSXCE+Fv8FlH8EuI/4GXfsWqW7f18OH+knniKBFQHKIpOmAkhFMCEBFb8ooubkpsZxS8h9kFVCDvCtVm0uQlKwK2dNqSu6okDIpjVIQihACYkkOIXnZ8Wq9h35bqXKH4JcQh0rbNKbPtno9YzkkVRMcUmo6OrR4QQCmBCAiV+EfnNsbMfRKZQ3SEWtNFlMhohzoHJpJ0ocFabvHr/RqWUkunX6m2/bTInuopECKEAJsTXwndw1L93UHsMtiN8YXFYNbl/vYYUiCptmH8PB5oQh7ETBW7S/IwGf0M76PWzhjlhiVgcnVATQiiACfGV6M1GcwvtUSFqLQ9FdvaHGya8hIksDpsXTXCkyQUhpD5VZSss2xay2nRJ+HfDEgHLkg1yhKI8AkIogAkhVoRvTjTaC+E7Qdi0OwC0C45vYdykRW10CTdRNqEgRA34zn21zVqL5JMbfz/l/8OyhBUdG2BlaTSPEiEUwIR4KXyzY4RvkfZwZHkSN0hkpMdzavMz9MjU9pV/5OATopCKkuctbdesTae0z8GKjk0RPAGTbh4lQiiACfFC+E6MEb6OkaqqA6JL25Y/SesDIYqp3lvmVC1fFSLYSKwlhFAAE+Ka+C3Ufnwkaq0OjiakpKvq8N2xb1jyjBCXqCorlt6maatOpp+L77INT3AhEm15lAihACZEtfBF1BeJbWuEAx7feMxUdSgvmcsDQYhL7CldIr2NbCtlTHhtVIeYwqoQhFAAE6JS/BaK2qivsoiLmaoOtD4Q4h6qbRAnRPCjVusEYyLOhDhCKIAJUSJ+cYNREvU1gPWBVR0I8R9WbBCyYGK7Yf4oq6XXRjEKTAgFMCFOCl+jwsMU1a/18cLfcsAJ8SFWbBBWQLMMrAJZAOKXUWBCAcwhIMQZ8Stqo75Fql8L/j/c/Agh/sMtGwTAKtBXWy3VH2YUmFAAcwgIcUz89nR631jijL+Zbl8xg4NOiI9xwwZhsOnPD1ixQjAKTCiAOQSE+E/8wuOLmp9vT+ojDu89kezC6C8h/sctG0TtJLlar/VtgVE8UiSTOZlDQIh/xC8ELiK8sSK3eW6vut8Z/SXE/xg2iMbZrdM+1wm7BOoDt80fJFrk5stshpyFokgkMpdHjGQijAATYh3HxC+E75rHLhebFo6rJ36z2uTV1QmF14/RX0KCgVkbxLcH9zryen9fMdPKZkN5pAgFMCHENNFqD7bFL6wOJdOvayB8DdrmnygjvLv0dQ48IQHBrA0i1uJkh6/L1+vXE0nQHS6HR4tQABNCzIjfImGz2gOSVuDxXf/MUH25NBmt8grrns+6v4QEB7PVII46FAEGFqPARTxahAKYEJJO/CLqO8fOPhClWfP4ZbpvLxWndexT5yH8ats7HHxCAsb+8lITz/nAsdezGAWmDYJQABNCUopfJL0ttrOPHatm61FfMy2K2/a+su73qrLVPACEBIx031tEiFOtAFmhouRF2U1yak5QoT0WR1e5CKEAJoTooO1SjpUNDcvDZyummd7m9C59Y26ktD8QEjwB/HbKGr0q6gXjNW1UlsD1DYkHc6JimEKYUAATksloN4JCYbFwPG6A78/+j7SWh1hgfzCqP1hY0iSE+IRU9qWKkvmKhLcjwjonRggP5pEkFMCEZCaWfL+G+JVd5mx55k/qfj9QvpGjT0hA2bMhcfUWrAipKmvosLCGEIYtYg0rRhAKYEIyCO2iP1FYtD5YEb+1wvlw3e/fHvyCB4GQgILENNT5jp0UQ/zKrAjJAmF9ZN92p3dbqD0+YjSYhIUIh4CQlOIXiW8V2iNbdls7N7lTmmSJfve9qdsg3p81XL+JEkKCS7veQ8QpjZuKqrKVrjS06VgwTHQZOFbV7qdGIpExPKokyDACTEhqplgRv5XrXrIV4UGViM2LJujRoup9W3kUCAk4uB6Ul8xxrZujk+XVEjA6aonI5pElQYURYEKSEPW7Vchuh6XHtdOuduQ9nNq8HdsfE0IscdG4FXW1xBWxSXv0i0QihzjaJGgwAkxIcibIboCI7Yb5oxx7AxS/hBCrmGnEYRM0BmIkmFAAExIWotHfItntdqyaRdFKCPGJAN7gxstQBJNAcjKHgJC6Or850QeW83rI7gP1euHxIyQW2FhObd627t/N2pwtTmnS7MRFuPH3tb91srz/owf36Q8DVA05euCL6O97OCHLZAH8+ftuvRREMPIlhnHUCQUwIcEQvUOFhUhvIv6+YiYHNcPIapMnTmncrK5uc7PWncTJTb6vCd42qr2XJ8g1P0EDh/duF98d+0ZU790mvjt6hBVGQgwmP7BlGU11FFOkXVM/jkQiUznyJAgwCY5kovDFUh1CtY7Vs0Sdz00Lx3FwQwo68zVpcYYmbM8QLTr2clfgugBE0pGq7bo4Pnpwr/bzUwrjkNDnjnmiRW5+yokRJu8/7H9nyudJcI4mgjdx5InfYQSYZJr47RkVvz2d3O/2FTM4uCEA9ZezWnfVI7qI5sKaECahm/xzN9XFT7wAOnZony6KD+/bLvZ//gFFcQBBJ8mUAlj7fxzXr59ZL1rlXSK6D5lkN2KM6+s5HHlCAUyIf8RvkbBY1zcViP7SZxlMYGFo2VETu206az/zM0LsyoDxwOP0rn3FWRcN1/+GMn+oLnB432e6x5Tnvr+B1cUsVWVva8f2fdHzmkf0Y26RnuieGYlEJnL0CQUwId6LX1yMJ6jYN6O/wQFWBkR3YWNwaLk342jaupP+MECUGIIYFQeqylboTVyIfzgq2Uodx+/D+SPtdpKboF1z52oiuJJHgFAAE+Kd+MWSXJGKfTP6628Q4W2VdzEFr0IQIT6j10D90X3IxLoI8Zdlq2mZ8AHVe8ssbYeKNsePHdGPqVURLFgVglAAExI+8Qv2bHidg+wj4OFtlddftOzYW5zepa9b2e8kBiNCnHPeDXpy3Vfb3mF02GMQpbdi7zHauVsUwagKMYlRYEIBTEjIxC8iXYxweY/h422bP6je0nyYqa6uFts+2SL27N4ldu/cJXburBS7dtbqjM0bS8WBA/Y707ZokS2696qNmk+fOVu0bdfOwoSkab3o8Fdb3xFVW9dQDLvMtwf3JhXASG5UKIIZBSYUwIS4LH5HqxS/oGLdAg60h6K3bf5g0SqvMPSJa1s1oYvHJ5s3i80fbxLFK1e58roQ0cZr7dm105IAjgeJVXjEimFDYBF1oJKHHQsQjhFWVTCRkYRRYEIBTIiL4hfCd4rq10EUi1D0Os1760rE+pIS8e7aYtfErhcYYrjLgLG6TQJ2Iq6oqAGNT+xStvRRq5VSRmmPMTwKhAKYELXi16jzqxQkv3EJVz1oI4wkttyCG0Mrevfs3q2J3nfFX5f+RSxZ9GrGHeNYmwS8qntKl4ndG15jcqmDyJRCSwaudx8vfFCcO2K27KZFFMCEApgQteIX9X3X2LvIH6m7Kaeiqmw1B1yZIKpNZIOnN6yVG+DhXfHGcvH09Onio9JSHvQomOSg3jAesEjsLn1dr01L7PFd9LqW8Jp37LDp/SBCj8m/pBUiW7s2D45EIkt4JAgFMCFqgPi13OQCSW0b5o8S7XpfXVf0P5lI5k3ZeWBxyC24JdTVG2BvePnFF8T8Z5/lAU+DYZFAVLiiZIEmhl/jqotFvj24J/lkTLJMGuqeW/ACX6k9KIAJBTAhThNtdGG5vTGiGvC44QZbXjJXtM0fmHTJHX5F4gxGtDf3vBtDXcFh0csLAh3tbZaV5dlr43uIhgxnXTRC/+5BgNEeISuAdzu6LwtR4MHaNRo/34lEInN5RIgfiHAISAjEb6GwYX3YsWq2+GzFtHp/a5V3ici/5b8TPr9k+nWWi8uTWuDt7dR/ZOhr9UL4PvrQRFHxeUWgP8eBfxz31fuBPaKi5AUmzUlw0bgVCSf1y8f9SHpfWK0puOcVq2+lUntMohAmXsMIMAm6+IXlwXLS27ZlT+odj+KBxeFARWkDDyqWYyl+rYNWxD/sf2fou7KFRfj6FcMege/o31fMpBA2QapawLLgGgjLmMVVmxxcs7VrN6pDDNOE8CYeHeIFjTgEJOCMjl5QpcEyXiLxa7B16eMJhHExR9wC7XoP0SNQyCAPs/hFvd6rB1wmRgwdSvHrAjiXcE71uWOePrkiyfnuaMNSaJhAWGVP6VK7bwmWtTXRspWEUAATYhbtwgnhO8Gq+N20cFzK5yDKUbnupbiLPvM4zAJ/b8eCYbrwReMDt8qYvfXX5WLiA+PERT/7qR6JdQNUdcBrFuT3CnXtXgrh4HJ43/aGf9u73fL+qspWOvG29BW8aNdOQlyFFggSZCw1u8DSXTrxa7B95R/1ZA/4VGl/kBG+RaLDz653xd+bqo5u23btlb8+KjuMHH4bI74+EsK0RjTk+NGG5c4qSuZb3h+S4WzYIOIpiibJjYlEIod4tAgFMCFxRBtdFGqPDtpjsOz2ELHrZ5lvTY+qENuWP6lHMGl/8I/wheh9a/kysWD+vJSVFbr8qJvS94Go7/Qnnwz1cT0nP3iWlVgh/PHC37JqhMb+8g/q/RuJhHbH5UttHw5WbynSHj21a3w/imDiBqwCQYIgerFMBq/vUGHR72tgtYIDllbhCWYE2Dvha1b0xqKqegHey9DrrsmIJhaFF18kXlv+ZqA/Q2yZw0wG1W1yC24SRw/uc2Q8YDex0BkuHZs0AXwOr6xENYwAE7+L30JRW+Uhx+6+UO7MqoCl+E1M5/6jlApfK6I3VripAJaHm4dcJQ4cYJAqKMDGhJJ7O//2coOSh5kEqts42cRHkcUEUeA5mggexjOXUACTTBW/RcJGibNY4FWzc+Oj+K0Pqjp0uvgOJYltRpvgRJ5eGdp3yHH8vSGpDhUeSPDAJA0dHtHkpmzpE+zm6BAO+oBj0T3BFMGEAphkovgtdEr8go///DsOqgNgybPHtQ8pEb4oITbrqRli2eJXHYmudnBYAI+++062MA4BOHfR5Ib+YGc4rEYAGyKYneMIBTDJKPELz+9ip/aHUmaM4NoDndt6XPt7x2v4GtFeFW2C+xQUUPw6QHZ2dig/F87lfve/kbATJDEP/MQKQYm0TWyWQVTAOsDEj6C2ryN33eNHj+ilzIg1kOCWN+g3ulBwUvzC2wtRmX/2WbqlQEUyWbOsLIpfB+jWvWeoPx9sEahVzfrB1tj/+QdJ/w+TiyP7ttt9iTXRoAghjsIIMPEV0QtdkVP7Q9JLpmd+WwVNLM66aISjCW5IIHv8kd+70iyiqwMl0Gh78BewyRyuTv99Ltti7nmYJN1+5126LQLVDLBahAkzrxkSQYZjh1OKY0TXe147WU9EtIixItiPo00ogEmYKRIORn/LS+ZyRCVBJKzroHsd9fUheezRhya61izCidq1YRG/LVpki+69asfj/AsK64m/vG71JwmwpGzVxGMsTlpJUolaQ7Tu3FkpdmkPsHljqdJqG6gUAgFskHPeDaJVXqH4eOGDbKJhEjP2MjQe2l++Qa+nbvVQ1dTUjI5EIlM54oQCmISVUU7tCLU/GckxD+wOnS7+pS4CHLkxRv29bgpfgw65ORkpfiHouvfoKX7UvbveBe+n58mL10uvGOD4+4LlZc+unWJ9SYl2XhwSmz/eJHZWlHvePW/6zIY1bBkNthZsSLdStHvDIv2nDRE8QRPBSzQRXMkRJxTAJFRoFzd0dstxan922nxmGiiQ333IJEfsDhC+z818WsyY+qRntXLt+FanPDY5MOIXke6BVw7Wo7RWxK4KENHF45PNm3WhqzqKa5Vbb79dmyS0S/r/jAab50jVdlM5AjZFMFYGURmIVghCAUxCh2MFVpF4wfJG6XGyuoMfhK9Buw7tLW0Hq8bDD/q7ZB6ivDfecqsmeM9PKeDcAJHdsi2bxfqSd3Wx64a32wlgC/n1+N+kfZ4RDWalCOeACD6lcVPRZeBYS6c/6sOzNBqhACahQbuo5Wg/BsuK3GQ+1T2lSzmoaXAyyc1tj286sPwvC6KW48aM8uWxyj0zV9w89DZxzY03eSp6IXjfW/euKFm7VrxbvNo3x1uWkaPHSo0jKkX8oGtfsWH+KE6sE3CgfKPUJLq8ZI5o1qaz1cS4KVErBFsxEgpgEgoGy26wdekTotct/51QwFWVreSIJsHJqO9bf10uHvj1GN8JIVk7AKLXt1z7C98t1SPae8fI/1TiyzULKne8uXyZJniLlZSrcxtEf2+LSXwzCybbBfcsFJsXTWAXOZOkso4gMa6ZNqYWkm1hhRitPSZyhAkFMAkDUqE3RH9xcf1q2zsNoghIyGCUJjFORX3dLGdmReDIMubuO3wl4iF873vgt574emNbUa9dvcqX/l07jJ/wkMiyWCMa3xt0kUOCXNnSP/CCEuXbg19Y2g4RdUwqLFyPkBA3lwlxhAKYBJpo2+McmW0q1i3Qf1aVrW4ggJGQQeJv3Fmi963TbUd9IY4mjL/f10liRskvszw782mxZNGrGS18Y0WvX8ZCBbCS3G4h+hsPEuRadsynJSLK0QNfJAxSpBfOu/WIOiYVFkDDpGG8uhMKYBJkpJLfEOE1sokTLUUe3ksBHItTFR4gFB+d9KDvI4LtO5ifS8H3e++oe3whzGbMfs514QsLyxvLlmZMs4/xD050bF+0RMRckxM0wzhssgMcxg4RdQvlF4tqamomMQpMrMJWyMRTop3fpPy/sD3U+/fW+v/+7tg3HFhRG/VFB6b8JD5ps8DucNHPfqoLxSAsh3cwKYAN36+XwK7xu4ceFqVbt7smfpHIhlJv+V07iRuuGpwx4hfR9SHX3+jwd6zWEtG5/6hMvtQkbIaBxhdmqa23fMTKSxfxSk8ogElQgfiVMm1WlDxfP4KwdU39C2+K3vSZQlabPNFnxBw77Ud1gTjxgXHiigv7BSr5yWznsimPPeqp7xeCrPiDjWLM/eNceT1MZG676XrR/ayOeqm3oFZwsAqsJapAlYgf3zpDn3RmKscO7av7HfaHqrIVprdFsxFE0i2Q2TMPQgFMAs2VMk/GhTU+2oALbWz0IFVv+kwAiW4F97xiq5Uxlsbzzz5LTH/yyWDNpob8wlQkFWLQy8/2xLTp4rXlb7pS0gwl6hDtxUQmzP7edJMN1RH207v21SedqLKSiWxf+Yz+80BFqVg/a5h0Bz1YIbCtJNmoC8zbKLFChENAvCB60YL4lbI/bFv2pF5DMh4s9SPaCSH89qQ+GTmmiD7lDRpvO+qLighBEUrwzg4afLXoU3C+LnDMZPfjM17Y58eeREDxfp9f+Kro+qNuSl/HT01J/MDmHeWu1U/GNej92f+R0BZAUnNaxz564xFJiiORCLvDEWmYBEfcFr6ForadZY6V7XeXvpbw77BFICt7T+myjBxXWB56XPOw7ajvyNuLfC+YEOW9YtDPLXdCgzD0QvzifU956hnLJbgofK2RruWx8xPRpuLc4X8S25Y/WZesS8yB0paIAktWq0F3uBwmwxFZGAEmborfKaK2gLklkOz24fyRaW4+WdJLb0GnXe8hosuAsZYT3SCa4If1q90BiWIDr/qFuHzgINsNIVD1oSC/l+ufAYluKr2+FL7Jz53ST3conXSkItmKFUmOxSgwqkFM5OgRGRgBJm6JX9wFiuzsY3fp62mfk2niN2/Qb6yUD6onCFEJwW8JUU6K3lh+e/+9rn+OyVOmOV59IBZ4fNHCmcK3IWh57JX4BV0GjtVb/qLrGTEHosCp2twnAY0xjCy6TdqjUnvghsGWySQpjAATN8QvfL6L7ewjk729iXCisQXq+vqhBm4sSFa68ZZbRf/LBzguXGDxQNkvN8XvX1asVub3RSLfyOG3ZVw1B5nxj43+YrxuHnKV6JB7pji/sFDKN26XLzYuowiWAKta3YdMdGp3U0VthJhCmFAAE1fFL0qc4Q6dbWc/vIGcwK7f12+JbkgMu3nobeKaG29S6tVEJQS3xKJK8Ys6vg+OuzdjKzqYZda8efUi7yjpl8jmc05+vrjx1qHi0gEDlZ5/iGpaqY6QqVwyYb3t5j0xQPz200TwJo4soQAmbglgTOMn2N3P5kUTmVAiav1xvWw0tvCT5cGI9qq0Bxig8QNq3wZd/OJz0OdrblKF5iKxnNX639OOm2oxTBFsHrv2riRcpYngJRxdQgFMVItfR6K/YM1jl+t94zMZu8uCfvGKIit/xN0jlZcCM0DEGzWN3fjcqsQvJi7/OWJ4oBqSeMlLi5fU845bsb+gasd1N93iqAedItg8WOlCPXOHwUXgHFaMIIBJcEQl0l3ekpHp4tduNCTZ8q/bwvfX43/jakkqgOoIQRa/bkav3QCRf3D+BYW1E7sO7bVzon3d/3fRxi+RLxfWjz27dtb9e31JSXSCc0hs/vjEynb3Hj0biNZXXnxe+n3CYoIHosnjH5zomC8d1iU0zKAITjNx3Vumd5drnN3ayd3ifoSEbNYNJowAE3XU1NQg+ptjdz96Z6FnhmbsOBpNPizdRKqrxbAbrxPFK1d58t4hCpGJf9udd3mSje9W9FeF+A161BfC8fzCC0WHDjl6e+q27Tu4PvmpOz7fO8V35zIjweon/ikYFolE5nKEMxtGgIkq8VvohPjNZFDpAZEiq8luiJgNve4azwQUIr6THn3M0zJUbkV/Zzw711Hx68cKHemAf9bt6gpmJkA4B5wA5xEi8fBgj5/wkLhdE8J2YCQ4PV+WrVYlgKdo9yiWSMtwGAEmTgnentoPhGnxMzv60xEQKVk77WqKXwkQPfx5/ws98ft6ZXVIJH7ciP7GVxuw+56D1Ira6MqnomydGbz0tSPC/ch/TbHtEWYkODUDJn+iatdTNQE8hiOcuTTiEBCbwhdtKNdov34karu8FVoRv7A57FiVuPuPnfa+QeTU5u1siV8k/HghfuHt/OvqNWLqUzM9F7/AjegvxL5T4heTlgv7/Nj34heiF6K/4quvxXMvvqx/fi/EL8bLy6ROVFJBYt3VAy7TV1usYkSCMeklie8NihgdDdwQCmBCpMUvWhuviYpeezeTkhfFZyum6UkPyURhJlCb+bzQsvhFRAw3ZTdFASJhEESvLX9TX/r2C1iqVgmW/GHxcAIcN0xa/NrUAsf4iWnTPRe9BoiUwx/th3Jw8NcX/qSXbluhCFYggMs3qtz9FI4wBTAhsuIXmbSjndgXRG9V2dv679tXPpPwOS3PPDcjxO+5w/9kucYvRNSIoe4mC94zdqxYvf5DV2r5yo6FSnGEhKh5r/zZERGICh04bn6s7YtoL6L6qKl7u0eJjImYMP5+XyUH4tjBs20nGkwRnJj9n3+gcvdYwSziKFMAE2JW/E7Ufjh20agoWVD3O5pdJIoCt80fRPFrQkS5BaKfJaUbxcRHJvtGFMXy6EMTle5/8pRptm0eiGKOvvtOz8vTJQLWjs07yvVor5+i+sbkZv6zz/rye2xEg/Ee7YhgEvM92bfV1PNQK/740SNWXmJKtGY9oQAmJKX4hWdqgpP73F36Wr1/J4oCt8jN17ugUfw2xG0R9buHHhar/vaea40sZHlvXYlSKwGionYj3hC/V19+qe+EnCF8/eLjjsfw/foZRIMxGcX3EsfZighG6UNSi5nkQARNUCt+23JL10GI39EcaQpgQtLOlp3c2Vdb32lwgUMUOFHiww/730nxm0D8uiWijKjvmPvH+XpMZz31R2X7hvVhylPPOCJ+/bSEjwRGPwtfY9z84vs1A76XOM5WLBGo+00RHDOpSJMI9+3BvSnvHSaYUFNTk8ORpgAmJCHaBQKd3Qqd3GfV1jUJ//7xwt82WM5CFLhjwTCKXw/EL7y+r73xlm+jvgYQGyqrKMD6YMfygQgmSrP5RfwiuQ0eXyQw+lX41ikUn/l+zYD3C0sEjrsVEdy5/yhB0nN47/YT37Glj1s+xTiSFMCEJMPxjNn9n7+fZEa/W5RMv1Z8sXFZvb//IK8wFAMZFPGLiOdLi5f41usbz58XvKhs34iS2rE+eFmbOdFxhZUFyW1+8/gmws++33TgeOO4W/EFn3XRcNGu9xAK3BiBm4jvjn1T9ztaKFeue8nKyxQxCpxZsBEGMUU08c3RGbLZBhfIis5q3VUTxXt0YZzp4tetag+wPKDSgd8jg7Hkd+2kzP8Li4DVsfCT+IWQnz5zdmCOq5/Gzi5Wm6a8P2u4+Lp8fcbefxAJx2TA7PjgntHvvjetXGPnRiKRYYJkBIwAEzPiF0kCjq/FHd633dTz4BHGxY3i1z3xi2QoWB6CJH4xNqrELywgVscCtgw/CDhEfVHLNwh2B4Og+X7Tge/ulMfkvb29bvlv/dpBkpwncZUicM+wmBBXxIoQFMCExIIMWccvCvvLN2TUIKKZRxDEL0QSkqGCYHmIZcHz85UJxzH3j7cs4IZed43nAg7R/OIPNuq1fINEEH2/6Xj4wd/pFiYZcM3occ3DrBGcAFSASFQpwkZCHCtCUAATYj36Cw/WkTQR3qMHvsiYccSNq/et0yyLXzfKP0HoYYk2aCIJIMqKGqwqGDl6rKXJgF+qPSB6jbJ1QYrmA3RWC6rvNx34XLIiGOXRet86nTelOFL5g/++YqaVXQ7lqFIAEwJQ+UEq+ovqDdtX/lFsmJ9asGWKpw3iF8XtrbY3dsMDCfH7lxWrfdfRzSx/enqGsnG5zeKEYMzdd3gqfo0JDRIYgwbOeXRWCzNWRDAq4bA8Wn1SrSTiHmMhCpwTrXhEKIBJhiOd+AbvFZak4NmNr+IQK5IzBTvi1w0PpCF+/V7iLBUvzFETKbQa/YWwUVmOLR0obxbUCQ3O+Vuu/UVGXBsgghHplgHl0VgZ4gSH936aejJlrSzalRxZCmCSwUS7vuXIbAPbA7xXBns2vJ74eVXbM2IMEa2xKn7BsBuvUxpFhDe09NMdgRa/b/11uZIJgtXor9clu3BMV6//MLDHFJFzlZ38/AYi3bIl0roPmZhRSXHNUlxD060koiyahSgwI8AUwCTDkfZCbV36RIOLk8VEhMCTN+g3erTGKhMfGKfM12oIJVR6CFqyWzyvvPi8kv1aif5i6d6NRMVkGNU7gnpMEQ31MnLuFThnMJGTofetUzMmKe7kJt9P+Hez9xYLXuBs2iAogElmI3UBwMUo0WzcYiJCoMESZc55N1jeHhGh6U8+qez9hUX8quz8Jhv99XrpHuI3iNU7YicPYff9ppxw3V4k1TGucXbrjEmKa9oqcQT4QPlGU9vjvoRqEZLQBkEBTDKRaEecHJltKkpeTHrxObJve8aM3Wkd++hLlHaEgMqKD/CHhkH8greWL1MmJmXHx8ule0P8BpVM8v0mDSAcOKSPAcbCLEiKy4R2ycmq5+z//AOJ+5N0J75CKgEKYJKZSEV/MbuuKns7+cVn3YKMGDT48lC03o4QUJn0Bl/r8wtfDYX4BU9Nn6JkvyPuHin1fC+X7oMufr2ePAC0hf7r6jV61QyMJ74nXoAxQOk8GdAhDZPuMAcUkiFTSaiqbKXsS+ewNTIFMMlM+so8uaqsOOX/IzHOwhJUwKIUWdFi9U0t70Nl6awwVHuI5b11JUpEE+whMmMEG8ajkx6k+LWI175fNH4Zc/848dPzCvSqGRjPHfv+VxfDOBfcBt9/+P9lwKQ7rH7gZm3OTvj3r7a+I7UfVCWysBLZk1KAAphkHoUyT95TuiTtc7avfCbUAwY/np2KD/D9qhQCM56dGxrxC15+8QUl+73rHjkf6j13etOqNwzi12vfL8YwWeMXiGE0EEFkGLYhN4H/XyYpDpPuntc8EsrrasuOvRP+3Uon0S8lRTMFMAUwyTCiyz6m1wAR2UWpmXRUla0Ibf1fVHyAH88qiCKq9P0imnXpFQNCM96wiixbrGay0P9y8+OE6KXKSh3JGDzkF4EXv177fhHdnfToY2mfh8hw6dbtuk3CTZAUh+uCWU7v2ld0LBgWumtr89xeCf++u/Q16X3JeIaj9BWEAphkFFKz3v3l5pbs0Rxj599e1n9PltUbROxWfABDr7tGWRQRUa6gdnhLxoo31NT+hbA064/2yvoA4TblqeCvpnjp+4Ud6H9mzZbywsMmUVK60TVbBM5vrC7IcNZFI0JVH7hV3iUJLWWV617S7yeyWOg+mkM5QAFMKIBTCGDzS1G7N9TO2u34ZP0EbjZdBoy1tY8pj01W5vvFzTrokcJEPD1dTfmnKwb93PRzHxx3r+vWBwi3ea/8OfBJjF77fq3agbANKqhgouQGWF3A9cEsuK4iDyE8AvjCBn+Dj7ds6R+sTyzk6tJTAFMAkwyjh5QA/vx908+NbY8c9EiFE0lv8EA+/ODvlIqlsIHIq6oJg1n7AxLwvBBwSGJs265doI+f177fe8aOtWUHwuTjuRdf1ldW3ADXB5n6wMhDCEtptNO7nHAgwD63Y9VssXba1bb2eXivXCJctCMqCSEncwhIAqRqAEHUSgmYDa/rHdKateliyjvsV/IGjbeV9AZQ8kwViHIFXSwl4k9Pz1CyXxn7w8jht7n+uVGtIOhJjPD9/rz/hZ69PlZEJj4y2ZF9YWWlW/ceroh5XCeQkGcWlEZD2a8gX18RYNj4/K/q/m3BvpCQ7459o/R+SIIDI8AkEYVmn2ilzbHRGKNZ686BHSD4fu20OQYqrQ92o1x+ZumS15Ts97zzzeW7YPnebe8qxPntkp3p/MiwG6/zpGIGwIoI7AtOgmOCBFPV4DohY4UAQbdCwOOLe4XxcAoLiXCEApiQhhw9aK22LxpjtOyYH8jP7ITvF8v4qqwPKNk05v7xoTzfUBpKlfi8dED6CQ0imG4nvkG4hSHpDQLOi4oZBi8sWqzEO40EU0w4VYPrhUxViDBZIQihACbKkfU7WRXAaIwB72zQirc74fsFstndMsyY/VxoOr3F88qLzyubNJixizw382nXI5iwsgT9eMIzrWrCZwaUMEM5M1XAVuGGJ1i+KsTwUFWFcIJvD+6R3aSQo0YBTDIDKb9T9d5tll8IjTFadjw3UIPT6eJf2vb9IoqpKhKGSJTKG72XIPqqKvHs/MILTb3+jKlPuvqZYX0IupUF43bzkKs8e32MIUqYqQaeYNXVIXDdkGmQAboOuo93tXoCeDcHgVAAE/sC+DsbjS1qo8DNAjMwqElpt94vxMADvx6j5P1hqTys1gew6KUFyvZdcMEFaZ/jdvQ3LNYHL32/iOy7OYZ4LdV1gnH9wHXE9HmUmx/KBhmEUAATp5GyQFhYTqoHusMFAVgfug+ZZHs/zylMoJo8ZVporQ9gwXx1yUZmqiu4Hf0Nw/H00veLCcTzC191dQzxWig9iNdWBa4fuI7IgAYZQbOb+YhDHAIKYEISCGB7y0lWuvl4Miu45hHbvl+ViW+FF18Uum5vsaAOqqqKGRAr6QTwopcXuBrFDMPx9Nr3iwmEF2Xj4CWHb1slmIzJJMTh2oVrGBFWJgJTampqCjlyFMCEZBywPpze1X5L+P969A/K3uN9D/w21Mdg4YIXle27e6/0S9aPPjTR1c8b9OPpte/X6/bf8G2rrAyByZjs9QTXsNM69sn463lW665WNlusiWDWA6YAJiSzogVOWB8QDZv/7LNK3iOihWFNfDNQVfsXnH9BYdpj52bdX4i3oB9PL32/fmn/jcoQKv3AuJ7IRIFBj2sf4kXdGhC/UzgMFMCE6By3kQAXFJywPoDHH/m9svc4febsUB8D3ORVCtCu3VIvk7/84guuft5fj/9NoI+X175fP7X//p9Zar+bslHgxtmtMz4hrkmLM6xuWlRTU5PDOz8FMAkh0SWeHmaff6Rqe6jHwynrAyKIqgQByi6Fsd1x/fF7V+n+87p1T/p/WMpXFblPBKK/QT6eXvt+/db+Gx5k1CBWBc5NjLkMmZ4Qd2rzM+xszs4iFMAkhOK3UPvxETQVR8M56wNQGf0dcfcvQ38sPtm8Wdm+ETFMJZhUll5LRJCjv177fiE0/VgzGTWIVVohZK8vWNFCPfNMpZm9Ou5FvDtSAJNwiV98qddojxyZ7Zq26hTaMcENwgnrg8robyZ4f8Hmjzcp23e6BDiVpdfiCXr010vfL74LbjS7sIpKKwSuL6iSIgPqmZ/avJ3IRJq1sXXfytbulwwSUQCTkIhffJnnWNnWCYHoR5ApbbfhhYHK6O8dI/8zI87RnRXlyvadKgEO3mNVpdcScf1NNwf2GHnp+0WzizkLXvH1+MAKobIqxKynZkhvkzdonMg0IPrhg7bJlVQOFMAk+OI326r4DTNdB93ryH5URn9x0w96i1yzqEyAa9ehfdL/e2v5Mtc+I5bIgxrN99r363azC6ugS6OqBhlWKkJkYlm0lmee2+BvFpK5GQGmACYhAOKXtQ1jQIZ009bOWDtURn9vHnpbRhwP2QQf6clOikYJbtof7rrnnkAeH699v7PmzfOk2YUVINLRnEMVVuqM/7D/nZklgDv2bvC3zYsmyO4mm40xKIBJgIl+gW3PZMMUQUDiGzKknQDRGJVLwtfceFNGnKd7du/yRAC7aX9AVDCoXd+89P163ezCCni/qhLiEAXGhETq3MvNz6go8OldGlb1qSp7WxzZJ13RiDYICmASUPFL60MC8gaNd8zXrLLrG26gYS99ZrB75y6l45gM1aXXYhl41S8CeWwmPjDOM98vjt2kRx8L5Lj94Yn/Urbv52Y+LT8JdMjy5XdQ1jL++n7s0L7aCW/pUtndFfKOSQFMgsloIVnxIRktz/xJKAYkq02eOKPXQEf2pbp2bFCXy62wZbO6ChAdcpN/BUrWrnXtM464e2Tgjstbf10upj/5pCevjYg5qioEwfebCHi9UbVCBTOmyh8TWL7a9R6SAQL4wgZ/+/bgXv1nVdlK2d31ZGtkCmASMKKdbCY4tb9mrcNRCq3roPsc25eVKIzcDfT8jDlfd1ZUKtt3t+49k/7fu8WrXfl8SGYMiofVAPaQkbcXefb6aHYRtDGL5/ePPaFkv7CjLHpZvnZ1p4vvCPV1BPa2RPaHA+Ubo0J4txUbRE8qCgpgEiwmOLkzmzUVfQE8cPDCOcUL855T9l4zyf4AVPpw+xQUJBV4KitPxDJo8NWBOyZDr7vGM98vSomFofoJBDw8zCp4evp06W1QGizMUeBWef0T2tuq926r+31/ufS1ppByggKYBIRo4luRdFShojTlhTPoBdV7XPuQY/vC0rBK8TTwysypwCNb1kmWtu07JPy7m/7fywYMDNQxge/XzdrI9dTGxReJiY9MDs35rarrH46PleopuefdKMJKq679Ev59f/n7Mb9/KH3roKqgACbBQTr6ixqJG+bfU5cskIhEtRWDAqIeDhRGr+OVF59X+n4vHTAgY07WPbt2qhXASSLpKlsvxwIva5Bq/3rt+/V7swsr55+qKPDLL74gvQ28wGGsCIEADWoexwPLw/Gj1QnFsElogaAAJkGgpqYGX9ZC2e12rJqlXyRSLQ+1zR8U2HFx0vuG5Lcli15VKgKC7n2UoWzLFmX7TpWEpLL1ciwXXHhRYI6F177fv6xYHdikt1SoigJbKYkGwlgXuFXexQn/Hn9Pw31O0gecQ2VBAUyCwSjZDWB9KC+ZE71YbEguzHLz9RIzQaNz/1GORn8XvbRA6fvt3is/o07Y3QojwO07JL93uVXa67zz+wbmWHjp+31i2vTQTvxURoGtXI/CWBc4tyCxtWNP6ZIGfzssmQgXDSwRCmDiV6KVH4pkt9u69PG636vKVqRsGdl9yCQ90zYo4L12+Nn1ju5Tdeew8y8ozKjzVmUktlv3xPY91b7jWPK6BUPUeen7hTi8/c67Qn2eq4oCW70ete0dnh4PKG+ZKMiBSG/13rIGfz96cJ/sS7AUGgUw8TnSmVNfbFxW7wKB5aGdf3s5haBsKvqMmBMYEdyxoMixpheGcFItEpJVLQgrOyvKXRefqn3HsQTB/+ul7zfIzS6kBGe7dmLwEOeboeB6tPUTeRsR6qEHPbHZILfgloR/r1iXODq+//MPZF8is6ISFMAkgEjZHxDp3b5iRoO/f7ZiWsqKEEii6HnNI74fDBXR3z8veFH5++6SQf5f/SalsJpGsrFU6TuOF3d+x0vfb9CbXcgy4u5fKtnvQovXpdyCWwM/pslq/+L+hhXNhPe+Y4epFiiASViIepRyZLZBpBeFwROx/pmhYseq2Q2qQuCigqjx7tLXfT8mTkd/gcrav4YgyBQxAKxErpwYy8MWEoeskKoLnV/w0vcbhmYXMqjqDvfCHGsdKREFDpKlLRHJav/i/hZb/SGWRLaINGTORTmEnMwhCD3S9ofdG15L+f+IBOOBZbJTm7fVxPKepILZjzgd/XWjcUKmJcCpFKKpxlJl6+VYUnWh8wNe+n7D0uxClhtvudXxBExMYGBjkR1PCMd2+VfXJUEHkUTViRCoKS+Z6+TLMAkuwDACHH6kUs0RxTUrZvG8r8vXB0r8ou6v09Hft5YvU/6+U1UtCCPrS0qU7bt7j+T3rEOH3Il4tuvQ3rdj77XvN0zNLmQYcv2Nemtsp3lj2VJL2yWrnhAEEJxJ1N3TKOuZctJQUSoIBTAJB4UyT64oeT7Ug6Gi573q6g+gQ4YJ4J07K9WJzyQd4ED1QXcEcNt2/hTAXvt+X3vjrYy+WN99zxjH97lssbXa5KieENSSaIk8zAjuBDmiTZyHFogQE219bBr4ei14oAKD013fdMFUXe3KUjE8xu+uLQ70+P/+sSdM+zp3KRTAqcqPubXs3zaFCPcSL32/LyxanFE+90QMueFG8eikBx09BlZtEPp52vtKfZUvaMDDHAvyVmDbI4QCOHPIkXlyVVlxqAdDRce6FW8sd+W9w2Os2mesGhlf7+aN6oSoH8qPJWvD7CVe+n7R7CJIbaFVgQnAwKt+oXdycxLYIKwIYAjJsqWPprUN+A1YHU5p0kz/HTktQbLpEfegBYICuI795R+GdiCwlJfIE2aXkrVreZaZRKaMm6oopAqPZRjw0veLGrhhb3Yhw4i7Rzq+T6s2CIBkuKABq4ORrE3xSyiAMzSgICeA3w/tQKjqbvRu8WqeZWZPRpPL2++tU5cA1yG3Iw9EHF76fpH0NuWpZ3gQYoBNyOk60YYNwtKkMcDJcIRQAGcupku0oDxM0Ja5zIKM4HhPmBOgVm3QbQlugQQn84Jsl7L34Yd20n5rguGV7zfTml3IcNc99zi+z/Ul71raDnkTaClMCAUwCSVHqraH9rO1661mCU9lqa6wIVPHePdOdQK4azfvmytkNc/2zXHx0vc7ecq0jGp2IUP/y52vg7x0yWuWt03WUpgQCmBCfEzb/IFK9rvu3Xc4uApQ2YyiXfv2HOAoXvp+0ewCdW9JkklSVpa49fbbHd0nVqusdlhM1FKYEApgQnyMitJnBmtXr+IAmyRV84l4dlZUKnsfjDjW4rXvN1ObXchw+UDnq9ZYXbVC86BWeZfwoDSkZ01NzWAOAwUw8R+bMn0AVJQ+MwSEV/VSg0hWlvllf1VL8oUXX+SLsVBZ4s0MqF3tpe8305tdmAVly2S882ZYvvR168GE/CszYtxPaSzVKRQHaLEmgot4xlIAE39hOqvt1OZtQvfhk7XDdIL31r3Ls0uCZiYTnTCxUIVf2kl7PXGaMP5+z3y/bHYhx83DnLVBFK9cpU+ArHB6177ilCbhP3ZNW3eystkcimAKYOIvTN9pVdkEvERV8hv4ZPNmnl0S5JlMPtuza6ey99Cte4+MPw6LXl7geJMFs7DZhTzX3niTgsm79eTdVnn9eVBSi+AcDgMFMPEHUhaIsJW6UZX8Bt4tLubZpQCVlTXMiHC/2CRUgASocWNGefLabHZhDXjWnW7eYrUcmi6Au/YL9Xhj1dAmU3jWUgCTAArglh1/EpoPjs5vKqPaXi0hBxWzXeB27qxU9h78FH1U2ewjEVj2/s8Rwz2xX7DZhT0GDXZ2JcvO5D3sNohTm7e1PddjFJgCmPiASCSCu51pRdGyY+/QfHZVnd+8EC9hwKzvc5ciAey35hNu45Xvl80u7OO0DQLngVUfcO194tzQjnWTFmc4sRtWhaAAJj7B9HS/eW6v0HxolXUrVXYqCyMymexI0lFBt57myrC51SnOzSYqXvp+2ezCPhg/p6tB2PMBXxjasT61uSMCeCjPWgpg4g9Mr3mGpdYjPgM+iyqYACeH2S5wKitA+C0BTqXVIxYvfb9o5MBmF84w8KpfODwBs+4DDnNTjGbWKkDE05NnLAUw8QD4j7THFO1RoT1qtD+NzrTZverPsPnjTTzRJMjONhe9KtuibmJhtgpFnwJ3fMK7XBDAXvt+pz41kye/QzjdFMOODxjBBeRYhJEmzZ3JG9FuvYU8aymAiXvCNxvCV/u1Iip6c6zO7oOe5KA6QuF1I4OgccWgn5t63tYtW5S9B7MJcM1c8qqqsnrE4qXvd94rf+aJ78H5axa7PuAfhNQGkagG8PGjR8SBCunvUQ7PWv9zMocgHOJX+7FGOLD0UmuD6C92b1gUyLFQbX8AfusAh2hbVnNrHkE0h+jgYIOIrt261Ut4gqA06wHdsnmTsvEx/f5d9KvCh6mqMoWXvl80u2jbrp0gzoHvFEr0OTlx2vbJFsvnX8uO4UsqTRbV3rxoQu3ETq6pEgUwBTAJkvg1QPvg4ApgtZEJNypAoGHAkBtuzLjM+Y8/2qhkv2YT4GIFsxuR07ItW5QIYC99v7976GE2u1DEgEFXOiqAkYhp9VghUoqaud8e3B2a8W3W5uwGf/tq6zuiquxtK/WB2XUnANACEXwWC4dN95jpOlAQ3BNU2x/sLBuaAYlDaBiQaeIXCXAVn1co2XfBBRcoFcxWWb70dSXnp1e+XzS7GHP/OF6RFeG0P/3dtcW2tm95ZrjKoTVr07nhJHXpZP2nBaGfwzOWApgoJNp7vFDFvnMLbg3ceKCTnWr7g0qfKnA62SUoqEyAk7U1uFUxAtE8pydUXvl+0a2MzS7U4nQ5NLu5DGGqG1/7eepbHHasml1P+Er6gFkJggKYKGaCqh2f0Wtg4Aajbb76+uMqy1fh5nbpFQMy8kS2U5Yp3ZjKCmCzFSOcwElLjVe+X4zx8wtfZbMLF7jgQudadWOVwE7pwTCVQ8OKZ2znUCS+lZfMrfecowf3Se2zpqaGIpgCmKgg+uXKUbV/RFLb9R4S6Bm8ClSWr3Ly5hY0VJWWszKmbnpY31i21JH9eOn7ZbML9zjvfGdFp52VF9wjsOoWBuLtHDv/9rImgqttCWCNbJ6xFMBEDcrDnbnnBaeIPWbwTZ0pYp6S6oPqvJVmy4WFEWUd4LpbC8Ig494NELG1a4Pw0vfLZhfu4vTqhF1LV8uOPwmHAI6zc+ze8FqD5+z//AOegCGDVSCCi/L1JwhKzPCr95YFbgavCpX+yv6XZ6b9QWVlDauJQ2iJ7EatXrDijeW2RKRXvl+wZdMmcfWAy3g1DihIhLOTuAjhWF4yJwQC+MTq4Rcbl4WqugWhAA4V0dJnhW68Vm7BLWLTQv9ndgc9IQMRx0z1UL65fJmyfVu1M7jVEQ48PX26ZQHsZb1f1RNCoh67iXDN2nQK/BggyBPr/92z4XWeGBkCLRAB1UsyT4ahHw8rBCXRwQ3/r52EkXSgxmemYqcta7pJhR3h7GTGfToRaSUK7qXvl4QDu4lwEI5BLZl54t5xwsZx7NA+8XX5ep4YFMDEx0ipUizplEy/VhzZt136hWo7w13i68GIz+BVJoB37VS2bzcjjn4C/lVVUUTYGOww8KpfuDYOs576o/S4eeX7JeHC7nUt6PWA0fjJoKJkAU8ICmDic6QS4PaXf6h7mtbPGmZJBLfL93d0MugXYNRQzdQsevhf/TqpkG2gYYcli16VisR56fsl4QId4ezQrHXnwH72+OTpqrKVPCEogIlfqampyRGS5c/2l7+v/0RZFysiuHluL38L4ID7f88vvDBjz+e/Lv2Lkv3CvmC3nJnbSYkPjrvX1PO89v2ScGG3tnmQfcCt8i6u+x1tj5n8RgFM/E2hzJPRvSa2nqEVEQwbhJ99Xm74f4HdSEky3Iw0+o21q9VUWnCipjKSEtHe1y0QBU7nBYbvd8TQobwKEsewW9u8RW5+YD97rP2hausangwUwMTnSPl/D5RvbPA3KyL41OZtfTkYbvl/VfLT887PyBP5rb8uV+ZhdaphwHU33eLqmDz+yO+T/h98v7dc+wtBiJM4Ue4viA0x8J7r2x9WOP0SNOhTABOHKZR5cjJPk1U7hN9o1qZLoN8/lurbtmuXkSeyU13QEnHpAGdaeaM1tVvVIAwxAotDIsbcfYeo+LyCV0DiOHYr3ATxOowSnwZIFI/v/BZPyzPlmn5EIpFNPLMogIlDyPp/UfosVRMLQwTD+xRUsgIugDO5/fGyxa+qubGdmevopOLmYbe7Oi4obRbfHe7ZmU/rFglClAhgm5UgTm1+RuA+c2yJz6qy1Wmff3Lj78vsvpJnFQUwcRapvq4HKzaaEMnV4sP5I/UZcBBp0bFXoA+o1Va9QUel/WHQ4Ksd3d9/3DXS1bHBuCDaG8ujkx7k1Y8oo8xmS+SgXYfb9R6i57bU3gOPaAL47bTbSCb7UQBTABMvBfD+8g2mn4tubztWzU76/9X7tvpyQJq2CnYnokyt//vKi88r2/dlDtkfDBBNttNUwwqI9mKSoH/3qqtZ75co5XB1dUZdh3PPO9F58att5lZAT2nclAKYAph4iFRmz/7yD6R2/tmKaaL0+V816BqH7jjp/FFegAQ4YxYfVNq275BxJzEEnarlfCfKnyXivgd+6/o4jby9SPdmohqF2wKcZBbvri22tT2uw6c0CUYr99M69qmX/FZRYm4yHruNCXbyrKIAJs4iFQFO5f9NBpaC1jx+WT1fcFVZsS8HI+gJcLoAzsAEuEUvqeu2pKp7G0Q1vMVugqjv0Ouu0X+fPnM2r35E3aT0oP0VhqzWXYNxze19orETgjtm7pMWqlwwAY4CmDiM6XR01P+1iuELfn/WcLFt2ZNi+8o/+nIwgp4Al6lRvaemT1G278sHDlK27/EPTnR9rNDtbfTdd+oTpd899DCvgETZeWaXJi38nwiHVcMzep2wSJltfdxEPsmvkmcVBTBxiJqamkKZ5x/ea7+82dfl60V5yRxf2h9As9adeGIEDDR6UFXKC/YHlC1TxZDrb3Q9CgzQ9Q2l0cbcP45WCKKMaps+4CBUgujU/0RCK6x+u0tfM7WdbLCFJdAogImHHD24N/SfsUnzYDfAOP+Cwow7L19+8QVl+1Zlf4jFiygwQPc3JMXNWfCKOCc/XxDiNNs+sVcJwu8BifjoL5LfzAZ3JKtcUPxSABOHkVJLh/d+GvoBacoIcKBAQheimapQaX8wQBTYqygskuK+2L1L/M+s2a425yCZgd0I8MlNvu/rzxcb/QXbV8wwf6+Rq3JBAUwBTLzk24N7Qv35MJsnweJPT89Qtm9YE1TaH2LxoiIEQFLcz/tfqP/+lxWrKYKJo2y1WQvYz6XQGkR/t76j3SPNdb9DApxktaF3eDZRABNnkaqXZfbLHVwB3JZnRIBAdOmFOeqiv043v0gFKkIMHvILT8YxXgR74UkmYf2O2qsE4eeSlPHR34oS81aslh1/IvtyjAAHhJM5BIEhx+wT4+v4hpFmbc7mGREgnpv5tNJmDm53a3to8hNi7epVnjSoMEQwBPDq9R+Kqy+/1HYWPwT9iLt/mXTyYjc6SNTwwrznHEsq3fyxfd2GSKvfgi+I4MZGf1EhCQne5gVwb5mXO8QEOApg4qEAPlK1PfSDcUqTZjwjAgIE1IypTyrbPzy5btdTxuuNn/CQuHfUPZ6MqSGCX1i0WKz623t6qTSr/mpEkac89YzecCMZbtlLiBxoYKGqqoo1AdzWdwK466D76v377ytmSm3fPFcqAa6YZ2VwoAUiANTU1GTLCOBMwIve8+06tOfAW0B19PfGW2715HPdfuddnlZkwJhecWE/vUTa1KdmipcWL7HkC54x+7mU4pdkBsUrV4XuM6HrW4vcE9/RynUvSUV/6f+lACbeI9UBzokawKQhbds5K4Dtth8NAqj8oDL6C8GHygxegYoMXoMSaYgAI0pb/MFGqSoV94wdq6R1NMlMWp75E1+9nx7XPlT3+5F926WbOlnw/xbzLKAAJh6SCTWA/ZxxTE7w4Lh7lUZ/R44e6+nn6/qjbr7o0Ab7w0U/+6lo2qyZeG35m2LWvHlpo8GIXk98ZDJPUlLH1k/C4/Xu3H+UaJzdWs+J2bFqtlg77Wrppk5t86VKK1bS/0sBTDwmE2oA+znj2HSoIIRLjrGg69uSRa8qfY1rbrzJ88/plw5tSITLP/ssvWEGouKln+4Qt95+e9Ln+yF6TXx276iuDs1nOX70sHh/1nDx9qQ+4rMV0yzcY7Jka80X8wyiACZEKV7VAFaxVBymiEssSHwbOfw2pa8Bced28lsyps/0R3MKRNtvuGqwmPjAOP3f8Ab/dfWaBuXSnpg2XY9eExL/vbWDF7kZySgvmSPl942nVV5/2U1e5xlEAUyIYgEcnhrA60tKQnmMxtx9h/Ls9BF3j/TN54UQn/HsXN+8n+lPPiku7PNjPQqPiVvp1u26VQMiHdFqJPAR0mBCznJ3JwRw136ymxRz1CiACSEmWfdu+JKGn535tHLrA0Sc3yKYSELzgx/YABMQVIm47abr9cgerBpIkpuz4BV+8QhJAewPp3ftK7PJkkgkcogjRwFMiFKatDjDs9d22usJoVgdIt8dSnK5URvXq3bE6YDI9KpLXKpzDN7gKY9N1iPVLHlGkrFzZ6U94di4aSjGgfYHCmBCfMmpzc8I1edZ8cbyUHwO+JnHjRnlyiTEz6W70FTCy/rAiYA3+OEHfyfyu3bSJymEJGKXTQEsmTTmWySrP+jzTJ49FMCEhJruPXo6vs8Fz88P/LhAVBXk93KlNbBfo78GiLC+9sZbvkiKiwe2CNQNphAmJDFIso5tnmFG/NL+QAFM1CE1LT+5SVOOmDJx47yoQTk0NIwIKlhah6hyA9gLgtC4ASL4LytW+1IEUwiTZGzeWJrxY9Cu99Wym9D+QAFMVKHNLqUEcFabLqEej2YeLrOpaof8X4/+IXDHAd7lqwdcpi+tu8VDk58IzPggSc/PIjiREA6TH53I48YKjt9pmz9QdhPaHyiAiWIqOQS1nNzk+95dHNupEcDo5BWkKDCaLSCxys1mHmjb65e6vzIi2E/l0dIKYe2YooZwkFckiLdktckL7HtvlXeJ3j1Ogrm0P1AAEx8JYD8VIw8bXRSW3rrnzuG+//yIEKKsFpotuBktQhR1zP3jA3nOoDwaWhMHARxT1BDuflZHPbrPqLC/UZGTYHfyc0rjZoEdz3b5V8puMo9nIQUwUQ9nmT5AZQkpRFMRWfUrRtRXdY3fREyeMi0w5bsgIOJ9tWhNHBQRHHs+GlHh0Xff6etzM3OvR87ba/bs2pmRY4nkN8nav5WRSKSYZyEFMFHPx2afKJnBSiRxuhZwLCNvL/JdxA2CDtFAt6O+seMNARkUEMmHcEwkgl9avMTXnuBE4JjDooPjf1brf68Tw4wMkzDRqb90Z8lpHDUKYOIOlTJPRicboobsbHUCBmIDbYT9Aio8YDncTa9vvcmcJhanz5wdmHMDXfCMsUokgmGH8HtinFkxnHv6abodBp8ZNaAJCSp657cufWU3m8uRowAmPhTAWa27csQUcd75fZXuHxYDiAoveW9diV4ZwM0KD4kYP+GhwCS+IVL+6KQH6/0tkQgOQnUImXMVnf9QA9qIDlMQk6DRsaBIE8FS5UOZ/EYBTFxkk8yTm7U5myOmiEsHDFQuXiAqvPBcGnaHKy7sp1cG8BLU/L39zrsCc17A+pDIIpJMBJd+usN3HePsYESHYwUxziWsIuBcZmWJYLBn9y5b27c88yeB+ryI/nb42fWym9H+EAJO5hAEA8w2a2pqcHc1pbyatekc2rE4tXkbT18fEcniDzbqtXtxw1cF/MCIFHZVWHkiVviq/jwy5J6Zq7cUDgoQuKlsIkajkFgvs9ExbsL4+30z7k4LYoxJ7Lhg4ti9V75evaBd+w4ir1s30Vb7GbTydmFm985dGfV5LUR/i7X78SaeKRTAxF3wpSs0JYBD0pM9Ed8e3Ctbq1GJCJ761Ezx6/G/0YXjssWvOp4ghv39vP+FeqRQVQUEvwlfQyQ9v/DVwFR9QDLYuDGj0j4PIrj6UHW9qDY+I86jbt176JHTsJNIFBsgGp7VPFucf0HtJa6rJo4xPig9GJRzgQQLi9HfSRw5CmDiPu+YFcBNNQGML/fxo8zUdkMI42GIoW0x/sf1JSX1nv/u2uKE+9lZUa5bDowIWSxTHntUTHxksqPvG0vSz8z4H8+S21KBkmduRL2dAkmLZic/ELlbNn9cd74YQBQjGnrzkKsythvXR6W1bXgTnZOoBPLa8jd5wSGO0uniX1qJ/hZz5CiAiftILbu07HiuqCp7m6PmIohU/fS8grp/x/6ui6X7x3n23pCYtHDBi2Lpktc89/cm43cPPRyokmeYSMjWRTai7fEiGOcKov0Q1F7UWiYkk0Dd35zzbpDdjNHfEMEkuGAhNfNs2fHHHLEMB9Uc0NoWFR2QmIQuX34Vv7fefrunEwRZEO2HT9sKEMEX/eynDWrpYgL13IsviyemTQ9FlQiSeXx78ItAvM+8QdLXGkZ/QwYjwAEimgiHKLCp/pctO7IhhhXBGE8zTZQEYUnesF/AdgGrhR/tDanEb3xE1O/AmmLHroAlf3RZS5ToCEsEqo2gskSQjiMhRw/4XwCf1rGPbNc3wOgvBTDxmGKzAhg+YCzzfHuQ5YfMgEgpIqSqSNRBzkj4MTASf9IJ3a1ban3GWzZvEocOHRKbN5YG1jtqiF+Uy3ph3nN6hDrRWKEBSbfuPRNOUOCfdXPigomSE+cKjhki84j4xpd8g78cvlfU1UV94Uz1BhPiNF0H3St932X0lwKYeM/r2mO02Se3yrtYlJfM4aiZYPPHaivbJIrkZXp0zxC/EHmxTTeSjYsT3liUWDu/8ELLEWfd+jD8NkfHAclxy5e+LuYseKXBBAjCeMgNN4a2XBrxFzt3Vob683XuP0oPDknC6G8IoQc4YERnoaZDQW3zB3HQiC9BwhtEKGroulkCDBHm62+62fL2sD6o8FFD9MMSkagBilEu7a+r1ySMjhPiFLtCLICxImqh7NkSRn8pgIl/WGL2iZjpZrXJC9WHP7x3u5L90mvpDkjumjVvnp7wBvFrNIlwC3SYi6/OYRZU0lBpk4HN4YarBustheMT5ADeN2wRGD9Esgkh5ulx7e9ly56BMRw5CmDiH16XeXJuwS2h+vDfHfuGZ0BAQbMDJH2h1BlEntviF+L7oclPWN7+P0cMd+V9wupwYZ8fJ0zKBBi/0q3bKYSJ7/i6fL0v31fHgmGiRa50YvikSCRSyaNKAUx8gvaFRATYtA3i9C599aYYhHjJPWPH6q1/m2Vl6yXAvPCzjp/wkOW2u0jSM5o1uAFsFldc2E9PzkwGhXBm07VbNw6CCWB9OOuiEbKbQfhO5ehRABP/YdoGgSUf9DsPC8ePHubRDxAQZvCuopsdyrQV/qSXq0LSAN7Z+EoLZoH1ITZJz01emPNsQjsEhTBhi2hz9L51mhXrwzCUHuXoUQAT/zFN5skw/oclCnx476eO7zPZUjOxDuwGSHRbvf5D3buKCCoiml6V8/r9Y/63PiQCUWuzQscQwphwwOtMiJscqCj13XvKG/QbK1UfmPhGAUz8ivblRM0u01/QsEWBib9BebPiDzbWdXa7esBlnkVQAYS41ZrAKNHmRcQaIJprJWqNCQc6ym3eUa5/dkaFSSbSKu8SK+2OMUMfxtGjACb+Zp7Mk8MSBT5+jBYIvwKbAaKPKNkFry0i6yjt5WWFDYg/qy2W9+zerTeh8IoZs5+ztT2OAT47osIvLV6iT0zYYpmo4ruj/klQhu+3+xBL5XtpfaAAJn5H+5LOFbVGfVMgCtzp4l8G/nNX7y3jwfcZhs8XJbqMEmNeWx6cEJFoRezV+7dTri0Rl14xQJ+Y7Nj3v7pXmGKYOM3hfdt98T4Q6LHo+10STTInFMAkAEhNcbEcFLa6wE6wvoQeYKvCF2IKEUZDrCFq6rXloU7Ajh1rWUTC+uBl5NpOubZ0wCtsiGEjMkybBAkDEL99Rsyx4vul9SHDYCvkgIMocE1NzQRoW7Pb9LjmYbF22tWB/txItrBQ05E4BCKHI0ePFbfdeVe9BC10MRt5e5HnUV9DnI+5f7ylbVF1wUvrA3y7Vsu1yYLIMB7G5OWt5cvEunffEWtXr/LFcSTJaaZ992Q6A7bvkCM6dEh9q7h0wADL76d67zZPxwPBnd63ThWNs1tb2fwqWh8ogEnwQBR4jtknY2aMfuifrZjGkSOOCF8IxjF33yGWLHrVN+/1kf+aYrlMFD6LV+IPwv02i+Xa7ALRjaQ7I/EO5d+wOrJl88diy6ZNniUDksQgsRO2I7/w3dEjnr02PL/nDv+TFduDfg9l1QcKYBJAolHgUdqvPc1uc9ZFw0VV2crA+mkPlG9kBNhFEGW68ZZb9aXzePwU9TWAf9aIasqCz+OlkLcj3FUIrPjqGUhsLNuyRRfFu3ZWsoU4qePbg3s8eV0bnl9QrN1DJ/LoUQCT4IJ+5WtkNsBS0dppQ8Txo9UcPdIARCIHDb5a/MddIxMux/sx6gsQpZ7y1DOWtsVngpj3cqJhVbi7BTzV8b5qjBuanOzZvUvs3rlL7NSEMcSxri4okDNIAO/25HWR3G3B8wswa7+KR44CmAQYLN/U1NTM1X41ffeGTwrJAkH0A+///AM9iu0UzdhRqU6ADRh0pehTUJCybq4fo74GM56dazmCOmH8/Z5+pukzZwfyvMF4m0k2jG84g0jy4er0E/B2Hdrzy0kSclrHPlZq/Rritx99vxmsmzgE4UETwKhpVKE9pGobfbFxmdi0cFygPiuSHQruecXRfSIBaM+unQ3+Hl8horr6kNj88aa6f++sKBcVn1cE7nxBpLR7r3xx/gWFuuCVqZaAEmd+RPZzxB9/lD1LRfXBQ8p8sE9Mm265VTMhXoPE5PXPDHX9dS8at8Jq0tuwaClRQgFMQiKCB2s/Fstut2PV7MAlxQ2Y/Inv3pOxFFwrqGqXg8G7a4uVC6hkwMrQIbdjXQY4RGLb9h1cqzJACKEAVkHHgmGiy8CxFL+EApjUiWBUhCiS3W7zooli94ZFgfmcNmb+vgAZ9sbyb6xYBls2bxKHDplbmeveo6fIyjoR9IfABRS5hBC3qFz3kihb+gfXXg+Jb/3ue1M28c2wPWziESP0AIcTJMT1FBJVIUCXAWPF4b3bAlMZ4tuDewMtgFN5bAkhJEh8d8zdNshIfLNQ9YHil9TBTnAhJGrqHxad7UrMqJvqTTIwsw4CKIVGCCHEe44fPezaa6Hmr4XEt0kUv4QCODNE8CZhoa0jSsl0LCgKxGf0uusQIYSQWg7v/dS11+px7e9lN6lkrV9CAZxZIniJqLVDSIHyYqiy4P8LLgUwIYRkEih7ZqEJ0hiOHKEAzjwRPFX7MVd6hn3Nw77/bCi6ftzD1puEEEJqqd631ZXX6XHtQ7KbFEeDQYRQAGegCIYVolhmm1orxDDff7YjVdt5gAkhxGPc6CiKe5KFxGdGfwkFcIaDdo+VMhucddEIPdnAzxzeSwFMCCFecuzQPuWvgeRs3JMkmcvEN0IBnOHEVIaQuOA0FXmD/N0h7suy1Xr9SUIIId6AkpSqsVD2DPc8Rn9JUlgHOLNEcHFNTQ08waPNbnN6176iVd4loqrsbV9+pq/L14uTtYui2zUoCSGEGAL4C6X7R1K2hbJn06KBH0ISayIOQWahCWC0DKvQHtlmt0Gi2ZrHL3PF40UIIYTE0ueOebKVH1D2LJcjR1JBC0SmzXgsWiGw/EQIIYS4CVYgWfaMUAATp0QwSsIUy2yD5SfUXySEEELcIm/QvbKbsOwZoQAmKZFulWyh/iIhhBBiic79R7HsGaEAJs6izZArtR+TZLbBhQgXJEIIIUQlKHvW4WfXy242lWXPCAUwMSOCURFC6mKBNsl+rw1MCCEk2OQNGm+l7NkkjhyhACZmkW731uPa33PUCCGEKAFlz87oNVB2s0kse0YogIlpostFU2W2QUZuENokE0IICR5dB90nu0lldEWTEApgIjdzFhbaJMOjRQghhDiFxbJnjMgQCmAij9XawD2veYSDRwghxDEslj0r5sgRCmBiVQTjAiJVOxFtklkbmBBCiBNYLHvG6C+hACa2sVQbmFYIQgghdrBR9qySo0cogIktolYI6drAHQuKOHiEEEIsw7JnxHXNwyEg8dTU1KzRfhTKbFMy/TpRvbeMg0dISKC9iVTv2yqOH6125Vw7d8Rs2c3GsPIDoQAmTgvgHO1Hhcw2R/ZtF2unXe3NRXpXI1GxJvGpXP1ljThew2NKCCFSorRVRPQc+k9XXqvPHfNkKz+g7FkujxKxAy0QpOGsyEKb5KatO3lWGzir/b/E8W+F+LqqpsGD4pcQQuTJ7efOxbNd7yEse0YogImvRPBEYaE2sFdtkjsNoNIlhBBHROnZjfTAgmqQ+Nbp4jtkN2PZM0IBTJQjXRs4b9A4T94oLta4aBNCCLEhSiNCnHWZO9YHJFCz7BmhACa+IzrLniuzDWoDo5OPF+CifQpd7YQQYpmccyPipO+pX1HDaqGFsmeTWPaMUAATtxgjJGsDo5OPF7WBcdHuchkVMCGEWOHf/r+I6NDXnehvp/4jrZQ9Y9UHQgFM3MFKm2QsaXW6+JeevN/Tu/9Tz14mhBAiR+cr3HkdlD07o9dA2c3GRO9HhFAAE9dEMFokF8tsk3PeDSKrTZ4n77fLlUyII4QQKVHaKiJadHYn+vvD/nfKbrJJuw/N5VEiFMDEC+TbJF/zsCdv9HvZ/xI//CmjwIQQYha3AgcWy56N4REiTnMyh4CYAYkHNTU107RfJ5jdBrWBO/cfJT5bMc3199v2p/8Sezc2Ev/3/xgNJomB37FJCyGa59T/+3f/EOKrMhGKcwdJoa06NxLNc2u0iWH9z3OoIqJ/1iP7amtok8wl95yIdn6oj/5aLHu2hGXPiBJdwyEgMmgi+CPtR0+zzz9+9IgomX6t+PbgbtffKzrEffgSjxmpJatZRLQ4UxO8HbTfc/6VNtMd58/WVyOBFcKtciKiy+B/mc7oP/DZSeLgzvCIf2J+klQwqsaVyg8IiJx10XBpfc7KD4QCmPhBABdqP9bIbHOgolSsf2aoJ+/3k1dOElWVvJlnsuht00uI0zrX6NYYWf75j4jY+FwjUX04WOeQ3Ta2//dlRFR93IhiOAPofnlETx5WDcqeFdyzULbyw6RoUyZCKICJL0TwFO3HaJltSp//lagqe9v19woBUzItwpbIGQSsDRC9rXqYE73/ONRIHDuMnxFx9KAQ2bk19bpgQQyunxusS+X5d4i6z47vwP7PGokjVbV2hybZEdE4u0ac3FiI77euSdvxi2I43BPEH9/lTuJbz2sny1Z+QM5JLis/EApg4icBnK39gBUix+w2sEKsefwy7We16+/3i/dPEtuKeeMOM1jGbdszoonef4l/+0FNyglRdWUjfak/lfc1XhgEaSUB1ocfXXfivX/49ElpI9jYBl7odJFyQwzv2VTDSWUI+PENwpWWxyh7du6I2bKbDWPlB0IBTPwoggdrPxbLbFO57iVRtvQPnrzfTfNOYqJPCEUvErz+/eyalOWbINoOaaJ370YhZWWIXRr+avNJYvMbNbbfb9YPIg2S7sAxRJ8P1ThyjqICitHMwIoP3qxtBJ7h//1UE8Sf/YtiOICgdXznK79z5bX63DFPtvIDyp6dw6NEVMIqEMTazCkSWaKJYNQHHmx2G9QG/rJstfi6fL3r7/eHl/1LfD2X872w3LhPiN5/JRW99Zft5RUa7BAG8RUUZESvmci0k8IS1gYDVHqQ/eyYJFQXC73yd1azk2rtJD0bJtNh/Ft0FqIzxXAgJ485ff/lzveVZc8IBTAJIbhIFWqPbLMbdB10r1g77WrX3yjER+45jUTFR7w7BxEs0Z/eRYiWnSHEvlMmemNBVNaWwDg3opfjO+l7ckLDEJZn/SMi9rzXSFS+L2c3gK/XKQwxvK1YE/E5jWKOAcVwkMG5ybJnhAKYEItEawNP0n6dYnYbL2sDI+LxVRlrAwcBGXuDk6I3lsYWo76owICmArECw0hE+2qbEEf2NkwmQ+Je0zainsDEA1aGVj0aiW2vRzy38MADXVWp/fKGvBg+UF7D751PwLmGiZkbdCwo0r5Hra0EVghRr2E4BMQusrWBwZrHLvekNjBuyBuX8Ebs1xvz6Xm1dXrlRG/yfRnWAyvlzKx4aeN9lagwUflOI7H7U/OCwxD/Z132z3ri8rPXTza1n16DT7S03fnOSeLv79WYHn/YHVAFo/a9R8TBivTiFdH5Nj1F2ja6xnE78LkIXFm5MBF7fqgEZc/63f+G7GYse0YogEmgBDDE70dSQjSAtYER2av+ktnvToIx/fezNdGVk9oja0X0xgMRvOPNk0yL0VgBbKaSSLz4lRGfyYRwl8vq12g1I4KtCvd4wS0rXs1G7Y2JwdefaQK7Uoj9O/mdsktsgmWqc85ufWgZfnzrDHF6174ym2hngziHZc+IW9ACQezPoiKRTVErhOk2yUiKQHLE7g2LXH+/P7y0RuyfJaRvuqifipsHbt4QBOlKaZHkIvVEN7b0VQZORCAbjnP9igWpb+wQd7UC1Vwk1YiEgu+OpReQhvhNF22GCGnaWnsX36v9N7zGh/fWNHg+zk9UnmhXcXLdvvHz+DFnS7J1KYyIM85NXQ0AE4ozL/mnODNOvMa+D7xfjOvuTyHIGomWHSJJbRKoLnHGuUJ/GAIblTooiM1PHHEONW2FY3NilWPLy41SX/suc8f6gLJnkuIXTKL4Ja5qFw4BcYKg1Qa2Gp1LVjoIkbZv9kXEN1WJxUymAoHarE1ENNebS6RvTJEugQqRrlTCKhZDVEG8xje3MFPWLLZGaqrIKz5jr9tq30sy8QvB0v6nqW0Chk/481UNo9zxAjtVc5fccyK6WDXOy1QR4ETnM74bEOVmIrlGXeV0Pl8jidHMOWAcu//7spFuwcj075MhdhtnJW9cYsbiE3teqOaCUa/p+R4SFGvitx+vmIQCmARVBBcKyTbJX2xcJjYtHOfJ+zXTICDZDanb9anFV6woPlZdGykOu30idhkWgvP7P6hJO0axyWHJIn8QmC3O1Mb97PRdyzDmX2tiLJFVIr7lK0TW5gXJkyJju6mlqiMdK5Tj7TUYk25XynsuE03QaiO16esSxy5zI1r77jPmBBGOxbYljRpEl+tX4KhJK1wP6YI4dZOR07vieJovDWccW5R10zva7Q1fVzqMS5MWtVHd2siu+clCqvPYOA8LRqX/PjoBVva6D5kou1k/Vn4gFMAk6CIYzTEGy2zz/qzhntQGttIkIPZmZUT9ZIDI+Ea7YRltd40GCEcPBOuGDpFltNSF2G3cTJi6WceKpGSNKWKjvOkihrERSDNlt/oU1dQTXdgeSWqJyuNdfP+J100mgGMjqPE+YXyO3kNrEoo8jMF3/6i9/J78veTP2TCvfqQ39v2vn3JSwnMm3ue58rFGDc7dTgMaTibMTAgNy0k6z3b8sUkWHZY51vHEW5H8TKzlxcBoRZ3s+Jv9LsWfI4mInTwpnQQ3yRL97ntT+9lUZrO5mvgdxrsnoQAmQRfAsEJUCInawMcO7RNrpw3xxArx+dsnWa4NDDHQ/Qa5m7ZZgVx7g4/UNWP47h/1b/KqBTNEFDBEbpPmtc0gZIRurFCp3pW6ogBeT2/FayIqmMyDGn9sTjlV6Ps0IzQwGdr6aqTee4sVwO883iihyDAEabwtIZH4NSpCYMKD9xQb8TYaZqBUX+ykCgJnfUwDl1hxmywKjH31ve9fDQQw/n5W3+RCKH5yhkgr7CPJIrlmq3bET3xSHTfss0VH85aZTAZ2oS2vp19Vim/rrRKUuDzrouEym8Dzi8S3Sh5RQgFMwiCCRwuJ2sBgx6rZntQGTuenTBvxSBLlg7AGhm/PjB3AKeGc8C5TUft/sYldsdiJQiUTOvBDJxO8hq1BRjx9/Wkj8dXWE1FjiEEISSwXGwLd7jgbFoZ0UdR4YREf/Y21RRhiddubNXVVHSC4ty+PNIi4JrJMJNs3jvmaqYmPeXz0+vi3wvZkDe/5n0drLQjxKxdGBQgIVzNWCUPAIXqbrrIEIsQ4xmZtNUEGk6Rjh2u/r0ZyJL4n8d5dmdbc8eeiKlj2jAQNVoEgzs+qIpGpmgi+UtR2iTMFogZVZStF9d4yV98rbqZdLmtk+mYSD4QzliB7DxX1BCQiefWTUiL6w4isGkuihnCzK0DxORAxSxoFaq9OdBvJfxBEJ6KF9as2GJE9JFalq/4QK3qRCGVEwQ0R5NTNPFbQGRF2CDqzQJgYwM5hAFtEVvvvGogVeJAhDk/4hGsSnk+oU9398pPq/MqI2P7vpycsGFUfNdLHAMf8tFaNTFUhwXm4+SVExU+qFxWXiegb444mF4mO1Xf/+Jcu3NC9zphspdq/0TDDqCyBVYJ4Lzh+1jXgeK/2e/Rv/18j3SuLz2F8f9wQeE6B8y52UoqIOCYo9ScBtecHzqUzL6mfpGimJJ8B/NtZ7d2J/uYNks7lwFGdyjsmoQAmYQPdfKRqA3cddJ8ntYEhNE776CTL5cwMEdztykZ1kTuIE3iE4zOzjdf4uqrBtEEYCzLxItkQE/oX1sFIrczNGiIXy+GJl8UbirnYiGDtUrb8TRif899+YP3mbUTT0r/3hsD6EbufRCB6bUwEYo8xJj+x4wfxi4QziF+zzTgQLc5q36hOPOb20yYXUb86vM6GBoUIbHgu1b6uIQohdg0RLA4nen4jfYKiJ2BFzznjfDMrLGvPyRrLEy18ztOz8V08IajjI/51Yvv/1Yj/q4r/HI3qfXcwLsZnj28N7bRYNs4zA+N8A8Y511DgJj/3YsVrfIUOs81QDFDy0Q1Y9oxQABNiyDmLtYE7FgwT5SVzXH+/aF2bLFverAiOj9wlE8HpSCiS32solGNv+E6SeCKQ/v3jhq1XgKhLkFIflYuNphlR3MTRNDli2yDHiptY/n/23j5IjvI8+316VliShdBKxtIiJLT6XO0q6IMDSHzkFRwBlo1VIhgw5I8jSBUQB9fBiguC6/3Dku24klSdAqXqjct2lS2cqmCnEltU4pjYIRIOCZIBSeCAJGPQgrBYQOgDAZIiafvM1bO90zM7M9tPT/czM7u/X9V6F3l755numemr777u624bX/idqPVE+yAq9uUrnvCxSncEhn89yS/ctbZ/ULRN+Fih6U3/n0S3Xl+BUN1e+2+pch5UUGswRFRuLwrLMN2j3A+epR0hvPiZtTJ+1FrtC8yhYrnk8QYuAJK9N+zfK8Mhe033Tf31id8VXqILzyT0rHnAdhPFnm3mTAkIYBipInhDXgSrpNsZd5t5q+4xB57/sfOGOFWg5q+ob3KXULXvsvZi9S2pCK5PrLpDgm/mFdndgg6ra+WNWUMj5dzvh/A5a23h40+OvNLlcZVYk/VBtgDb4y+xM2+1NygyZSH5cG9RdNeyvKSJ9nPwOhvyWiu19SS1VgyHnn9olwjE+tvan21WYnA4wguAZqDSVD7ZaGyerwT9jBVubCEqWlhm/oqNnCEBAQwjHcXbxM4GVnzO0lu/aZ79wX3OF6oTxsGdubrTFVT1u2J96Qk8SxHcSH7v8/VXmMJIsOE9kc1J6FEW0dvtavBS9VR3BJQikQRVPkNbTbQq3UxUr7rWb62oKO6m2U30ayWqDdp5/T/t/s7cVcZJs6Biz1S0sGQzmb+AAIYRjz7ofN/fnP/xzrjbyEsmT5nrbGCdMHo+5yfOBh4UdP/jD96iLhfBGlU6kkYnS7zGyYOtlH3cDFXcelB1WlVOWQwGP1Ajx1x2DCUYyKaRNGVEFe+w8hm1O4wZRtzoYiKLxsck74XhrBXlSR5xq8enT46c91Exoq7ySGqbC2dV5KMDX7JkwXVftM38leeX6i8ggGHUoHqohmPEzgZectvXGpINrMpUR2db1ZzSuEQrd1ERrGgt3c5Ut3u9j9EM6Fa0KlZhFTdsAFIVV1RuOBsZwkXWjLHtRS9wQZh6Jc9Pwk77JO3nPNxFR9j41swMWitMJY/yUIEcbWjTPh0J7x+hqq884tX8uqHPPS7zV7upiiv2rPOqO2w320TmLyCAYdSgTl/f9yWCY3e3jWu/IKguvPRPf+58vWo+ea+ObGCh29+V4qKEqjPqdp8/MNCh2kS0VkC3oA/szVUQuSMfiTBVWQu383MlojgUoRJux+vwlkaFrCLbtH+jjY8F28jQfV6efNCK1BbIrf38wol6HUsVZ3em5u9WO8bVxPSEaWecPIclt33DdhMdRWLPoGnIsQvAkQjenP+2zWYbVRcmTV/kfK2q1Op2ZD28UxZnXClKS7d5lfGqYQq/f29hXKmaypod+TrPGeEjdE4eHf4JKvs4JDxuBZFaQE1h0epwEqJCNhTSn1xohvzbkAvI80bX50uzv2+CWMD8GtUQqfe63vN671fy6ZZ/VigKLu5jqHnOBbKoKbXHkvXEngECGEYr1vPel9z69YYsVCcnVWmSIu9j9NalQv6febgtSAaoRCiG1VSmKV6X3OQF2bFZxJzVcxJXtJIabE6P8EKvPMoh1Rq2lMcboiQMocr/oEjo8oMqsbytSS80oo8dil393UBsn6psA9B2UQ9taEcZyZwzriAsm0EIa//rfau16P2iSWwaTa33tu7+VPM367NBnxFnTpWOz457d0gX7a6m5MmiZoliz7ZwCoRmAgsEOEPeL9tsYMXrNCobuOfmfvPM5uQn1HBil9CJ79Un24KsYHmMZbOodbKKxj4FgrrMY1tOmIErsmiy04lcKRnv7fMST81rJcr3ocRMudjURYD83Dq2Os7nd7QFlf+5NxQvas4Z3xY0diVBt8hDQrGrW9xj2wu3uAsT14b+7allN03UbDjSKaRB5PIi84yZmb/w3L/VS/V9EM0JrjRko57Yt2OR9Uo4R/3dyoKOk6et9ekC2gX6PJZFzZL1nAEBAQyjXQRvGBiTvDTuNorZ0Zjkj44ccLpWnYhmL8ufnHYlO5HqpNy5sjjNK0yYkJCRx7hzeS4QlXGqNraTtqJT0E4eM4mfQ7RBJxzpO1pQRS5sZJzaXXmYxKtPFqeXqflIEwGjU9g0/S06KCMuuvswa2VR0Ly3T01h/uAtbgni3h2Vj8WMy/2S53DaHx3HrCCCxwRNmUvXFZ77vn8xiWINdcGn1I0sh33oPSqBW1i3H9xh0UCe6P8fN+ZNny0uqCP2bDdnP2g2sEBAI7CqBihmJ8Gc+VSQ+FN1JSl7Hi9uK1GkE6tQ9VBDN57OC+HXn2oLBE2aSHQrKkvit9yPHAdVonTrVmJCf2u0iV9xMHLKDqq8FSwxEle/29E2eJHSvdozv/lp8fcknnQcbDzTehxF5oXotaHRyBevLd7ilnCqZEMpVIiL22p62mhCgvHZbxXeT7p4uWL92cBbb+tZ13tz9w+N+e0TbcFrv9o47KQXVrsfbQsmT0YFrl470WP3yr96sd+rWQ2iKSdh7BnVX2hKPHYBNALf9x/Of/uSzTbP/+2fmr6Xfu58rTphybqQFPl5o5Fo1Uaa6ja7Ko2qGtpWncKsXXWMy/OZ9PavxL48vtEcUdsRrCMJ+UpDUSIbSiVLjMTVpev8wVvXEkzKO45WcHV84mRA6zVQbo/R/p882x88JtVej1rHinuK65Voq2e8dysTXkSE+zGomD+V/G5O+N7QNL5zO/zA+mAjOnXM5A/XxWilirSa46LvOZvPnOhrNEsUe3btn/3MdrONuuvHGQ8QwABFAaywqP3GIhv49InjZutfrXaeDSxUsUkqKsuFSRxRqZPtxOlmcMiCvoeJAqEPOPT9njhs6p5epzV2Li+97T7axa9QdU3ZzSHVKuHlgku/p8ln5VnQEtF9L+SC4xa+nrTtlLl58bukf0i+r4SQjnMojrS9bBbl1d9yEV7va3akiODFd/gl7ztdFOiuTFr7JeoNDqfdiXBk99CJhmZY8VvtGFdCd5TK37NZccW9j9omP/Tmxe9sznaAAAYYKoI1HOMnVp+o//lYQ7KBdeLc/p3k6QflAkno1vmebY0VKKHwLfciq2Km27+jWfyG6BZ6tMFIHl/dHi9/LegYK94q+poZMz65h1TH4MwJr6SiW+k1qMdVw2ZU/MpWo9v4o51KFwbhMUy7US6JeJZ3N1pJthG/em5X3+87SX5Q7Nnye75ru9kfkPwACGCA6iJ4a/7bNTbb7PjO3c7HJKchKiqJYJ3wXnnC/XhknXyVMlCpCU/Ca+f3ci07nCMLyqt0lS4QZF9Q1FWWRCvQOoYXXWmGdP+PRr/2cEJR/unyanwohJXW4vpCTxGH6i8o/yyIK34rvSazZNVDv7BNflDs2bW8+gABDFBdAHfmv+0yFlaI42/9xvxy080NWa8abOoRhpWqdeGJ2EVFSrf0py8zVU+cOgm/+He5ui0Vo0EEC1Vl+14oJDJUspCkje4avLvXVD2GzXBXoVmpZRc4NTCV8Y3/Mpm99oNhGF1hqkr/kIsWNTrGFb/l1pws6br+fjNv1d22my0j+QEQwADDi2A1wz1ss81vn/yu2feLTc7XKqGqKLN6T4SVbsuGAlQe0WrNMklFr6aHaYBCrWYZ25PwaKRSk5pQRVhRZVlX5KLRbOUCLk1v62g7fuXvwaO9ueBCI439OVxzaxKfvRJaXCQ/KPbs2gefsE1+UOzZXbzaAAEMEE8Eqwq81GabrX/5aefZwElPWDYiuPxErFQHNbrFqTxL7I5v98y4dj/IMY1zkgxitrbkKk4Vg8rHTlO3yq0H0fzf0Cc8aVrhI1YNUucvrJ0rKxGrY660gOhQk6jYiT5GeOw0EEMVaC5c4h+/apaIahe9p456QbJHOFWvvLmtvBlu3CQTKykiyQW1ou4UT+iCpbf9hbnwks/abKLYs9mMPAYEMEB8ASzxu8tmm8P7nzfPfHud87VKdCi/t17BUd40FZfoiGVRzxQq3TL/7VOIpzSOX7kAriVsoiOuh0sKiArg8gpwvZac0YyOgQZPuIgQq4bt8XPZ+DZp+iJz9f/7I9vNiD2DloFBGNAcV2IFv9gjNtsokmfmpbc4X6tOPgqtrxed+MIhClYnprwYin4lOYHL7vDMwwW/KOI3+fFLiiq74ZfN31G8VlprGO1o3ysnWXd00hx0ERc9ru3xk8/chfgVPWsetN2kF/ELCGCAZGzUh6jNBt03fjnwqblGXs9oFS8pqr66Ovmqci3BLeGrlAAa3dJFQ0iy5kgv+zltZGeSEFZusi4MXaBEGVsblWwWrjJ/OxbdYJv5K5j4BghggCQM+MYSjEn+SkPWO391/bdOVX198TGv4ihk3UaXJ7QeJK51Uv/vH7WZrY94QcU3C+GrW7NKSRjNlFdnXVBpPPNIRnYQeWCzQBVhXRg+9Ve54P2i903S95+208Xmqz8fOkZZfzdJnKIyg12xaM0DtptsI/MXWo0x7AJoMhG8xfd9fZDeFHcbNWm8+dzjzrOB1cA2f0Wu7oEDug2qJrTy7nQ1TIXjW6PNbeMny/NbrZGq0KwjMXb8YJgkke2JM8w0PdY7usRYufjU5K8sOLesUVLiKmyePOfj+f95f/Tsc72+1QDWuTIXvDeyyO/VRakaQvt6g0+k4Cv6/qtGWJ0PkyNmLzNDsn6TZjTr8Sdd5C72zDLzV5D6AAhggBRQFfgaY5ENvOS2r5lfbrrF+ZhkDZI4uLP+3FydcE98L1cyKEPf595w1nQs0bAML+bJ3l2VSJW4QqZp4cT87l7P6eM3mrDrPxSlUdSYmBblns8zp4r7eXKnBNfo+WA4uEv2o0LTZ9fa/kyFcJRA1MaMRJNY1d2hCdOGZv0mHVCiZj0XyE4268rbbTd7xPO8Xk5b0GpggYCmY+DDdKPNNqpYzLn6TudrlThJ69akKsFKlyhPeVC1T6H3uv2rTNFGIh+iRgNf+yU/qMSFDXiycPTtG11jkyd2FH8uv82dVbKA4vCiXuPoGkYDEqLRi42CED4TvB416EKvz0YgC5AuCH//XhO8V6PxhnpvyFKRVPzqDourpArZySwzf4/aflYDNAtUgKFZRfAjvu+vNRZjkjWtqO+lfzPHDr7kdK1KYujobEslR1e3XxWfNXPhmCETowqpD8bMH5hadXCnmxQA3eqf2qMc26FVrRBl0Z72R1dTXVR8uvL/6k7DyYjYrpUjPVLR6PDyKWi6EFWD2KyVhWr8ob2F/OwsB4NIbE+ZoyEz/kA03dD3RnG4TLJ1SFjrc8DJ59j0RbaZv2Ijmb+AAAZIH1khrLKBFd3TiGzg+Z/yzXvfMalFiumWbt8+xR61BTaL6G1wieILl5vgS9WlY725QIDphH/s7fpizXT7dsy4grjTII3C4IbaJ2AJjnp90K3IpM7ifgmHlbjg8Gulr4UJH2sbVYkeErWKEKs2DEIXBROmFcSw0B2VD97yzMljpQNGkr4v9KXHCK0/lZDwffXJ+qc5Km5xuPdfWiSMPXvEACCAAdJF2cC+7+v22lfjbqPonjlX32Vee/r7TtcqITJvZSFXNy0kZCUsX9numZkLJYTPDqn4SRir+jSlywye8ENReiaSLBG9ba4TuaZUDf73WD9RJTGcQjYqxe95pcIkq0pjpag9iSpZLsK7A1MXGbN/1+ja/7pAPHG0zcy+dvhpa+Gdk1pof558v773Qyi2X/5HL5ULkuDOy+Kmjj2j8Q0QwAAZogqDSrqdcTeYt+oec+D5HztviNNo3IM7s5nMpRP+gb1e/qSYMz039w97gi78/35EBKS3FonrN7e3BZ7f0WZ7CJl+SfFnTWdz3fwnC4zuAAQieaE/6gRweNFx6DEJxTYzZW5x/HCtcdO1LmDHtidfiwT0nse9gQuhdF4LC25s+tizbZyeAAEMkBHyl/m+r0rD1rjbqIlj6a3fNM/+4D7n65U4fWZzdo04Etc62eoWb9pEq8ZhnJo4qZ+P+oOio0D/qH5dnt9VFCdHXq9yEfIxL1VrQrT5S5aLUACrwjnabBDl74ljJRcAnjnHy18sTvPMxAtU0S3YFtrG+3WNDa+Fqsdp3gVQQ92ki8442X/EngECGKB5RfA222zgqT0rg9t6fS/93OlaVXmdvayQ3ZsVr/67HicX60QeNgQNnqgjYvb0R7Wa6PwqP4OSOKL+z3eq9FwqJu3DFJvjopYWNVzOj9ggVJF+ZTvHJkT2ocKo6Ur/b+H9IItBkKMcQbFywbGbbMwnuvpjVZJ1B0DvybTeJy4b34g9AwQwQPOjisM1xiIbWLf13ntth3MrhE5eb+72UmuIK0eiVaNbdetXwkfVyGpiOGwI0klalUo1ULmuFOqEPmOpF1Th3tljUknLaCQzr/BLxE+W+1N+7Wr0veAN+r7VKNm7I7vXnJP9ujAX+Nwl9Pt2ZZ/tG1z8vV96YaP9Xev9JOR9f29fLvJaTnendy73ajbYpQmxZ4AABmhyBqwQ+uB9OO42uq234Lovmpf+6c+drlVVo4vX5szOLdmqkeDW77b8D9uKYri9s7I/OGyUm3tDwa8oD6luo7/3up+ZaJKgKUZEFdAQA/OjtpYVweUTud7IuOpaK+dXMXihANZrrnN56zYkSnwWUx0KjW3zVueF8O5cZnF/Opaq+CrtZLhGuqxF7+AF68e8IM7NBcSeAQIYoHVEsHU2cOdVd5g3n9/iPBtYou/8jrZMc0grimGjYQC5IBmgY0llMRyNUQu2fSMXpESkkZuqE/hFV+Yfe6luH1f2MKqCWhgz23oodSAkuJAo21/al8OJqaScPVE6aU+VZ8VthUkBrVwFnr608oWkGkv1OtW+fvNXXmA3SVpxl+VBzXKTZ5mSi7JqhBeK7+41qTa31aLrM+72ObFngAAGaC1khdhvs8GSW79ufrnpZucL1fjS7SlmA8dFAkGpAPt3FZqBOrpyZvJsv6qnMYyJUjWxPFd4OEEse4OajVRJqzUoYyRQ3pj0yr+6Hf1cadiGsmaDqvqAYOxenUs8cayRqEGtFrpo090LfcnXfrS3MOjizMnKr9HQ3xu3wjv43hnwzL/zclh1drcvVZGOI8zTgNgzAAQwtBhqvrDNBp54wYKGZQNrkEUjb0tLfBci1PL/8bNCjFpYBdMgh3JBXClXWKL4g7eHJlskiZsSSphotcY6Cf15q4viRJXe4Wwctfy7aV7svP5U2+Btc1WDz9/l7s5DWsjzG1ekhr728A5GPYTWhiP7vYFYP9Ow1+b81e4uHhPEnm0h9gwQwACNF8Eb8iLYOhtYY5I/OnLA6VolTN55uc3JyOI4hJFRhdzYoiCW13TSRZWbfyRy9f+lItjyQlqjYVuNi9eWDr74zU+HF/Hap/VaPZRGMBy9O3zTsaSYCNGoOw/1UGh4qz7dLS1ka9BrMGgIfTVa5W3szpq9zHN29yRh7Nl6zjyAAAZoDqyzgZfc9o2GjElWoP2zjzXnTizPUD3Hyw1aGoojX9M5Mf9uR5v57VN+y3lUJU6it6ZVcXV1QTO2ffjH0f7UEIal68Jt+s3S23NN+5qrJYJPn2wLxoqn8ZpTlV6+6aFjwpvrBdgCsWcbiT0DBDBAkzCQDbw5/+OdcbeR560R2cC6tTtz4ZjMY53SoFJ+aiiKx7d7ZlxekMlTKeJaINSoJa9qKw5qkO937g3FqqSqh42ytJysYR3RMdMFhprGwtfc4k+3tZwfWLaSvm8rFaKt4CvviieGFUenRI6iyA1p/uc/b2Xp3YUsSRh7RuMbIIABmgzdltNwjNjZwItv2diQbGD5R/v2tVaHfrTBTbfi5bscbgRzVJC8u9dr6XHJaqSK+n7lF33x73INE1XhAJNq7Nnmm3MvKHpp5QdebNpasikuEMK9ZjDiTzYdjXyu5hMOfesitDkMrfw252ssvGjJ/LGSxZ6tJ/YMEMAATUZkTPJPYou68RMblg3czB36ii+bOL1ge0hifYhmCxdzUlt3KoOEySV/VNokuPN7uWGr2B+85QWJGo1i9w+NuXSdN3ih0ggRrKp5saGsfqK+dd2N+MQsz0ztru5Z17+NbTcljZx6fWpcseL+VEl//6DfFL582aNckSD2bHf+M3YzZxpAAAM0pwjekhfB24xlNvDbL/27OfTaM07X2kwd+hJ4U3sKEVEFK0OyW7DhhLnjbxX/TXFOaTDxgvwH1NiCIFdM1v6tnpN9JwGnym9U/O57fExeMA2/jxTLFRKngW04zp1m93wlOp971MuLYNMQEaxjr0a2zrzglC857eOl5zdYHQ4u3NqCzOtqqSblorj84iRI83Awda4SGv4RHaqS6Wv60luSxJ7R+AYIYIAmR1VgtXLFtkL0rHmgYdnAGmPcaCR+05g4Fb31nDUXrchfPGzJ9jHmr9AkrtIkAonfJAIpTgPbcCSJmasmgq+YVrBwZOnFnr6sKDjVlJe1/7uYeR1cDgepJrOuMlUzr4dcCF7UH8TyBTGBjlGznwvU+LbgunttNyP2DEY8OXYBtDoDHcqbbLZRNrDigFwjYSCRBfaowpeZSMgfksvuKL0okOd396NtTdO8aFNNDUXwh5H8Zonhy/+kP6g8Zvf6Ll2jhLces/saL7DZZIGqznpP6fjJtqLHtLlwOHGkAeI3v9600lWGY87VdxJ7BlABKsAwUkTwhoExyUvjbqM4oAPP/dh5NrBG1h7cmWtoKsLBnWoq8mI3tcUh9FlafwiN9WOtQxPqsvAVV7I86Lm8+JjXNPnNSQhFsLzn4bhkPcff+/xZM/ONnHn5H73UX4OH9g71QEdHGofNkYdf8xM9tsSu0kjO7fBNe2d/4tdvONxF1V/lKLtEFwL6DHDBxyfPJPYMAAEMowBVLZo+G1iCoOdzjc0Glvh4ZrMqct4QcRFGndlOelNFa8z4grBQs9GZU6Xe4Ci2IkaCZd+/pLsP9HxnX+uXjDcWEmm/ftxveHrFOSkUTCWC5f2duX9MicjXrf8r1qefzbx/l28mdrQNCu5yqqU1CH0PPdRKHglOUOOMOfcCP/ZFUrWLsrD5TUkapakQ7o/x3FXJrC1JWHD9fcSeASCAYaQzkA2sD+8vxd1GjSFqEDnw3D84XasEiLJOhxun65LgFnt4m317sEfNhI/lzPgpJvZgjHBqXJpJCGkL0qLwPTtEZPc+lQtEXDOgCLq0kI3j8Gu54MIrGiWmymzHUs/07c6ZN/4rHa+uBPfsvrZguEMtoRdNa0gDNbQphePkscKF11Ch2/jjqtdetYuD1B9rzhXEngHU0gzsAhhJ5AWwGuH2G4uGuNMnjputf7XaeTawBNfTm7yWm4wWnsiV0lAQxf2pWimigiat5AdVUzu6cqZjWX/FLNmiyK5/vyxdVxA4qm4Wquz1/y29VrY+ks7HdSXLR4ia1t7ZY1K5MAsmnC33TMcSP1W/q/brh2/nAu+uYvdOHG6dIStX3Oln8l6p+Fj3Pmqb/KDYs2WcRWC0QAUYRtYVXcJsYE1I2v33DzldqwTIvJW5YIBBq1E6La5gpVC02nnTPfPJhX7J6GBbSpMD6ts3avhSZmwhFeBMpiK7nILQSUe0fvB2utVgDWXpXJ4LvKhRIazq5NTFxswfyHV+d69JvG90MaGpea9sL0x2Kx6HZFaGvhe8lhO85RceE6adcfNYxJ4BDK8X2AUwEsmLYAngm2y22fGdu51nA4tnv9XWMs1WauCZfknhZ+Xchl3/484zzrra0yAr4Rut2op/+8tcKn9L683CMx5WacuFcBRVn9WAGOY917vPdKEUTnaz9ZlXEsZh42UjPfVx9vPV9/tOvL+KPftf9/+DbfKDYs/+gDMHjCaoAMNIRdWMa4yFFWLJbV8zT/7F9c4X2nNzf123yl2iyts7LxeGaEj8VhtN26younxwVyjimvuiY+IF2T9GWKXt3eGZjq62vBAeOu5aoq087/nDIEEhFzSuhc1lgVCPMXZYF3vnvOXlxbRsNHnxfXkyi4TWoNQJVYWbYbhMLeat9BIPm7ElQezZUUP1FxDAACMDxfj4vr8x/+PDcbfRSUPZwPt+scnpWiU4Zi9rnuar4QhG06pJbntxNK2a5NSt34yCOIzeKoznbZ1b55qC5wqJVlkjDuwtDJNQlb9WQof+fcI0d0NQQsF7VJXovOB97/VQaDf/8dRdEzUbuiBh7NkmYs8AAQwwskTwI3kRrIyz2NnA81bd3ZBsYHXMv/NSruW8jeWjaTVbR7fu46ZGuBFKzV/tHQ6lG7h6DsEFzrbgHRSkgEyZkz+eswvpHi6PpWwfii9TlbmVBG85St5wxaI1D9nGnumdS+wZIIABRiDhmOTYNCobuOszxuzc0vo7vLRBrlAlVqSXbumrqqmM4aS5rlFC/2fl6Cu/Yc89C8J8XNfoguzDvf7gqOBKx1Ik9fJK5IYCX89xaJNba1+46GKwPG4vs8eac4WZ2rPSdrONxJ4BAhhgBJL/cN+dJBt4ztV3mdee/r7Ttcpn2WzZwGkgQVoiigcyhsMeXDVFnfPxyIfSuEL1WET9pYOiaYjPtHn3l55b0gZH7YfWOJalxzMUfpWonuDgj8jPn+617p5Xz5oHbDfZlv983MxZAhDAACMXeYGVCNEZd4N5q+4xB57/sfNs4Pmf8s173zEtmQ2clEAglo1QLloqWntHBML+/WTbylPdqjR7U5qT9/IKz4xtd1P9VezZxAsWJPlcBBi15NgFMNIZuMVn1eUsH93SW7/pfK3yWCqWCgBa+MIn/xZWtJyTxxo/yXTf+GXbzTZrciZHChDAACNfBMtda+WwlZ9OvjrXzFp5Nrh1DhAibyy0Dt2rPSeZv0KxZ5aNbyoIUP0FBDC7AEYRdw18+MdG2cCqsLhmwY3cQm5VNDgCRi/yP2uingsUe6bkGkuIPQNAAMNoYsAKYVX5UDawKiyuUZ7u7GUIqVYkrbHF507jIqgVmX2t29gzSyR8iT0DQADDKBTB+vDfZrONKiyTpi9yvlZlA5+DBm5p6klycHULHdJj5sKcs2EwxJ4BIIABbLEe+9mz5kHni5QAungtCriVCePc6uX0R+zLZkcXq/NWn3X2eMSeASCAAaxQNrCxtEKE2cCuUTZwtUxVGD0kzRIGdyi9xV3j213EngEggAESIStEr80GygZuREOcyzB9ALBnwse8IL3FBfoM0meRJcSeASCAAQYb4qxKuo3MBlaoPrQGZ0/Uf6yo+rcWGmPuigXXfZHYM4AUYBIcjGYRvM33/c35H++Mu02YDXzotWecrlXVpYM726qMkR29KC95/JShXtszp4w5/lat0bvZcbxP1pXW3J/ysU6alt+n7Z4Z116638Kx1Ex5G3qxIquSCxR71nnVHbabEXsGgAAGGIIa4jQmuT3uBsoG/uWmW5yPSe75nG+efQzBO2VuXnQs9GN32586mjPH3vDMO3s0Yrn1xNuHb2dbDe7o9MzkzvwboLPfTIgZvaY1He3NBQM63nvdH1Wju8txaVFacts3bDfpzYvfDXzMAyCAAUqQFcL3fYng78fdRtnAug350j/9uVvxlxd8MxeOMQf29o+qYyR/5fRL8kJtiW/GtttX2mQhmZq/vJm6OC9WTnmmb3fOvPFfbirD4yfX/zfOZDBYQ/v0oivz+3Rpv2kba/96klCeMO2suXB54b8P72sz7+71Rt1rU1ndSV6TSdCdJzXjJrjABwAEMEBFEbw5L4LX5X+8Ju42ug355vNbzLGDLzldq2KW+vZ5o6LipkzVjmX9eeFfW2Ace6PQyvDBWwWheO4F/uAFQznq0r9weUG4vfNim3n1yWyF8Nj2ZH+7nvzg4YTv3FUm1qQyVc5Pvp9fy1h/2MqwLACyfcxb7fYCo5HILqKsblfozpMl2wZGwAMAAhigKmqI2291Qrr16+aXm252ukgJuHkrc2bPtpEpLkork2cq/o6qjUdez39/tTwerHyf5GpaJiQCVRV+/ak207ujuW7jp5UfHBVr81Z6gfivJnZDm8jxg+Xi1Rv4Khwfea5lmdAaJ3X2l0R/ub7AaCTdq71E1fMkKPZMd54sofoLgAAGqI2aRHzfV6f0V2OLlAsWBCem157+vtO1SmC8u7dtRDUjDVeZlOg9uDv08MZ/3hLIx3blr2x26THazNRFxsy43A9sESFqMDx/oWde/nFuRObt6iJg8R1D7SMSvYf2eebgzvBCYvjnLjH7YZ/Jv/aK4rijM2emdhvzia5SMRxeYIxEIax9GqeKnsrFS/LYs918sgPUOO+zCwCK5EWwqsCdcX//9Inj5um/vs18dOSA03WqCemZza3/9q1VmTx7yjNvbs8FAi1t8SR7hewk5YMLXv15W14s1/dYSgVYuq7wfGTPSNK4qNi7MFdWFepXtidbkzyqc28YKnx7n8pl4tfVfpUtIHqBET2WSZ9Hs3HZHcbZyONFa/63bfKDYs9mM/IYoDZUgAFKkRVia2wBN35i/gT1kHn2B/c5XaQ8mfNXtLagqFWZLAq0bJ6f/ra81LKTRMW3xOLEjjbz4s9aX6gt/vTQKmVRTPdntl8P7DVBs2ZUCOtCI6y0v/h3uZauBkvkT7rojJPHqiP2DPELMAwMwgCIMDAt6RGbbZQN3LHoBudrnbGiP7AOtKqIuOSPSiuFqhKqAvsf3zZO0gTk+ZWX+r9/1BY89uDxzIvGK+70g+p0o6gnPULr1vqj4lcXFc9+q83ZBZOOn46jBHf5hdvlf9LfsoM+3De+EXsGgAAGcIe8wFYVlEVrHnA+JllVNWUDt6L47Vp7psR+II/v05u8uu0HSZCv+Fd/kyvJ25VQu3Rd/SI46W3ypOkRWq/WHU1tkA1j+3dMQ/zNEtwS3tF9q+Mui4heB61G53JviL0jK3RRTewZQHZggQAoYyAbWFaIn8TdppHZwB2dbS0z4CEUvyGqvP72ibbUK76qjC/+w+JgBwmwQ3urW0Z0S/65Rz1z8drc4FQvbbviHs+8+JjX0OY4TWCLYwUpWkqKv6sGtOHsHN3XeOb8rkJjoI7Hsd6c+fXj6aViaN/Jr77407mSqnThddA6udZ6Temuiyt0UW0JsWcAFlABBqgsgnUi2Wazjbx6k6Yvcr7W+Z9q7O362GI9L9DUeBYVvzu/l00zlqK6olVQ/SwPai3LiATfzi1+IBpDJApl1dDaG4XGD8fZt+WWkjjiV9vJAx316uoCYMbS9J+v1rLv8dKai14Pjdy3NnR9xgxpmszssa6/n9gzAAQwQMNQFdjKCqFsYNdIvChJoZmRQFd1MhQQofjNqrKqiLjdj7YFt/9V/ZUXVf8dp/lKQi3qXdWaGy2C44jfqDiT0IzTyKf9L4vC73YU9pW+a9usrCi62NFxCD3XWrNeF81+ASfPcnhnIPP3yvhJZtaVt9tuRuwZAAIYIB2UDZz/tslmG2UDq3rjGlXxmrmSJoEerU7u2ZJ95q5EsCLIdPtd1geb3GT9frRaaSOCj71d//M6d1q8v1FN/NpU1XUc1AyofaXvWVsSdBx0/FvpAm7+apfWh68E6TIW6CKd6i8AAhggVRG8If/NqrKi6o3ii1zTc3NzeillO4hGjanK2AqeZQnBSiK4o7O2WEvDOxvnVrv81Jd94Wxd4rdR6PhHq+x6fTRroomylCdMc/N6lYXqwks+a7sZsWcACGCATLCqrqh6kyC+qH6hmT9J62TdbGjCW0jQ9PZU6yRXVBLBv/d5twkGlSrK5c2ErSR+Q1RlVzxbpddJs+A69qxnzYO2mxB7BoAABsiGJNnAii9qRDawTtbN5KdUVS/a+a/Eh9MtltwWiuBoVrCNKKrXmlK+v1SBLk/SkK+2lcRvyJ7HS/OXm80LLGuGq8a3hLFnd/EJDYAABsgSZQP32myw+JaNDckGvnht86iIqZFQDAm1vn3piDQ1JYVfLrzPEpcS7yHH3oj/mOd83O6xhhOBU7tL/1vrsvE3J0Friu7ztAZZaN3RKnAW6RNJCRMyXJEw9mwbH80AySAHGCAGA9nAskLEzgaWFaIR2cDqVj+/I3tRFIeOJUXB27c7Z077ydYkwTV9mXKP/aqDCCSkTr5vzNH9njnSW7AOpFVtLo9wU7Xy9y+KjmxOUXhNqy0CD+7S4xf/W+t6/2C6TYXa35M7jWmf7dcc5qF9rosBrSnp6+3NX3lm7sDNkvMX+mb/ruZ4zy+40d37J2HsGdVfAAQwgBMRvCUvgpUPfFPcbZQN/PZL/24OvfaM07V2r/WD6V+NtBuoahhtHjq4M5kQm32tRNjwlTgJ47HtEsnGzFpZ+DdFoB3tzZkP+ry8SPQTicT5K7wgQziKIsMkDM9VNfSo5+RiQ3YSZdFO6iwVpGFznsR40vgyCfwpc42ZPKvw99vGxhP12udT2wuCXPvkNz+1Hxpy+FVj5obrCMR2429MymYS5zWXyvskWezZIwMpNQCAAAZwgqrA1+S/2uNu0LPmAfPLTTc7XaSESefytqqTz1zwiVnFSmYwYcxSGFVq9Ir+vQ/y4nbceabmaFoJ8AnThorXD97yzJmTJqgUn/5o6JhgCe9PLjQDE9JKtw+bzWYuHGMmz64cr6bKaBojc7XWEGUYv/rvmvbmBTFiEzvMoDCXCJ57w1kz4/KcObTPM+/urVwBl4jWkJDx7fl91+4HFV5FrsUVvNrvJ4+aiqkIEq+XfSFZDJv+bui11b5v9N0LDZdxRcLYs418FAMggAGcoaqL7/s6+Twcd5swG3jfLzY5XavE0cGd8YY/ZIEEWojEqg0SQeXiV2LwwDOeee/1cmGXC4TdxOmFxyyKusrPW0JNVeLCPoq/Jom0X/8wLzD7CuJOIu/A3sq/KyvG2Pb096mqtOFo5r5ejUkeE1ggwucq0X3hchN8pSG+ZSc53mfM8YOm7HXkBRX+jq6c6VjWX2KT0HE7cdTOgqPXh+wthfeL7BQNFL8rvCEXPVlx/pwrksSebST2DAABDNAIEfxIXgSvy/+4NLYYvfJ2c+C5H5uPjhxwutaezxUGHDRaAEtIGRNfEEUHDxSFp1/1b0icfdhrAlFothcE2qTzcoFg1DpqeYfjoLHCe57wE3uYbZD3thrlFgeJ8MOv5YIIsWjaRlLBq8r4kV4TyWmu/nx1ERJeBHR0tpnum4oDOWTB+Y9vx3/sU0fzr4+Bi5Jxkxr33taF1IwV7tI05l//x7abKPbsEQMACGCABqEGlNjtOmE28DPfXud0karM6VZ9IyKy2sYXxdPJo/EFsETIhGnF9RbFr6Wge983xyJH6BwvF9gywirxcPYJCcJDez3z5u76hK/sBibDW/oS/y/+LL/fnmwz0y+p3bgWNgqePTFQ2c1/nTgctYAkW6cE85n8cVq6riDCtV8nndcW2/Zy4kjx53MvaJz9QRcSrmLPZl56C7FnAAhggNbC87zdA1aIr8bdRic7nfQOPPcPTteqW+R9+zznDXFjIkLixNH4Dy6P6qC4ezs9P6iev4RasUoscoO+2EHhW+Kdrf+x5bVNyimLCwcJ4Ve2h89tuEay9F8MYaRZeFERxL+93zrvadlu6q2ix78gnmQWXHev7WbEngGkCDnAAMnRrchemw26b/xyQ7KBu1e7z1d1NT62XiQcJd7Cr2Ya1BGtjLYCZ04l23mFOwQFzm3Q6yZqu8maOVffSewZAAIYoDUZaESxOinJCqGub9eospXW8IJEQu5w/N9VKkNURKtCO5oYP7k1112wrvgVj+Owr4/IHQJXFoQoShxxdcH28ckziT0DQAADtLwI3pb/tsVmG3V9q/vbNS4rXOXYJFHINxqdDiZfZquhZrKkjG33W/K9ED1OSWLvGoXSLKJDTrJmwfX3EXsGgAAGGBHcNXCSis2S277mfJGqcCniqRXoe6G4zkZXr5OgjOHRRLl/9s3trXNq6VzuOas6E3sGgAAGGDEMnJysKjTy/ykb2DWKeGoFS0HvjsJwhJCLb+8PKnWjjeN9zb9GHRcdnxA1Lur4tQJ6L5RP+cuSBLFnu4k9A0AAAzSzCNZJapvNNvNW3R34AV2iSpeygV2jUbs2qBFN086i6750nd+SInjMOLvfVzxbSLNXknU8dFzCCqouWl7+ca6pGglr4fK9kDD2bD2frgAIYIBmx/pkpWxg52L0on7T0Zm9kvwwMv0tiMSyRJFlrz/VNvjfsnBIbNmK6UZjm2ubxghlVxc1V9/vlzSP/faJtpbx/sq2US0vOfULhWSxZ1uIPQNAAAM0PcoGNpZWCFWE5lztPt1o/qeyr6aeOVX/A7yy3Q+msEVF8CV/1N9yInikodQEHYeod3bf4+kMXIk2QGaJptW5ImHsGdVfAAQwQMuI4A3GMht43qp7nGcDq8o4b2VriMgXf1ZaCZbouuwLZ83sZYjgRqBGyq61Z0rE7+92tKU2bfDk+26eg6tKe8LYs43EngFkC5PgANJHJd2tcX9ZkUhLb/2mefYH9zld5IXLz5qDO93csp6+zJjJRwqCVY1dUW9rnElvqgSfPDomiKsKhdfcG86aybPazK8f95vOcxod7FAPh/qa54mpYUye2UkXlTaN2VR+o2ke8kZrLLXQ+GZX6M6HmkFdkTD2jMY3AAQwQGsh357v+5vzP94Zd5upPSuDiKRDrz3jdK09N/ebZzZnX0kdbsTsv/3l8DejJLLeP1h6631K11lz9f2e6X0qZ/bvah6xaDP6uZpAbCZUbe9cWWp5UMObGhX7euOJyev+LN7vnT0Rf/xzEjQVsW2sGwGcMPZsPbFnANmDBQIgG+Tfs84Gdm2FkKc2KytBPcMgqqFq9dObPHPsjdKECFWDr7jTb7m84GZH+/P37y1U26PiVw2OO7+XCxoV0ybL6LfyvOKsSRh7tplXHgACGKAlGajgWDWxqElGzTKuUWUvi4a4d/dms17ZHZ59zJhXf95WkhUsMb903Vlz2R3GScpFXM6d1nqT3bT/tB+1P8u9svJj665BVtaZd17O7nnNvpbYMwBAAANkLYI3mwTZwJOmL3K6TlX2Ll6bvmCUf1X+0KyQ5eFXf5Mzh/e1lfy7oq1+7/Nng8qlmp0aPfgj6ZQxV2kIIboI0t0A7Tftv/KIMFXdn/1WW+DHzgq9XrIS1kquIPYMAELwAANkixri9tts0LPmQfPMt9c5XaS8tOd3tKXedCXf7umTbab7pv5Mxs1++D++2bnFBGtXdS8qcFS5nLXSBF8Sye/u9Uzfvv6mHtIwvr0o1l2kIUj0dnTlzCcX+sFroBISvvu3egOvjWzFb1pJEpWep+50uILYMwAEMMCoRlFGvu8rG/irscXoQDbwa09/3+lalYu6/TsmdYEon+iJ7w3NjU0TibNDj1UWwqHAn9JlTJcp+Ff7XsiZw6+aphvaMK49+/XIBzu5s5C8UNhP/Q0VvlmLX9G5XLFnbry/ij3TnRxLiD0DQAADjDgRvCEvgtfmf1wadxtlA/e99G/moyMHnK1TFdPO5dnc4pbQ3JmxCI4K4QkfazMXXWlMx9KhjyevsJq65ppCksGx3pw58rpJVRA3S3yZKp+fmOUFcWNFwVsd2S4O7fPMG/9VqK5nLXxdiF9ZYGatdNf4tmjNQ7abEHsGgAAGGLHo9qZVNrBOpK6zgSUUlA1cED+tKYKF1r9nm8l/eaajM2emdueFYNfQx9V/h9XhUBB/8LZnju73gjSC9173m9oyUS52J00rVHcleCX04wx7kOg99oZnDu4yTqq9LsWv6PqMu2Og2DNFGtp+NhB7BoAABhiRDGQDq8rzpbjb6ETasegG0/fSz52uVcMOlLKQBdVEsJqvssrxlQWjrzf/w888c36H/K7GtHf2BwKxHK1p0kX6KhWIsk1IEAdfB431BYLEqa2QLsTI+amK3cELhPzzObQ3FyQuFKre2YreSlF7LsSv7B7VvM2ZvHfWPGC7CbFnAAhggBGPvMB35r/a426wKH9Cfe+1Heb0iWPOFqnb5DMXZidOQhGsIRyhCJUl4cyJ7AVRYJEIcma9vIj0BkWk7AGKK6tUmZawHNtugipxSLRSrKlv7x/0a9on9Di2tohwWl69YjcUvEdl9eiNVrXdVHqVvjD3hjPOxa+Qr90Vij2beMEC281ofANoEKTGAzjE9/2b8t9+YrNN738+Zl76pz93uk4JPA2cyPL2v4Tdpev8kkrs73a0mT3bGuc5kF904nQz6JmtJoqrivs3cubU0UK1WKI+5L9/1BZraISGeYT7I4xBsxW7oa9Za5DgPfZ242wc3dd4wcjt6Np08eOi+VBV5+gxyBLFnl374BO2I483e553F5+KAAhggNEiguUFvsZmmx3fudv5mOR3XmwzL/4sW6FSSQTrcfc8UV20aZsZSz1no4+jojhpBVbCr293oQIbVnYnXmDMmLEFoT1mrF/RkjEcadgzkorLN3fXPkZLbzclTXcuxa8e/+r7/cy95iFd199vm/wgz+8ykh8AEMAAo0kAd+a/7TIWVojjb/3G/HLTzc7XuvvRtswTDSqJJYm6F/8uN0TMSXgpz1XCJm5VNas1y5YgEStRPLbdz3zIgvbJh28XKrvH32pcZVdT4jQoQ4K296nckAsRXTAs/sNSj7VL8SsWf9rdyGPFnl37Zz+z3UyxZxv4NARAAAOMNhGsZriHbbb57ZPfNft+scnpOiW6NPa2EaIlKpomneeVeIbD/z9rm4YtWud5070gzzeJhaJ83+/fljMnDjdPXnGlyqrW+fKPi8epvMEx+v+7OgaXfcFd49tl/8//sU1+6DWF6i/JDwAIYIBRKYJVBY6dDXz6xHHz9F/f5jQbWLz+VLbjb2uJYCFfbbXqqia87dzS3DllqoiOn2ISN7E10xS7S27yak6MqzQ+efcPjdN1X3aHcTbyWLFny+/5ru1md5H8AIAABhjNAljid5fNNof3P+98TLIqrb/6m5wTb6lQakDX2jOxf7+RVoiklCc7TOocPhtZx+G9fTnzzh7TkOcbWh+a8cIp6Rrr5X/d/2Pb5IdtefF7LZ9+AAhggNEugmWD+JLNNs//7Z86zwZWJS+rbOBqQqb7pngDM9QIlsUIZ9eoUjxlTl4Uzy5kEdeqEodNdcWJbdkL9rhNZVrbr3+Ycz4NT2tccY99akbiC7VLbzGLb9lgu9m1ygTnkw8AAQww2gWwGuFUBe6Mu42sEFv/arXTbGDhutIqQaihHHFuZzc6Pi0L5GWdMteY8xfW3ge6OOnblcs0VzduU5nsGr9+vDHNefNXuBt5TOwZAAIYAOoXwdbZwL/b+c9m998/5HSdjaq0RpMfamGbWKG/qxgy17fpEwmu/Cd1R5em2PlVPbg6Pm/+qnY8mUTimVPGKkIujq1AVd89W3INs6LoYunyP+kn9gwAEMAALSaCJYBvstmmEdnAjaq0SuDMXWVqViHjCvTyyrKLqLe098XURcbMuLyyTUJi9M3tOdO7o1QIR4Vs3GQGjRK++PbawlJe3/LHck2t5ry0IfYMAAEMAOkJ4E5jmQ188uhb5sm/uN75Wp/9VlvDYrlkC5j7f5uaVdC+FzxzcGdlb2ylanIzxqnFRQL1ohWV94ee12+faAusEZU8vLWqtnEuODSw5NUnjbPmyFr7YOk6Ys8AAAEM0KoimGzgmIQC7RNd1auTWuehvYXpa2PG5cXvNf1Vp621QpxanP1RSbDqouDMqeqT5uQhPrTXC4ZrhKkU1S4wwiSKZhC+IdHx0ZmLbWLPABDAAJCJCLYek7z1Lz/tPBv41Z+3ORtFXItwLHLHkv66RdC+x8dk2kjWaCFc70XPm9vbmiKLOIoq+nNvIPYMABDAAK0ugFsmG7jZbAMSfxddacz5XX6iKKx68467r/HMu3tNqn5i3d7/5EJj7bvWvuj6jKnLFyvR2/dCzrzzUvNUe8svfuJGs6UBsWcACGAAyFYE6yz7VZtt9vzz/2dee/r7TtfZzLaBsFHMtjIs0ffco3bCPjqmOc0Lg6jASzpO+PfvtcvFbXbRW37BceFyYs8AAAEMMFIEcMtkA7dCgoIE6vRL4leGbURwpaa6tIaGlI/0lbjufSoXy3oi8dy9Ol52rzzCh/Z5zoZqpHWBc8V6d9aHhLFns2l8A0AAA4CdCL4m/22rzTbvvPyUefYH9zldp8TTf3y7dfZruaisRjhpTWkSlaquww3pqHcMcK2hDhLYu384NO4tzArWJLlazYHltKL3Oe5xTANizwAQwADgVgS3RDZwvWLPFTMX5kzX2jPFC4YX28zxPmMmz8qLqc7qgjFMPnhnjzFnThaSEmasSH8wR0icWK8w4uzwa34wPrnWgIwQVbaP9ubM+Pah3uBWEsFxBnOkKrYTxJ7lxe9sPsEAEMAAkEwAywqx31hmA/9y0y3OrRDPPNzW1LfPy8VvpSg3CSuJ26RNdJVEqq0fOO3GLvm0393rBUI5enzK94dolXHStr7mekgYe/YHeQG8hU8wAAQwACQXwS2RDZyW7zUL5AG+5I+KFds4E+O0zdSevABaWF+8mu1+qTfTVs/t2BteUK0ebixxpSlvqoq/+LPmFcG1rCFZQOwZAAIYABongq2zgZ/+68+bYwdfcrrOZryNXl5RVVV25/fs0hSSJkqExLWIJE01CAd+vPOysU6JkNBffEdpxbtZRbCOw+V/0u8s9mzO1XeZ7s9+2XYzTXzbzacWQPMzhl0A0PQoSmm/zQZLbv26+eWmm50uct7qs6ZvX3NlAy+93ZQIJvlmj71vJ9JlHdi/K38Adnl5Qe0FjWZxPLeDH7LjYor18fHXJGvDkddNJK4s2U6XYFY1/NJ13qC4V3LE/CPN5+vWgA9X4lexZ/NW3WO72WbEL0DrQAUYoAVolWzgZvKRlt8uT3ttNqkLqqpWGx+sKuysq2pPb4taG9573U/9IkPP5dJ1pfaLZqrox2kMTJNFa/636bzqDptNiD0DQAADQEYiWFXgzri/r2zgp//6NudjkpshG1ii8rIvFAWTC49yHH9qaFdQ+sTEjngeY1dCtJIIbpacZ2LPACBtcuwCgJbBaqqUplYtWvOQ80XOX934quGCG4uiTb7fl/8x22v9oBq8ZHihKHEpkawYL32P4ynWoI1zHJQqVFV+8e9ywf4KUZOcvLeNRIkVrsSvWHLbN2w36UX8AiCAASAj8ifZbflvm222UX5px6IbnK5Tok7V0GYRTPL9Zh3RdvFaL7NoLv3deSvd7E/tJzUJhiJYto7Ff9i4CxoJf3nLXaHYsymz/y/bzdbz6QSAAAaAbNHJ1spnuGjNA0FTj0s0KKJRlUNVTENkfcjaPiDBHbchLilKh1BOsQvUGKeLhma4oOlc7jlrfBNLbvua7SbbyPwFQAADQMYMNNlYWSHGtV9gFlz3RafrlGjp+oz7/SMxGq3E/uanXuaPVz5QohZqZlNDnKLR1JSn/45L9039gbfZBbpo0DpDZNdw9diDwvtjbjN/FXum90qCC1IAQAADgAMRrIrTNptt1NGu27suUVXUVdUyZMaKomCSgLPNxY2Lbs2rKmojftVQ9h/fNkHGriLGlEih/1aTW9R3W+uiQgM9Zi9zs0/3POGXCPSem91aIXo+567yS+wZAAIYAFoDVYGtrBA9ax5wvsj5n/KdNHAJVSijTWWv/2f6j6GqpISvhmtUqk5KyEp4S9T+94+KFVRZMaqlKaja2re7+FEs0anqsLapJILn3nDWXPul7G0Jaorb83jxMbRvVfF2gWLPXDa+6Q6JmkYt0HuP6i9AC8MgDIAWxPO8Xt/3Ne84djawRrp2XX+/0zHJhQYuN9nA0y8p/qy4sbSqvxLwn5jlmand1bN6JXqL44cLXxJxIePOq/0YZ04Wfz75vonsr1xQRddjR7OG9V0C/PyFntm/LZdJNrCQaNfQjdDj7GrYSfdad9VfxZ5ZZv6KjWT+AiCAAaAxInhDXgSvzf+4NO42s6683Rx47sdOs4HVwHVwZ3Z2hJDzu4p/v++FnEk6HS34W3nx+smFxrR3Vs/pVbX3ze0507tD4tMf9kIg6Q03ieq+3rwQf8IznctzQYNhKIS1NkWqhaL/aG/OfNDnmcOv+aklX+z7F2Ou6DKDwnvG0pzZvyu7Y6nK9th2d97fhLFnj/AJBIAABoDGoduwW+P+sm7z6oT/zLfXOV2kcnmzHEQha0JUNGlEsA1Dp7rVvv2uquivHx9e+Cbh6H6vonhX1VXe4d4dnrl47dDkCYnhCdPOlgj0Y3lBrJHJb+5OXiGWkFaFO6x+z7i8MBo6C3QcJPBdkTD27C4+dgBaHzzAAC3MQDawVTVKJ3zX2cDyc2bZvDVlTvFvqxKapPqphjaJvOFit+Tv3blleEGZ1QQ1Pa4e/9Wft9X8PT0PiWR5huu1LGiMc4iq2Vk1N3avbonYs2188gAggAGg8Ww0lg1xi2/Z6DwbOMuJZuPa/YgAtv9Yk0CUcB6OrMYSt8+2F32yIWg9w1Gpmc4WXVBE/448yalfJJ3nVfVYZ0HC2DOqvwAIYABoBpJkA8sK0YhsYE1My4KogDxxJNnfkH+2Fqq41iN+sxD/Wo8yhWs+r/3pPHDfruL+kU0kbaLjq7MmYezZI2o+5RMHAAEMAM0jgpUNbDWRqlHZwNF0hCw40pv+dqp+1tv4NWlavOd9vM/u78oXXKvKm3R/DBHA+/pLLmbSHIxRPr46axLGnm3kkwYAAQwAzYf1mOQEHsi6ySLiariYsTgoSqwa+7e6G+gRjUSLS631peVFLreJTJmbzvNVZTw6vjpriD0DAAQwwAhi4PasVZVKHkhlA7tETVRpD3GIjj9OS+CF6N+Sisi4/ttzp9UnUrW+SmOV0/D/RonaRMaMTedvdi73Ujl+8S/6iD0DAAQwwEgTwTpRW41nnbfq7qAq5hINcVB0WbNRyQd8aG/2H5NpJB8c2jd0f6bl/w2JVqeTNO6Vo9dApYl6WaH0E2LPAAABDDAysT5hJ6iK1U3P59KzQlSqfiahkl82LQ9tXI69nWy/aABG1mu39ScPR9dn3O7bRfbjwIk9A0AAA0ArkD9hqwJsnQ0889JbnK5TTU9qfkoDjQ8OGTMu+d+p5AM+/VE6z3d8e7xqbNLM3hNHh26YdhZxEn9yNdQMWT7MI0tk9SH2DAAQwAAjG3mBe2026L7xy86zgeetPptKPNjZE8U/MrEj+d+R+CzP1k1rhHM0q7hcCGbBcIMyklDPxcWQ19tat7FnGgNuCbFnAAhgAGglBjrW19uJhIlm0ZqvOF2nvK/zVtYvAKO35usRwKI867eeuK+0Pbg21BvbVonovo1edNiiqYAuG9/0uib2DAAQwACjQwRbZwNfeMlnnWcDX7i8/mzgqACe1Fm/sIp6is/5uLt9kZaXOe30h5Dxkyvvc6sLLcexZ5OmLwpe15asJ/YMAAEMAK2LPIzW2cCurRDzV9cniKLe3TSGNEQ9xZM7s33uUVtB9HFtia6znupsLSZMKx6nk0eTPYYq/mmkXsSlZ82DtpvszovfzXx0ACCAAaBFGahiWWcDz7n6TqfrnDDNrysbuDzDd/ol9a0nal04f2E61cpq/tl6LRsh0ViytNMagmP0MS84TiHvH7QXsbowUcXfFQljz9bzyQGAAAaA1hfBSoTYZrONsoF169glM1b015UN3PdC8ePs/K76KozvvFwqztPILD73guyqnlpfdJRwdP1pMTXycpBVI0lz4IIbfaevqQSxZ1uIPQNAAAPAyMG6qpXg1nFd6LZ4PdnA77xU/FkNVh2dyUWrxF3Ujzt3VbK/Y5vDeyqhrSC6vqTidNgLlMuLf7PS0I3h0PGIivSsSRh7RvUXAAEMACOFgWxgKyuEbh3PudptDKoEUlLh+uH/+ObwvmL018wr6hOBfS8U1zF18dm6fcXViFojThxJsM/y69L6Qt78VfrrVJNiNLXh4E677dX4Nv9TTR97tpHYMwAEMACMPGSFsDrBz1t1j/uGuLxQSpoN/Mb2UjFdT7pE745SwdZzc38qmcXl1GON0HoW31G6/Zu70xeas68t/k0lTNhWmDuXt0Ts2SN8RAAggAFghDHQEGdV0pWIWHrrN52uU0IpaTawJp9FI8DqSZcon8gmL3D36uQK+Nxp6QpTid9L1/lDhOXplPWvpvVFrQv7t9rtA/mT5e92hWL8iD0DAAQwAERF8Lb8t80220ztWdmQbOCkloOoQJNo1dCFJFSyYshqsPjTyf5enOivuNFiofidUEFU1+N9rvQ4mtYXoosL2/HKXZ8xTmPP5l//x7abEHsGgAAGgFGAGn2aPhtYloMkSKC982LRC6yhC0lSHKZ2V/n3vAi+4s54No1jb9sJvxNHh//9WuJXpJlbvPT2UvH6m5/a7UdZUKZ0uYs9m3npLcSeAQACGACGkmRMsrrpF1z3RafrrKd6u+cJ35w9Vdg2abrEpIv8mmuTCB1OBMexI9gkIwwnfgPR2ZVOtVW5zNG1vf5Um7X3t94BJzboAm3BdffabkbsGQACGABGkQjebCyzgTuvusN5NrCqt0kazyQ8e5/KlYhMm0Ebsl8M17QVVwSXC9jEAi+G+BVad72JFbJRzFpZan14Zbud+JV3eMI0d9YHDW8h9gwAEMAAMBzWGWdLbv260wWqenvx2oRe4F2lsWgSdHH9sXEnydmK4EnTav/i6Y/qE78hU+Ym3+cSz903FcW/Kum7f2gv1qPe4az5+OSZxJ4BAAIYAIZn4ORvlQ088YIFzrOB5SFNGmf268eLVgghYRenOmpjI0hSCa5GJYuBrfgVHUuSWQ+0by75o/5B36/23c7v5ayTJZTi4bLxbcH19xF7BgAIYACILYI3mATZwKq4uaR7rZ/YCiEBFxL4gWPk+WoIhqrHH74d70FrieBaf2O45jxb8avHUgPgob32H+3l4ldo39n6fvWclOLhCmLPACAJY9gFAKMelXS3xv1lVdoWrXnIPPuD+5wtUL7WzuVt1j5UIQG37/ExpmvtmYhYNea5R72qlc3i43jBl8Th+CnGTOwofOlvlHuEq/3dM0EFuvID6W/WEpKL/7C/ovjVuOOT7xtzdL9njvcZc+JwtHpsv49kDVF1PCp+tc+OvW9fSa5nnHUSEsSebSP2DAAQwACjHHXB+76v28FfiruNsoE7Ft1g+l76ubN1ysN7cGdbMPLYlgN7+83k2W2DI4PjiOByEX0sLzj7eiMXAl7OfGKWZ2ZfUxSpw/3d6NjjcqJWjUrVWDWi9e3Kf+3rj/zt+sWmkjbm3nC2ZB2/faIt2GdJhPSki5o+9mwj73oAwAIBAKEosLolvGjNA+6zgeuoLr74s9J84Hq9uxKhfb2+eWazF/vvqnpcjQ8GrBKVxK/+/rOPFYR8WpPegjHKnx4qfmV7SCJ+hcZYu0Kvve4bv2y72WZizwAAAQwAAUnGJDciG1hxZorXahYRXOvvrrjHDNtwV14RriR+ZUXQ3091P+YfR887rIgL2SqSeH4Hxe+K4aPj0kSxZwka36j+AgACGABKRPAWkyAb2PWYZMVr1SNYq4ngerNzy/+uxKDE7JgaaQjRivC480xF8Zu0GltLqF72hbMl3mI1z23/jkksfnU8ZqxwJ37VhDlv1d22m20i9gwAEMAAUAlVga2sED1rHnC6QAnE7tXpilWJQYnPNESwRGt0rXETHCSYsxS/em4a4RwdcCF+t6MtsHHUY63Q8XAZe6YmTEskfIk9AwAEMAAMZaBCtslmG2UDd11/v9N16tZ90mzgaiJYAk6V0XosFkKiNSqCo9RqgouSpvhVdbZS1Vd+3//+UZvZs60+4arjELVSZI3uOKgJ05KNxJ4BAAIYAGqJ4A35b7ttttEUrkZkA9dLecVWKC5NzWH12CyqieD2zlJRO35ytuJXqQzyIpdXfZVx/PQmL2jiq5fZ17qNPUtwx4HYMwBAAANALNbb/LKakZbc9g2nC5RlQJXNepHY3P1oW0kMmSqa9fqCK4lgVWDDyrX+9ie6+jMRv/rbl91hzO99/mxJY1pY9d25xU8lTULVcjUmukKxZ7rjYAmNbwAwBI9dAACV8H3/YWORDSye/9s/dZoNLEH3q7/JJcoGLqfa4IlXf95m9u9K/vclEsMhHOGa+3bnhkxLS0P86jnMXWUqWhLk9f3tU36qMWpX3+878/4q9uzaB5+wTX5Q7NldvJsBAAEMAHEFcHv+2678V2fcbU6fOG62/tXq/PdjztapARHKyE2L7muGjvLVY7z8j15ioS0RrPSKamKxXvFbS/hq7b/5qZc44aEaqr6XWyuyRD5zy+QHeX6XkfwAAJXAAgEAla+OC01D1laIRmQDy+uaFmoKk02gZDJb/jEu/5PklguJW1V9y9FjyH6RVPwGVetPe+aK9WeHiF/l+up56OIgbfGrx3Upfok9A4DUz3HsAgCohe/7P8l/u8lmmx3fudsceu0ZZ2uUkFRT1+kUdZ5u8V+81jNTukqFnjJzX3kiZw71xXsweX7VsFc+JEKV2d0/NInWLI/vrKsqV3wlfHufyqWeHxxF/mKX3t8r7n3UduSxhO8ykh8AAAEMAEkFcKcpWCHa425z/K3fmF9uutnpOuVxrTfSqxKqLnff1D/EvqAItT1PVPfUVhPQEusSqEl8xbJSdCzrryg+XQjfUNAvXec29mz5Pd+13ewukh8AAAEMAPWKYDXDPWyzzW+f/K7Z94tNTtf57LfaUr/dH4pZDXsor7hKzL65PS88d5QK4Wqe3yReYtkNpl+SF+JL/Iqjhl0J35Dfv9c4HXm86qFfBGO3LVDs2bW8awEAAQwAaYhgVYGX2myz9S8/bT46csDZGmVP0FSzrKhmZwjFrdBI4/L/XyL1lX+Nn7srwd3RVb3aGz7e/q1ebCtGGsxe5pm5N7ir/s65+i7T/dkv224m68Nu3rEAgAAGgDQEsMTvLpttDu9/3jzz7XVO11lvbFkc1Aw3Y0X/sBFg1SrE1ZDdYmq3CfKBq/1tWS9e/0+TSaV7OFFO7BkAIIABYDSK4A35b1+12ebFf9hgDjz3D87WmEVDXCVkTbjkLr+qHWA4j7CN6BXyOL/xXyaVzOMkKG3C5cjjRWv+t+m86g6bTdTwNpvGNwCIwxh2AQBY8Ej+SyXdzrgbdN/4ZdP30i+cZQNLRF68NhdMO8uC0J7QubK/oviV8H31yepCVTaKyfm91z7bt0pS6Fjab86cVDXZZC7uy1HqhEvxq9gzS/ErNiF+ASAuVIABwArf96/Jf9tqs83vdv6z2f33Dzldp/J10/THSvh2Lq9ufag0cEJid+IFxkzs0BjkoVPmKhF6e8eMM2bmFUNFsq2tIg1aIfYsL35n8+4EAAQwAGQpgps+G1iNZ9u/U3+1NJyyVs2iEApWYSt2qwngo/s9c7zPmOMHjZkyx6uYKBGOVM7aFlE+yjlrEsae/UFeAG/hnQkACGAAyFIAKxN4v7HIBj559C3z5F9c73Sdrz/VZl7ZnkwcyptbqQIbRakTZ/JCNMvqqITumRNezegxiea+XelHoanqveIeYs8AAAEMABCK4JbIBn7m4bbYFVIJvhlLPTPjcj8V0Sfx+sHbhY/ZUCQf3tdmXv13U3WSW72P996+nDm4y6Ri/1DahcuRx8SeAYAraIIDgGRXz573SF4Er83/eE3cbeatutv0vfRv5tjBl5yts+dzvnn2sdq/U2pzSC58VRE+2pszH/R55v2D/qAfWEJy0kWF32kbr3835sSRYv0hHJAxcXrBQqEGuXOn2UeO6fclqqcuLlhADu3zElsktE9cil/Fns1bdY/tZpsRvwCAAAYA16w3ltnAPWsedJoNrMrrzIVjKtoD1KR20QozZFxxHCQwJXiPvK7Rz9GKqz/wVZvxk4s/y/MrkfphrzF9+S+zPbjEyIvQXGJRrAr2hctN8KV19r2QM++8FF8Md33G7QtpwXVftM38PTrw+gMAQAADgDtUffN9f6OxyAZWd79udb/29PedrVNNZH37CtnApTFm8YRvaGUIm9Peez1MYIgnJk8e9SoI1OG3jSOKK02eK0cNeZrgNveGggXj3b1eTb+wLgySXBQkhdgzAEAAA0CrieANeRFslQ2sW90Hnv+x02zgpbfnRexbXpCn2za2dqpBNStDXMFbzomj6aU0DBXFEvU5M2laIV+4kEJR3cMsYTulSxcFBb9wpczi+av7nb6Gltz2DdtNFHu2gXcfACCAAaCRaPxs7Gxg3epeeus3zbM/uM/ZAmWFCH24Ueq1Mtiiim05hQpx8sdSNVrrPtQX2cfDiOKoXziMctPfmL3MC2LcXKHYM8vMX4H1AQAQwADQWDzP2+b7/ub8j3fG3WZqz8pA/LjMBhbRnF1bK0MaFERorkQIp1khTiKKdXGwdF1h35w7zXX192u2m2wj8xcAEMAA0CyoKqfhGLGzgSV+frnpFmdWCCHxmzQbOH0h7JZKolhiPJxYp/g32+SJepAX3DLzN3ydAQDURY5dAABpMNCQZCVOJH7U/e8SRXsp4sslaY5kzmp9h191K8oTxp49QuwZACCAAaDZRPDm/LdtNtuo+3/S9EVO16ls4Gbi2NuNX8+CG92uYdGarySJPdvIuwwAEMAA0IzcZbvBklu/7nSBhWzgxn38yXIQ5XSD9a/GPmc5znnI/s9f8Fx4yWdtN9tI7BkAIIABoCnJi5ReY1mpm3jBgsAP6hJlA5/ToGHwakJrFrQP5n/KrQLXMBRLFHv2CO8uAEAAA0Azi+AN+W9WXk35QTUQwRVq9pq30p0C1jANm393Redyz6n3t2PRDUliz+7iXQUACGAAaAWsGuLkB1205iGnC7xw+dkhdoSs0CQ5m393gZoBZ6xwm0axaM0Dtpso9mwbbycAQAADQNMzIFqsblsrG1gVQpe4nnomNMK4Gej6jHEae9Z1/f1JYs+o/gIAAhgAWgp5ga0alxbfsjGIyHKFhkFo+plLxoxtvABW5VtjkV2hYzrrytttN3tkwFMOAIAABoDWYKBr36qCJyuE62zgzpX9TrOBJbpDPnirMRYI15VvYs8AAAEMAKNJBGts7TYrQXrVHcGYZFfIBiA7QCM4c9L9YyoCLirCs4bYMwBAAAPAaERVYCsx02PfLFUXsgMoDzcrTh31muJAKPZMEXAuIfYMABDAADDqSJoNrKYplygPN6ts4BNHmuNYKPrNZeMbsWcAgAAGgNEsglXRs8oGVtOUy2xg5eEqF9clR3rdPZZ8zop+cwmxZwCAAAaA0Y51Q9yS277hdIGzVp41k87zRuTO7/mc2/QJYs8AAAEMAKMez/NUAbbydur2uets4AU3+iNu38vfPOkid8kPCWPPNhJ7BgAIYAAYicgLbCVyXGcDSyi6ygY+cdjNc5K/2SUJY89ofAMABDAAjDwGoq0SjEn+itN1Khs4zYa4432V//3D/8lemM5f4QX+ZmcXEMliz9YTewYACGAAGMkiWNnAW2y2kaBynQ3cvTo9BdyIvN/g4iH/FGascDv0IkHs2e78a2Iz7wwAQAADwEhHVWCrit+S277mdIFTF58NRga3MhLxLRB7tp63AwAggAFgxJMkG1iJAq6zgbvXZicej72R7UewxLtEvEsSxJ5tIfYMABDAADCaRLCanqzEz7xVdzvPBpaHthWZfW1LxJ5R/QUABDAAjDqsBVAjsoE1RKKVmLkw5zT2TBclxJ4BAAIYACAGA9nAVlYIeUznXO12XkK9QyQO9Q3d/tTRbES1Gt/mrXZrfVhw/X3EngEAAhgAwAIJoV6bDeatusd5NrCGSaTJiSPZrFXjnF02vimdg9gzAEAAAwBYMCCErMckL731m07X2X1TutnAWSCrhiwbLpl//R/bbkLsGQAggAEABpIArLKBp/asdJ4NPG9lcyvgrs+4fbyZl95C7BkAIIABAOpAVWDrbGCXVogLl6eXDVxtOlxStK4pXe6qv9rvC66713YzYs8AAAEMABAyYIWwzgaec/WdTtc5f3WydIUP3y4VzmlPh8sys7gS2u/EngEAAhgAoH4RnCgbeNL0Rc7WOGGanygb+Myp7OwTs5d5QWaxK4g9AwAEMABAulhnnPWsedDpAmes6K87G/j0R+msRY15nSv7nT7/BLFnEr7EngEAAhgAoBJJxiS7zgZWQ1y9DWfH3k/HstC9uiVizzYSewYACGAAgNoieINJkA3sckyyGs5ssoHPnkjfAjHpPM9MXdz0sWfbiD0DAAQwAEA8rLOBF615yK0Y/JQfOxs47dQHseBGt41vCWPPNvJSBgAEMABADAbisjbbbKNs4I5FNzhboxrPkmQDlydCJBKjC3PBhDpXJIw920zsGQAggAEA7FBslpV3dNGaB5xnA8uKYEO9iRCNaHxLEHtmHWsHAIAABoBRT5IxyRJpC677otN1xrEinDyange4c3lLxJ5tIvYMABDAAADJRLBGJG+zEohX3eE0G1hWBGXx1uLE0XT8uopfUwybS+StJvYMABDAAABusR+TfOvXnS5QloS4DXFH9yevBit+zXXsmbzVlhB7BgAIYACAehi4lb7JZpuJFywwXdff72yNEqUXr/UyfYzzO7wgfs0lPWsesN2E2DMAQAADAKQkgjfkv+222Ua+VdfZwBKplTjUV3/Vdv5qt9YHxZ7pQsISGt8AAAEMAJAi621+Wb7VJbd9w+kCu9cOnw2cpCFOHuMJ09xZH5Sk0X3jl203I/YMABDAAABpMiCurJqrNLjBdTawUhpqYdsQ16jYM8vGN2LPAAABDACQERuNZUPc4ls2Os0GnrXybJDWUM6xN5J97GrYhsvGN9lG5q2623YzYs8AAAEMAJAFSbKBVcl0nQ3c87l0BKuGbGjYhksSjJSW8CX2DAAQwAAAGYpgZQNvsdlG2cCK9HKFsoE1rjjK2ROFqrBNQ1ycIRtpkjD2bD2xZwCAAAYAyB7rMckJIr3qYt7qsyUNccf77Lbv6PQCIe2ShLFnW3g5AgACGAAgYwb8plZNV43IBu5enSwbWMJ5/qfcVn8Txp6t59UIAAhgAAB3Ili+U6tsYDV3ucwGnrq4mA2sCvDZU/EEsZIklCjhijpiz3bzSgQABDAAgFvust3AdTZwOMDizEljPnh7eAGsBIkZK9xaH9QkmCD2jOovACCAAQBcM1CBtM4G1u1+V2iAxfwVnjn9Ubzfn7vKOI89U5OgJZtofAMABDAAQOOQF7jXZgPd7neZDayKrirAfbtqf/TKLiHbhEsSVMR7B0ZTAwAggAEAGkHSbOBFa77ibI2q6Cob+MDe2taG0C7hCsWeqSJuCdYHAEAAAwA0gQjeZiyzgS+85LPOs4EVbVYN5QbLLuGSJbd9zXYTYs8AAAEMANBEqAps5UuVAHRphVC02TkVNLD+TbnBLplz9V1mXPsFtptR/QUABDAAQLMwYIWwygaWAJxz9Z3O1qhos3krhypg/ZvLxjeJ/nmr7rHdjNgzAEAAAwA0oQhWIsQ2m22UDTxp+iJna7xw+Vkz6byiCFbsmf7NJcSeAQACGABgZGEt1HrWPOh0gT03F5vd1BznEmLPAAABDAAwwhi4TW9lhVASgjyxrlCz2+xlXtAUp+Y4lxB7BgAIYACAkYmsEL02G8gT67IhrnNlf9AU55KORTcQewYACGAAgJFI0mzgpbd+09ka1fSmpjiXLFrzgO0mxJ4BAAIYAKCFRPC2/LfNNttM7VkZVElHIl3X358k9uwuXkkAgAAGAGgtdPveqnlLVVKXVggX6PnMuvJ2280eyV9E9PISAgAEMABACzFghbDysKpKqpiwkYTGPieIPdvIKwgAEMAAAK0pgjcby2xgxYS5zAbOEj0PjX22ZCOxZwCAAAYAaG2svaxLbv36iHjiCTKOewcGigAAIIABAFqVAS+r1S39iRcscJoNnAUJY89ofAMABDAAwAgRwRvy33bbbKNsYE1Oa1USxp5t49UCAAhgAICRg1VDnBrHEkxOawqIPQMAQAADAITZwFb+VlkIWi0bmNgzAAAEMABAFHmBrRIOFt+ysaWygYk9AwBAAAMADJJ0THKrZAOfP+cKYs8AABDAAABDRPAWkyAbWOKy2Zl//R/bbkLsGQAggAEARgmqAltVPXvsUxWcMvPSW4g9AwBAAAMAVCZpNrDSFZoReZQXXHev7WZbiD0DAAQwAMDoEsG69W+VDax0hWbMBp5z9Z1JYs/W8yoAAAQwAMDow7ohrtmygSXIE8SebST2DAAQwAAAo5C8CFQF2DobWH7bZmHB9fcliT2j8Q0AEMAAAKMYeYF7bTbovvHLTZENnDD2bD2xZwCAAAYAGMUkzQbWwIlGkyD2bHf++W7mqAMAAhgAABG8Lf9ti802qrw2Mhs4YewZjW8AgAAGAIBBrLOBl9z2tYYslNgzAAAEMABA3QxYIayygRU91ohsYGLPAAAQwAAAaYlgpSNss9lm3qq7nWYDE3sGAIAABgBIG+tKqcts4EVrHiL2DAAAAQwAkB4D2cBWVgg1o825+q7M16amu6k9K60FPbFnAAAIYACA4UTwBmOZDTxv1T2ZZwP3rHnAdhNizwAAEMAAALGxzgZeeus3M1uMYs8mXrDAdjMa3wAAEMAAAPEYiAzbbLON7AlZZAOrsqzpc5YQewYAgAAGALBGFVTrbOC0rRCKPUvQ+Eb1FwAAAQwAYMdA85iVkFQ+rwRrWij2TFFrlmwi9gwAAAEMAJBUBG82CbKBJ01flMrjK/bMEglfYs8AABDAAAB1YT0muWfNg3U/aMLYs43EngEAIIABAOpiwE6wyWabNLKBE8SebSP2DAAAAQwAkJYI3pD/tttmG2UDJx2TnDD2bCNHCgAAAQwAkCZWDXFKbkjg4U0ae7aZ2DMAAAQwAECqDAhMqwYzeXg7Ft1g9TgLrvtiktgzqr8AAAhgAIBM2GgsG+IWrXkgdjawLBOdV91huyZizwAAEMAAANkwkLBg1d2mbGBVdeOw5LZv2C5JwpfYMwAABDAAQKYieEv+2xabbVTVHS4bWLFnSo+whNgzAAAEMACAE+zHJN/69dr//21fs10DsWcAAAhgAAA3DHhurRrPFGtWLRtY/y6rhCU0vgEAIIABAJyKYHlv684GVoOc/t0SYs8AABDAAAANwaohTvFm5Y1uxJ4BACCAAQBaBs/zVAG2SmFQo1uYDUzsGQAAAAC0HL7vt+e/9vsW/M9H7/v/uuFK/73XnvMt2c8eBwAAAIBmEMHX2CpZieAE3MTeBgAAAIBmEcE/8bNlK3sZACAZHrsAACATAdye/yaLQntGD7FswHMMAACW0AQHAJABAxPZskpn2Iz4BQAAAICmRFaFlK0PRwaqywAAAAAATSmAl6YsgO9krwIAAABAs4vgDSmJ3++zNwEAAACgVUTw9xG/AAAAADDaRPCGhJ7fO9l7AAAAANCqIrjTohqs3+tkrwEApAs5wAAAjRPD1+S/XTPwnyvzX4pOeyH/1Zv/2jIQpQYAAAAAAAAAAAAAAAAAAAAAAAAAAAAAAAAAAAAAAAAAAAAAAAAAAAAAAAAAAAAAAAAAAAAAAAAAAAAAAAAAAAAAAAAAAAAAAAAAAAAAAAAAAAAAAAAAAAAAAAAAAAAAAAAAAAAAAAAAAAAAAAAAAAAAAAAAAAAAAAAAAAAAAAAAAAAAAAAAAAAAAAAAAAAAAAAAAAAAAFCL/1+AAQBB7kw0EDXphAAAAABJRU5ErkJggg==;" vertex="1" parent="1">
          <mxGeometry x="613" y="136" width="155" height="155" as="geometry" />
        </mxCell>
        <mxCell id="ocqf6F87zvbqWiO9Ts27-4" value="" style="shape=image;verticalLabelPosition=bottom;labelBackgroundColor=default;verticalAlign=top;aspect=fixed;imageAspect=0;image=data:image/webp,UklGRq6jAABXRUJQVlA4TKKjAAAvzoRJEbcQUzc+Ctu2bVPZO2kDWEmCYimKz+exFM3j8TiaZkmM47htJEeS8g+7/Zx5R8QE0PW7k67QlUf3RHuiKyAjVuVLa+KBSdO10uJcdc9CQda1aqoLSNeCF4VHJHc6A3whKvPECRu5k02ToSufLM5052HnPRu7FuJN98rq0HCuUtpzG4mqR2BKvibIk5IbPA7gXw0F23bi1lLc4w4bGzz/sb6AkIQgKfLXqoj+y6JttW6jk2Ziu4mbOBNFD0BYlvwhwbbdto3a9F72v9xxSPxHSAfAmR/Rf0hsJCmS4qBUs3BMU9XZfI/Xv2aX//3H/mP/sf/Yf+w/9h/7j/3H/mP/sf/Yf+w/9h/7j/3H/mP/sf/Yf+w/9h/7j5ejX87tnzGaabue57G6+xeMVmn7BJdb/QOWtHUPfDn+5Vo4buZBXOz8z1bS9n6Ay79eC7v5cKj16eufrIXDatDrXZsteAZn/8+UJMj+Ttri+cvGAxb+G5W0fUuCEHk1mwsX/hOVtKXiP8PgCbrlX6ak7TvtysarWcOFw79JbO+kLR/Rhc2/SJwPK8HCJVhohn+9ABaewcK1+ZcL+AIt/GeLaBFqHz7hrfmHi9jCoPDiGv/dgrDw3ywwlzlcOP0jxqs7gme1t78FRcXhvxKkhfcPYeGo3dH+R4K4ULe/AVVF5X2Q7dr8BwJ/UfZ3UCVLuwCWve6l+c/Gq9M/goX9HtG7vufmPw+UhfcPYOHkZ/Z8kxNdmzGvFljYVfqsujli3AtYzaW+uvfSKNnQvxWD/ztW1XiBkLh1r2UyX+HE+hy9cLgWHl19FwhBfUYVMGG+t4nOvW05ioZv4VzTUSf+M6ouYOJrkwXdPTnajHm1e7iwr+cCIdjPaDwj7/zSJvqgFEAuLAuvYOFYyQVCKJ/RYOIGJr6wD2I7n2EiM2NeYaXGcw0XCOH5jDZQvPEYvqy3Fc4JPYd8eVdqXMNpZkP+jIIT9gub6Ldo5oHbmnx5DfWbbr15P6PtCkzo/ltK3GIu9/SzYtCO/zPabl/UxER4V4/uJ4U6E31Guy0MHdzefzmJW8rFLs3PiflK+Bntdmii+2YSt0jCJ2TGXxJ/UZIl8We036Ec9e4rSdxufRzVDVjb/hXRb+bVp/+M9hpIsG3tF5K43eGGFANu9RNiPN6f5eEvPpf8MzpAE2v7TSRu9x/+ws7RhCne/tdD81ZjfzMyQvtUHtBE8zUkbgO4YMFBtzY5Upn1QX0mKZ/R8QQtf38BiduohzFSHco1ZUhV1gcNUXI+o+MNGsr99InbME5IFT3Qh8+OiqwPKpLX3yrBic+duI19eGfUwW7U2jkzVC3WB5UNZCj3Uydug9FxJ9AeM+RFHdYHlc58QRMfOHEbj2sRNaQ/W5sHYw1meKsOiOZ408KGctVHTdyKHlZUBZy3yoLJo/6aUEMxS6OJ2JU00+dM3KqwUNYmKPx29NlQeeu2ywSEodzpAyZu013CQk2MX8huaTKh6tZtlwPnG8BQ7me0/N2/E7eJuaMvBBB+G/Og4ppQyweHsyt5Dh8L9Qi4TAiXDwDhtxyotibUcsK+XriJY/heMIhk8xbm582/B9rlz4RaRpg30SDBQYZyvxWeARONN0Bs+rdA/97pmuy4Eb4TPNDEl8KBej2zBSpl+RnQt++67UoBZPn7K+HpcIVGGtCH/wnQLtfRP1wsgrjxHNBE942wYcO5C6iURTI1NXGbLReOsdeg5e/vAxe3EhDde0S7CKaeah1kjMExROxKbu3HBKCWHgafVi6V1FBHvlgUm1doGDeU234TxDIG0MJvcqmiWgelYQdlIMYTtPz9PUANztpdOBXUs738OZEAH17Y8vc3gaH9bzKiqZ41qOTOg6cHP74GNJT7KZApwhvzqkYwddNNl6IRCXrgia+BkxrkyWWqmbrtRQAnW6894kErZCj3W+DpcqVe6raXgZaNiP7Dpb4E9vxQHpVSt72AdDGWiAyXUV8BrhXCzE6V9J+2NGgcLQq1gJa/vwCeNVMqpP+0RaHHcaBYvdI8uKjwnD4/tiG9uhpO+3YGrexMUUO546fnUXlSFy2oFYqdEYyh3A/PVfFp3iGfIFY5DAReqBWNgEIYOPHRecZKTzObaS8VOKNhJ54BdIQUtPz9yTmzpBKqHZSNlRG4ZBie+Nw8PZ65WjO8g5uCMRLgEOntNSQqkclEN836NNdtzl01pUDnSAUUCCkaEx6H1lBATyziaaf1uCPbfmnKgOsypPY5UJUiC66SvHixBDZJNxw50E6bcaj8srYIPFuG1D1LHfmhmMEFXIMRzrCeDr/5uyJgm/yoeZY6LoUTz0sJppu1JaYw90Ew+u+CC5h6p0OVKDMfTU4042Z43qkxf+78qHQOVBWTGcd7s93IUlYKElvdnu1iVO48U+Wme6selZ4bhSEjstXtxU5M4jDZUeEcqCovig1LQlQbz6a4XCprniEzxhqWVRepbKmwLHxcZMQkbfnLM6GJnDlwrBpifuYNdc3n0A/ChQtaSUhrdXvGzbrc0ES+PF1m1DSfQ4vNhKvCmJ302XTJhGfhLy8zZcueGfVs96nLzMqHFcy4XakDMGWgiUxxbXUlROm/6IxsGBIpjyBAcs3z2MQ55gd6q2+lS1d6higOxSOR5q/IQY4hDXVBdixzxGLYS5e+4Gw4PIOI4mn/lgixC4SaGPPjUT9DdjYaz+arHNq/4lOJmf/g7mWo7Lh+i/QctJLo5tNJLctswOpH5yYvnvFXiEbR4Dkk0C2nbNGMdrWgTzJZcf4W4Qgyexn0ixEXem241jYBDeXmAi5mrTuPVgTMRw9GuDsH3Q5P5IP+EXLwoknwiOgKB1u5lZ2bXHDtb5UhKb6IrlzoE9eUCc/6QyS+FfHsKWgm/V4iGB7d3b1Bw66s4Gg6Tjw6GpWiQxLRlQ2T/U7TZ8Ez/3LYCwTe0pB42NrvpM+CuyIzFB7Lx8rHuGpPrC17XoAbbHebA8/0C8SgGFAoOgjR1dyg7yvFkQVGPovnjcePhh1XzsBF6/IFu11830TEE4+wnY3HzcLMSv9kDGXDnFlw/AC5RPIqAEi/PnLg6X5gNFRuFCOeuaDgyk+yYP99MZ/HxL8bnROKpew075UfWeCa3xbX2g++zbEUrLiK8woGT0GLfGKb37QT9zYAKot269FYNtbSgtx9liy4f1XYfQqOVwLwkibKbnR+Pvy3acyCR/2icBrwWLYD6x295haDQ6E8UFWzTOVm80K4PLjqMGNROOcW5XskftUPniUaryoVGxerF1zlwTNUYaZyYJYuFl2dg8Mohl+1Z9yWj7FA7Kzhz5IB8HfS3UBca9RB99UExQvDjl51w4f2tK7LzewliDPh6X5E3NsQr3bOiyaijkGK3XtixVDzB0Jlhf4FYfcpaq/xbeMsmh8XWzW8G51IcP6/f0e49idDtAA1akfbIrKQglVbaNXL++PeEZg/C1NWPOtPB3dExT5GbyeKIRD7ix1Zdc9M93FgV1ZgmwV0AarXzp840KuecWHR4oHbnYEviWfmRv0EwBagouQVyHvBzsZwF54hM+5fDNgCVBQsbZSgcSiUDwhjU3aWfHimBLBKIXdVmg5RgMq/36rTAT45hQIRPtvT3WuXC0Zvq77KTCiV47i01Rl3KE7fGQ/Kxupj5atxNXeE/2dm8YpvR/G4c52CjbCUmSAh+pQuKifOucUUoCbBDyVhmd4h3rYRKuY3swmepJkbwdxawZt1LzbH7wOgBBVTgJoIXJByKpAVET5HVOhlcu9TPJy/So3rfh74JaiYAlQZuOiqV3QYDmfzHZM47h2nWD+Xmmf7efBXgopp2sWERIPA+YJ3TRP/kgwimw+PYyfwiuij4NofA0RV0G5+9faRxBxvwxw0fjafgbP5sNgvgGf9MYBSBQUFNu7X9sgiaPsXOkjRkqaM9BlifwygVEFDgQ3uCvF0FIpaaDMbHuJB7r3O3wnPT4ITLkANBTY8tCxUaP2DCUSY60Sz/HzBFqAC4VzIIQxfaI4BfFuO/tMAtgDVD+dEsoSCbHyQanMpH+vPDhsT/Ro9IV2pzNc7yEsGojaXfxKwemoiewHwFshPCsNtSnC1uYhjFcnwA2GWQ6daxN6Z4DgBEocza6rmMyZa1v3Js56k23DtNZPNFVKsOGLl6FdOwBHEEWQqKDG1q9v9xgk80nhWIEsEZ/toCmL/MtjrInFHPEHaQkG/TMdXTFMz8cpPMV24o1TcXMevJzP0J+ZVDeFYMqg/JdCSE6qc/sohL+n/JNuOv/DRCWPLhoi8sROE/mVCXfKOS/1hnksYa5a87G+c2BKElK7P9dh/q7CeXy4IKV2APzX0r5T218LCA26JJ6ULY/+dYsUu+XY4fphEP9hem4x82Ww/JOw+otrKJiGOk+WbYP8V4Q6F0gRNy/MvD2bpMJqgXxTnjxG7jxitdiLPP0JwJG6b1/jWahfD8e8NZukieqBTY+9/qKAlbjtPd2r684DvG8P86ognbjGyINOQKfN/S3Q9A5m4jfjNOI3/UrFCnoCCJq4jVaZPUy3C1THCxG3Uv9AvkOsLwVYxBvV36SIGbZ8nDe2H4BbE/aPj9YoXoGJQ/wohGYjZoqC+BF4/GcIdAMiC9nNif27EC1BLy/JZ0b8OMDtKUcmoZlWu/FPG8r3i/mXBZsnzzwFT4Wn+NWP4jEw/dOYycP1Dgi4D878jdK4MDMc/I+wPnT0Phl8iY9GZnlLwOorBUV/puOgYGUpOf0vCJWb83dCzNajDR2S4H0nYxLzOf0CY3VMSxpJw/1aBOwuhPI6E/N3828HIuBPHWzaM/3DQ8R7EpzUT3jf/ZtBM3kF8KhLjjwvNR19OjmnRXhcXKBLezW+fdJeSMf1Lhn/zTwxLTkz/FHGD9AkIbv6FYc6K6SdI9+lQWfEyvysGRtpPx5gX0z8w9KycCQFufp7Mxcc1mTH984J5ZQJ0kzvnr44rH/bsUD9lHkZMRuvKjpf5+fH6cHT5of5t4eTcEmJ4mfwxv2yWHFH/smDbHHmZnwHTF8r+yhL17wq24+QSxOv65WGPqcuTnH7PW/u6FNQvinHnWaJV01m7tp+Ks+Gk8yrPS0j05gfFxMDtN67c7nUIjc+E7V+cjF4sUgyf+o1rGyP2q830gXBTAgftVULeNr2GWQfM9jiGj8P84mXzjBjJ4XOjcS597MDwADEY3X0UnH9ltujjGjk8/+kx3DF3iINcNKsb6uLHnwMb/pZXVfR6JWTBNBj2UC2uQXLmVwP0n4p7/hSY/sUKcEACU7JiWgu/PdLQjfgye52qBQiAprKTcGx+Kk88LiUrprO49ym6BJNVPxxQWUS5iQ1RohT3HEXx/PdQTP3m2siNKzQjOmH03hWatAOIznjVGaRkybQTgSgIQ0MxQcHODJZFFJfkXUq9822ypWTNtBPnEj9mH3S5sHZ1QFlEWUnZg/HhrbsmZc00E0MXXcIk5tppqCyivNiUvRf/8ALDpCyaXxKmjy3hlNofTugllhXvCE4mo3Ve1+9KyqLJlrM6Y8B1N9Nu2ZWQ1AWlGcvJGXQD2KTzW1pWzU8Is8aWpNCpBPtgtF3KiEWPYgjurdDL42n5jcC35PW3hNW2InpIetgCYub0hzlherzAJy3LpvIzMsGzZNyG4U5sKhZw5KpoAIcINjleLqVKzLKp/AxJuaAlw3a9o5jpLV+PZwG5/KMTLuP2ahKzbn40XOsQO1pPqcCURfDT5AXU9V1E/H55JYZuxqoNakms+b74IQ6lAm7ajLBbL+t/xN0IpbFCGKo2hCXeLuWIICLOexSKU9JIOOid7+qoUF7rD4TIktjuMUnkpUqE3QdZI6PXC5ZfYmntz4RrG2LHgf/TETsu6pLQfl1T6dkxvw+QSz4mzit2EMUWbPr0bJmfB+8lPE3E91kA1VeFsQZ7gy2ALfProB2i/fOgtOj7ZbJ3oh6x+2LPrWxamxdXXcWdcxtrs/cPzONWOYvbI+xedhLYM3lx11TOuYsd3bqPi7jxijLe4VU6rf0VgDy01cChp/7AwIehX0lYuj/hVQabptrTcxhO60YvBJLFWkyGbnNgLVGJQFTHYLpXBrS22oNXage7/bJ+mc/NuxpSKYWr6oJGkr0Uds0PgWsbIrpTnMwfCN9ekoDC1Xa5wbrz8qCz4ujmQ5N20KweQl5y+QRvwZGgcDV6cH3AeGUuvDZZDKvxI7SVlXsf31jOGjeAHtWuLpa7cHXc70gxhiSk3wy47ix9TxUVu0+Rvj97E4gOrDz+847AuF0xIRNZ0G9k0MJjWMBfWDuBDqMkfOTk7wORMPECC1cZl0T6O7MwpN8M6M6Sf0/1E6tVZMmtADWo9ZnOkC1N7Ox0c28MoV6boMRT+s1M6NK6uq2aOGiJ98HRsnwgsONcjTwW7fvYqQPGeQcQNUc6J889IxsurJacfdPCS74Z4AHlCtSs3CLPsUXemxTtlFp58trFcYDnMYwayTl3kb5y/J2AfDuhiWivxhz/MrlQS8SS4c0Bn8cwaiNmiS35loDGZDAgjYtN2Xo5oV6dxpJhuRHIqz+BhRUOFkc2und1kN8N2AkNTNzT+3fxLod8+QfbXzgZ3pzRM4FIfYOsB9ot59Q/Xw40g2nAhI1bpls8RUv58NwIJLKwqXCQdae+M8IvoeB1INb7NjFZDHonj9jCsbKBWRLRnRIIo/mIvZi01EDKxHtslr/rBtmQ4Y3BnktXbJ3j3seI7tQHocuOmIIC+DuvapasyPDGIE92MDWNSO/oguXaSsfEnRDNA/IJfsQfsqrZwXUjDtTCigbUpTVgWZAvk9fm79JYlmR4Y6L/rcOXVNWwOrbkC2UtHS8tiTseRJ+1jbdOO9yv5L8x2KLeS8nopYFeeFYxugYeTiJfGny7JVAyXocw8AvX5lW1LnGPj3Nh/9xspaIZl+N+BFLhTrhDsWo5vz84pFn2EtGpjWfMahAGAWsw1eyMiOR1BJmvEI6NpAtDMyxBr3iUTYU7ZTWdz1fMWBraaT09L0bFQl/44+TFweDJRxSCfmYePVSiDwPDwp8v3ht3ZgliXOp5kcH8QJ30rX68dF5kKG96tfuNBZ8P1PFcbfp6jP7ItPkiQAJEdAqTaWF9R+fJIXVPVt7cWQJIgGQG08Kz/+XicsWPDOYI28IfLu+cfyuDTC8CSTvGhT9bvOhZwRF8iPkW2gq18PiS8UTMmg8K78KfLP570n5QeBfOtZfjM3N6L/5DMrwYT3884cLfIpaz4SIEMJQWtrpo7PxrBxLCLSb8C/efK9rb5Ono50Azqoy8PaDnX3j8XNk9Eg9n3HIycUd2t98jnCObIkVk0H8vCw6f3tlZczk/EUJqxMPaEPqE2B8k0mrEG8LIYKlRPwsOUQzZM3twRgb/jWIlRwaDKlCKz61+MwyFRREr+Gyn7bTPB7mcAz/m58qEF1JtvMjg57ns3Q+XmxGNqCy49JFB6omviY+79mI+EElqxGvGsLLgj4NzwFkuqNKhv2R6EKDegM/DrZexASyoPcfwo4WzoVa9yOD9oRK156a6eGtvur39WdN6z/BTRQYvPQ/RHWox0N9g4vqt8o4MfqyShmPFujI/39Df4Blobb9P4tWefyLMPpPezXZzbE0MYH6OfABLjyk2tR8ZJH9/hG+h29qqzf15oFp6/Dg4sys+OwLAN+Y9/1RBWnr8YAIgzDYhgd1vNOMPFYSlx88UGfQEQFJc2v0B/gYJW8U5h7aMGNio0CcTAEl3GU7ob9R9ruWyW1dKho8VGbTQaLxJ2wI6xL9x1nC8QymgvD3NHwo48xcZ/MQCIOn+RvWGcnSLwtdxToXjkwmAiLp0GmoyheoMNQoF7crPCI6IhaZUfGIBEBF/Y20wuErNtY0N0GyP1hzwoVPIBv3hI4M0ARABf+PGWv32wteKxF4OzDrExjfvCQ9sZbf35eCKE0DE/I3V4Yb//VF9QR8MNsQZTeCMDpSRY/xWufQy5OKQew/+jYqN1aqNNHdVCOLUfWBU1lx2AkinttQnGxaCyaKaTPQAimF3SfYEcntO6GkubZ5cdgJI71UH4xI2lDLVZJGqxUSz6Qi78Xki+5zSn0ivcD6tAAjRCon13+hEZ4QIHpNF5wDQVlyAUHLpqa1ce+KGlYcv0iuajyoAQqtuFCr7GSX+jQOqOK8SY/+KHGKtwk0CNUAkz4mdkZGPLwDSq7iamN0lTkwX9Dd09eXWquE5owmctDFLca3MTIx8PgEQ6p513gyHTEWevtV11l5GprMAANphCrCy4y+KK2IeLdmedR6qEfc3gP/wVRVUS+TALV1IBX9mnxBMP2v7eeqpmxgidB2QrsWI7tyi/9JwQnQ1FrP2kfZMZYBy3sVIAktgcn1iSxxEzzzuwesr+pL/krpC+mpKtPy0Wwb/LADADqI0gh+G331gSxzNSLaodPfhUWIR+5faabuqLC5o6cJuPn1LHmxQT79UYmjVZj6qJQ4efxYQTQE/7An+El/Kuo4Sb1JG6JCjMCOqQVgmwqmh5gNb4ui5PL+64JCN+S8xvvLqCdZqGiQIUhiavzJE96kscTBUOMp/FfWXcEIo9ljbesQqlaCBmEAB3aLQjH+/+zwCIGwqBvzX6PBEI/2lRJmE9+GbEamSxFXawcMnUwDgmNFpP4/DQGwqBqmu0b/0oP5SqkD8CluFrnpybSM8JDRKwrB8kupRjPaqRGFTMeC+0kLHbrlifymRPJ3ZfTOVFRSzDrBCezHwf/e5HAaiNqJL4ivPX6KWd6DyF/0KXWooZunhQ8FTEHZ9fxABkLlnE8BIF91kia416oz9JWR89MCVNvjVINRPtpc5lw5u6yrxfDNVoqR2wtuwxdi6lfKXGlx89NZBE91WQhh0DRq43b5y4BNXicJaain7ClvzjP2ltvXkoUmlDVWUc+miR3+5EHxUARBRriufLLlphNEl566ZVNpQE+Fa4muBloEPIwDCK+Cf0xUe2AgcI863knJCDWPcjl77ln+VXL4ACKOKgZhrmgsyX8OGlR9XUhywxD/OJEf/lIDPIgDCKxUr88r+l2LC2+FXQK0EuSRWJ2cB+DQCIKwqBoI4kkbiWoAr2HB1k/hhl4jVY5cpn903jVDFQBqtgKsNShuqJ8glrS+imy8f0DeNDNvLcUp6hYRLaiou7Is3wGFZyprPIwASW8RAKnvC61n/rl3Pf7ixLLRk9Dtcb+58EAGQuLBpBobHbynXYRkrHPvEi+e9XiSbrgR8CAGQ2LDpsMvfFEOyK6wwPx6Pe5+wLSobvWNlbMMlrX8Ec0pAu5jyC4DEh03PV3uLZxVwVSfUBwiqGsfDhjuXnulc8nR0OTFpV34BkKgS7Hes5Q2UeEzaK+K0M6WHGgbg76xCQfL4jOHs/nW02dCvd/YJIKk02O8mC49x+5RXXC2F51TLOJGgjx7T0LWeEmgZaNRZcAGQnh50Ak/scOgEaG+lsyS8Yk87X7Us8049WFAenw3b5dlZKwTDbj+UAEgzzto425GapsP5T2qRzpHsGv8PYSKODVYvmgsG6SAtfOhkCsL+mQRABmCX7nYgQxWFDvvtmfTIa5voislC7ccD2vhrV6uAQ84ZieclFexTaFnQH0cApI80eIQL5weKY2wZPEQlueL+I+0RxwbtXrUm2huP2caIf7TloegCIBxNt6GBzUss6zyFo3kTFye5t2O2UGGR0329YnsiQJIgMceCvjYCEkA6hd3NzoF2dInmbJrd0Tac14NemBETGTmGWqVW5X9Ml5CoJIivbFAqyisAwrvDsAftsODaJp+tP8m4wm1+APpkc4xVCv1EubapiZjlLhgFFgBhbU6XkdYjBbaMtMo2xitjeDydVUsAbnhiDFEf3MtG0S1x7HwbeWUQq9XCNyKbct7FK2sCFq+a6jQRfkWvuENaVDyKXiWKY4tENTeDGFrvslJ/T9lDmfqY66ngLsNUJaYnAlwlZwkp6b5MEzcZrcR0ZslI07krJIxcKl475TwoVZNUFAxArPdqFJJCWeIIsoxyZheLRnovm5P+PXym65m63Wbr0QQm0rGDPS3iuyJiiYNjr4YmnTtn9gZ0NJRJG79s19o00dyFpwgCIG2qYh8QYkBpmDrg8CCbmfK/dr7Sl2Y0y12VJtZHMk0OlHtfpg96+AwI6LBVHXBkqf7eJjAINaHD4no00YFBmJbHKweyrhIltVU7MisxeEQF35PwTvMuZycSDoaU8l15Jvan9GQtAJKWky+zfmAMjIx89XdEcWgqK5R1a2J4ik8ZG5VF8ivcRtywEzIcykv9fdASa9ibzgo0cZSfTAVAMrh1HU3w40KXJWVUL950pu1F3EwTS52ZmGJppyKToQCIkFvGuNPOJU6bgTncMSIRIlkWeDzqzoT5friPRaQXZIYvZ6uzrBGrzklmAyVCpGueDge4mvpy+wHIo1FZ5KEYs8hWYrZXVm+CAXYgLQc7R4OGxEVqy++jgVSRyaJ133K8BSypWKImel4ivL0vEZJLHS49UMPBVVWU4vvnEyBdAETqLWNAs7Brbp6y1d/73WVUYyj4Is1YT1g+AhIFQDLQZrsYkoHEZ6gozLJ3ZCU7b4g6YKI2mGGL/CXCfHSsuIbkkn6vM0D0Ee9LkNw+lliUHt8Ppql1Nak2yn0EBLbuWwluFTFvb6HqlpTxsrxevBOuqybecHwEZLXuWyluL0AqLkXtwUMpqzllrwxoqSUG1hD/vYuMGAGQk+zNaAXoxKHxr6cbRjUX0+WZo2Mu9L8qCSsiO6jIJBUAOTbsw2eRaHjIa277cVLLuuvTXLa4bs7sPRtTRbnzngMuA1IJgJx8nvRmzNDS1Fql5iLvk3EaF9Pu952rITYDUgiAlM57Z9sSax1QXIpUpVzNyMPm3bnOzNgik0gAJOdby2guciemgNen6Bfmqor7p5rcWX0GEgiAFO+2I0b7VmxBhr3OQ2/LrMahu0q4rl471po9z2py5+4zUBgBEAld6mwnBriuixSGH17I2XexkLp8zNGaPel7rD7XjzsTJBCKTDoBkBz/aq84XPp2PTE1rCHBXkJUqS/eH1L8NXu2tprcefoIkARACrK+adkPrrSnpsqRAC6+0aqpOwunWDXBNXtyeTWq68mdj09AEgGQLp8A1l8fb9nnQBTyNcDWpqlczmW7juiaPWkDq2SsJ3duo3GVtsRgBEA4GpwKyvZWg9j1zZj18bxRVNtFc6R4YieoABeJaO/sRNnUJTWx/FVN7vzqTPmJNLMs215MG+gzfIh7H6d5+1ufgJoADHHNG9Vc2VEwHdEe2Z5YDCoKq3/nOjJ5FB/OZpa9wRcKJSR7UeszpPXd58G5VaeHuGbrxyDxqHL5ctqht5Mhqyh0VcU80QrSF5iNRQAE0wYiJxQE7+nXN77XZ2nr06saWrpoXiTic7KsecrF2toh3b+eTqqKwlFH7hx+Kl1REWMKaABEKVyXcn2rpq3P+uvjtBlkIE8TuNcs1juts7p/PR40FQUF3LmOaCW4T0dzo4OkI1GPLmoZ1mf+1je2CXLSFPUpTkAKOAhUCjurccXYfE5ANta7c335GT4PhO3YA7Ev23KuT636JK9vjvplxXbLMeBZDBDIhlurnLN8X1Yknas9uHM1+WWZ4Sg+7Sg3O5Q3tnCsb3iv7yaub5vHWHKZ9zYmjbsTn1Yfbjdhs+f2xpPNq9EhvHM1WZlYbqmwFZ/ulBvbAenFu6FErwa1ENfnzLHNU5fe8Sr/5ROV3i1izUWdnTlzQjesioIB71xR9BLGAsLURDY8mpcrlJs/Y9e3E9d34deXTuNpoXaV0A2x5oLOOu69iVotSkVhAe9cUfQSpgLC0No/fHYx7gZI3V/s69vnqU+glUvHtlRTbH18zcWcTXJMBdrlRqgodM67c0W5DKWEq+GSeG5mKDdPeYY2WNa38KwvlQt7GyVBHokGXmHAX8RZzmMqgNG5iqsoHP6dK8plKyOavQ2mdkrK8YI28UVV7PTXF9GXF3jroOIS5jUXUF/0TqWN26grdgwMpv+Kdz6sGl1VNq5ddeTm5ELdUPL1FYOV7fvcFxVbn9zbnWqH48KvuXz6oldK5TVl4D26a+7acufXVDTsgXRUb9QXXzRyRwuQbYT1cVbOIiLJ2VND3IWy5sJZJzJpwj3sDpBt/p1rykWXCncuo4TwqcfcTH50MarYKWJ9KQaNmaYkhyPRwD0Mc2XPnj9KX+gdIPNix5XFF/i5QJhtaqi+E6S8OfzCR1BBvRErHM3AQBUk2cPAEVhzIWePVkTRmEZ89VUUJauMIWTSRbPn4nnQjvWGqgAvOzOU4w0iS/n2AUsYlBRyVrN8K/HqXPl3riqXPl+QmXTxwxaAWpFhvdEcCvD53o7UuNwZSS0brurBCsAu6eOw+xP+navKpRC4cx3RbX1/JnE8aiCkiF0HKsALvo1se2ow2VNNfCheTaUza/i60mMSnaupjhLLpKO09f2ZJCmnKVGuDVSAz/pNVNRvhSsSMtqGizVnZL6PkwsC55rKrVWHa+t7CuOT+Ma2oAJ8xrfXi+rwxgJsN97k+JC5QtX8ksZog2slJZ5JB7UqOZWGqWCPku5bQAX4jN/Dmar07oA1c2da3Xkru8u9VlHseKxjtOj0ZtMVvXhvxghQXFBJFqVqLQN3AzxH8pq5ixT3rOsklnutfcRDOZYG2e2UvnldfeG+ISrAy2Rlzd1aqF8CC3u/eVIZXwe51/qHYf5dGxxEIlaWh/dmoinAn7ne2oaau3dGnpZhzS10uXL3cq81EOLvcJ0ZnZ3pYb7BvDQFmVkcJbKxClLM5DVHnkXJFBIuwdcqCMvv2uk18B2umDOZlKpe/i7zPG/oV7J6ga1EdTWW2xbIfqTm6J0Jyn3nXJXdpV63V53EnrFDFvEnA/IYztzyM3m54Y0J10covBvEQd6eseBBUSONQ4qoUZ+rsrs0hvBaCaH9rvOPgl9qDm4UOgG8y1RE7ByRmLzHSX1eOolqkcmyTmK511pI5HfoLLo7LSs3qKRkDyrAZ3iryYLIGgiRk4TzW4bK7oKv1RDc71794jWIpRAUOzNankxL/Lj2PHZGyLHbEfi2SJIKn7Jje8m91kNc/Het8hu7Sg7o19+1f5eu/7sMf5dx+rvcHs2NTUcOEhXgNcs7Q1aFMmEk+saKsBSmXrxF8LUeEu+1On7JqSxelq9B7H1eCzoyczCGBKjCmiMQ5HKuuVwrnQVf6yBmV+0LVeAgj5ObvxuiAnxmtyepsCKyGUyqZiRf8lIPFXytaxDs1+Jkc2Wys/NaiArwmd1O5MKCNVI+saR47Vmphwq+1joIXeG+94+4mlxmflqbiQL8wYGBdLDIa06XoXjncx0FXyseCOtCHUb7E/lsEzPw81rR2U1XYgV4dgtwkde48Kx5T5PQzqdOYsHXeoc9liFacnp4bSconsbxgo2DGSh+acRwcnDRTUuOWGeFCqRfdfWCr5WOqBhIqPt59E8OvAwvkRwypM/JoxAm3iLImbxmm1CTtctFPVTwtcpxblODMpSWEToBnaMpwOdxGyu9vdDBLNZZofLoV52t4Gt9w2wRKZAmONIombEkAPU6Ryj1O2Rzu5AVKmyDdCm5PPpVRvK1ruFJgaAE2jJkZAZ9o6FAR4vAsGztlhyD3CJB8pwsPM/i93Mj9VrRsEffIATaUh5jlNS0zOBvekC70/UCUDyKlfSy157irFBxTOHarRN5rVhgKhPGCbRlCC3L6zwOrfW+b9u6rvOslJpgeqICfB63riMLxh2RTbSJzTwk7X9Vedc6hokO4hVAoC1vNK+YaYN+rhZWgM/idqdrDEz0NRei1mIHDxtfWdcqBX0Qrwz+aLLKnzXJAOcd0IpMR2Jz+JyHlcL15C+BC+GsUKF+saw3fKw9BF1rFy4mm/tq2jaouC470oYUkZ6xc2ALMMc0CvDaFi50jm/NhfrF8u5CCYIGw3AfXmsTGN/O4qOuyevs98WgS6ALNOFuFiiPa058e7MwkCU4bBt3VqhUv1jjLb19TEmvd3CtUsTc1YiPuiZhNJywKXg772L/5qzzL/dtLei6BermgvLbLvm3B70C0B215uJIvMFBXr9ZWGAk+bVWYY+lx1WMLpA2OUcsOKSM058eOHrJCiWXoUAFePG3QPnjSl+zgET3JJwd2gmBCxYYSXutU7y1P1H9qaJQbPDUwNStT9zwOqUqwC+8m6+5eda8lqw7geuIR8iwwEhFvL7UrlpUJ4QoGArMQ+ITmTDNRFOAnxKGWpaFiZ4gnrDOCpVIXVTHvqN2WGCkGl5jn4xANrds9NxOpix+PhgmfDmgp3XIlS+LxTkv+ppDba8y/QL3/nQxgZEqdW3NX/hi7X3flzHneR6BoP7+FtR/+1jgC+tPI8Jh7C5wiKo4EKpdudk+trsfVClMOSeoAC/6VtHlfBcWZ4WkezAk/ESIC4wwX/fXf3HI1QiBoRBgv7aQnMzXVxsYVDM0BXipt7GRn2341pz4F5mBERipTdft4QTMpGMYDUCi6NOj2XvU1Opn7ymsjkCXUgG+47md6YWdO6IavEL9AhnGYwRGzNzUpOv0sAJKfBaWg/1T6G2PA5VltoFNhyD3O+tu6PH1gclZoQSa/4iUDMQJjNxrV42u7f0ZufxyxwR9annGJC8TK8B3joWVrvR+IpwVKtUvkHWO4gVGBo5rJVn2EekSeFpwvcGJmy2JFeDp2y8WPGs0KrZmAfRywXWjRJLASA269u4zMvqhXoJ/UDc3pABvG6Hv8kZ/ljfZWaFkavl09HjyesMDabv2XF/785FI1lohmAYnwN3MbHtskcbgWyyWtzOteZBRpi76Jv6i6QIjdefaukIyJGeiSH62b9eF+i4aHdmB4GoRpQDfcytXWnw4S3dWKJkmcsRzNhkERsaKc30tz4ekxz2lYd7Py0X2IH1s4FLmzg/MJCnAa6YYMF0yTsfWLINRNPEsRSaBkVpzfZlPyQtU7wQGkCy6foUhDKAOdGh2ggrwEv1q0ZDBD/qaEa56JCUdGRcLZBMYqTPX7vmYbBHneUbikZa/AlMePT6tOSZTgD+YNjGg9M605kXM16lQ+PMUVURgpMJcX/PnpLNBfhBwqjxI2vojR6o9thi4t9uFRuGcFSqaAO/IHHHWoMDIHF7rCToZR8kgS6je+oi2Pdy7Trx9R7TsmSXpQ/WgAry424kuUns3KGeFyiXAi7PgxCowElwrCpdollxhLGyxeo46gzvO+4X7+O80BXhp2fyGmOyEpfZWYV3frJeMSpCBOJtac22eYjJJ4KUsvGQf6eHJQdGIch30dHphNZsoSIOXvmZpu79yFwHkIH81S1tP6D8rr0474P6UjyYYFaXcbNDT2WVZGLgYUsQaVw1euQR4Y7XBpOtIPU5PtYTpcwINxVcX6GOzsGO/bqCc/573ZDdkmIOcgZ6hL6+xMlbxB9gjdUddupaujlQ18DGJNCzVzUNUp1zTFOAlvcV3Qy8bMojWQi7gHRchHXXJHdPPgTA+xUQsgByICvCCbheG3IeZZ83ZtP5xTdxRl8DA9V776iHu9rmxDETtMR40BXg5X1i2pYufWWDNYfUjJbzjlrgjaKmIqPWhmp8LbJ3hwLyY99jiYoo/MVj+3hDOCpXwjnvijqC1RfsE1L31NXhGieKk4uCwkhTKTFDaVUn5vrIdQ3lAT3MpOa1a8XTijqB1BNYlbeS8j1EtHvaVYCNhJSR8i32BikkBvmG63Rl2OOyIhMqjtK9UwSTuaGg3rq+g2X2oE4zfDdGI10lTgJdx63qitSj49Rk48C6fPsKRuqOhecXamLubuUZI9XaymYtPNFtswsZ2lrCVo2evlQqTHvxbzRCHNCKcFSJtcLGcUPdBTq9q2ij47nqsDz/u+2EniXj0CLNF96m3919JZJtzYEhuzjFnhcRxyiV1R7Zb4uYl75oh1XslQ39ObEvJ1NoJxQW30duihpb39mAQjbNt3FmhQt7RXtJKMBp11AvFK11M5jyJh1YGrQBPCkHMsS9sXwEjQ7nQhqgGryB3PK729m6tFXdfPzaOkbuBwxlcEDvr83YScrY4Ept93FmhktwRPg/9DF03yh2qGjzQfmoezpx4hc0SiKpV9e+2xD+vlH9lYlB6PxDOCgm8Y6EuI6H7h9YIxatOf2AOKjclkYXYkhuitKEb1fuY7tiUSTlNCGjhwPyUWf1OgaCXHFcJxSt1fx3gYiWUsoT7/bfG/oX8K8byoRiSmlckS09mqk6XCLIhuzqheNXu3w4Hjxiuu97t8Ys5EALt5Hi4OOo+WYhrLlmdxSJyMwmXWqF4NV7lY8map0fc0MtQwUFAsnMn5DpHWHOkGjyhqnZFgjr0KaqF4lWzua+GPUnEyRpfkLd3PNwNQxH3HluzVN2UUl1IKdd6oXg1GIGoz4FtU57QR7ie58LxuobwiQG1Kn3GB9LzJyuG4lWzuO+FZxFvyt+2DLHOM+askFTOAkHXu6gailf9+SVw0dKgr9bKthPb3PSYUeCskFT2EkG2J0dUvLr/8z9oth+Ulll9VgnXqHQdQ4ntjXFW6PM9kCk4JCpeuQogzHuwsRcdTYb6YjqJNzuHAO2CcFbooz7wafm3X9BKY20VEOYtFGvuPKPslGDPEIw5zJo/6wOnZPGBSiDM+52gwU+oE4fmKALQiGrwPuwDl2Q2HcZKUHHB9Y3w9JJvBg4T6wPCWaEP+0CdJPsZytusAcK83wibYAM+B1Q2QtiWSGeFPqm2qEmSWRNpnO8KIMz7yTFIbCs3sJk4gmcVcVZIttm9cplaw1NNjrJws7rPzcmQbzRIVeze8dwNvOZJeH2vpboMCeirw04q9mdZ2ArAJTYtqDiKNtbImoXbQCgSqVKrbYU43CizTc0kil0eXYJseCX05uKQC3Ydn7NCF7Yrq/dUdaMdtaH2z6PIaAa8l9An4AQPhryRGN9pLdeaPTNin3dVZwpuTIXOJZDMW1Sc2d8HxFUuz9hPc3gsS+VwNxyKTSPCWaEPvCqLII27XSWQzKsLiT23sPtqSCAzwVQOpXcDl3Y68QL2upym1tLUE1YFybyl4z7WsHsxlJZYknWmJ4ObO49M9bVYqFRfCE2V2PmxrVg4o8NOkJUhzomzIGYoyWCEs0IfeVVrsv9dlcK/IYNgyw4dw547NlHbqzEFYNnCvEU6niK+wqjuNZ5WxG3LEXytCGeFPvOqDhnKoqWQzBtlzZj7QPdv0MHvNa9LErpRMdQ1bP8eq/pG2Dn9YoOiouxr/ry2PK4ELEhR5zoobXUWgesvUdthe5fwHnjGw007vOsWpgefRoO9Z0DW4A12HUdkTMN6pC6HPChXLlNryZRF68VlsZmjZmQn/GjHRQfdfYGbdSPXJexugyvckDO0lmPlCQeBEdAjzUVb6CrXzZrmCBAsVWPPVI5scdhuEtFNQCITCSFT7ibXZHcdW+T4bwruy/I9h9K7gfJIw9nPKvCGGJZtrOmYeqAsStqZJmbGRPAUNfRAl+wlgc2Uo1efTkjNjiz5P9zRwwOKpzKs2YZbZ8rGM69iifFqhUvtVpuuZNFpXgZekD0jpad1+GU6fJlyt++AKCH4VKu/a9dLzDDAGo+iJBhXoCOH0rsN1wwed7BPLfD2PHA3Lua5+N9U1eMim0ihKS5rbA/SkQw0w7TQM+WsOTbK0RHuYMeqAFPakUw2+GiCYPZu/eLUf9wYilwveFDFSLd3UKz1Rvtx98g2Vr6rH9exTh3mseqljGNsscr5XbEft1MuCP/QqAKkIxB39X6Fjx4Sw/GJpcrQHlUVyyl85VOZIoJ7740IArYMPPCr56p2BOIfLTIq6J6bs1rNRV2PvUipWULhBCFXD+ONxsk3yDr6+bjxhQscSu8HslxgFy4JVKL7bx1mvDaEw+mOXJhiKxyBlhQq79+7b4KjWHHjnQlqCMEnjxOie+wWewgI0NFDpe9ESu/PFC1wzWLlXamm8D1SmZSBd3jKotWNDllkCmXP0UmWmm0gI0MM+Xp+chNxa27WX73G/XKYtgqm5pJd6FJON34++V1knwtCn36+rm3E4f9P7Soa9iTfNynX2wkqgsQbW/CphhbbIoVTUCTRz5r5V8MWz3i8dtVSyioWfAPI3J1k7rJNgSNOlC434meLDHWMy5PzJ90Xg+admpMGn4eH/4zRB67CgEUSA/Qr+CSFxPQr+kZoI+8xbgUfyTFbhvZ4hDLw4kNSlEFZtDKKWqUByJ6jibElBN9/PzvuWOAUZUYYlVa+vEisDTVZf9WMXL/aSYa218+ljsDUrUzRQ7bTrEP8v4eqWNw4S7UNLJBLJOWRLTwZErNAuI7CICIXF6T0wPOrhIMWrqfZLJo+kzoCa3Mjg0NUIi43ElEWrVNc+k+KDanrGR61VwYOtsiEAjN2SGYynI0EnxQmb7tFbiEXjzl+df39Ktno+Duox7a0E8tWsilCBp6NZ+BByqK16RijWGQ1KB3QeeSlYWcwaeuAmNMRiQX+hRNAbRwcnKFERmw36g6M8Ci0P3Lk3rkRP3LXaBRVAO34QNpV7F3JNCo3ElfA8kVd9ppEh1GR8pK0gUArO8xT7WrBZlIdvBwyHcQCezphXR3YVsSfoXESBGeRx5tWGfUr7uYLvuhJ9PmzaFcl7bTp6MH3Yryvy6MS4cweD2TgzDmZ2KWJjFZPOMdmD8X/+XhCjjDjBxS2jTVXtpRfjYjD43BvU0usQNh2H6SWAjFdar7HHGOIswJxvZsUiKC1no6TdeqGQhrYU0cFYwkBGkyPUHpfCJEY7MAeRB1sRdLTxIy2K03K1PsYyqIJOjw/q9zIVU3g61/CDaQiJRm3QlMznHujw80EplU7KgPMHs/Gbm/u/PJm2jC/2gi/ahlHAZBg6YexOFOpM/BstcEea/TISDbNCIxYfeG4rUFVF++/nhFOmi5+UMVJ50Cld8o+wAYFgLzCIGabWgHDgfNuZRo7zraKKAaFsVStj1ZNoBl4bKdFm/CgfIjBUKzWgFMXVCwXy6hTfpqXnTW0pArbEMJP8P/KrYDQH7agleOyfQ7d92OQ6jOAGaoJYPUBTdTcdhCWSQd15m6YTCRY6yxY7ug/7x3iYaGxcXXDlUmqgSkFayaoL/WicvLgYUKY2UPaHNHiAjt1QycSi2pC0PnakcUMGeHA9vIaz3gcbYETguMDBIlMIJXeO0srDOQdILz3DI1S5Uiyl3NoXcoV58pwqhc7TI6PvqYc6oWpjSZq/Y+7YC7cB7BFdblsB0QFGgMnBL0ndvDRAoK6cF7Slvq07/FXOhKNrrSrjY4WxgZViGEoNyJ/7TLs/q+csH5T3VVETZRWl5N0blrHvh0OpITTBPv64+8y3cRAD6B8gSlW19/3lsRkgKCji0YSI79axwZX0JqRDK8t+tRrMNAwuq8sNCNQA0qeHF1k6GBEicQE4SidAWgYMHEhjJ1j+8wcwxxY94AoCz6ud6KshHdKX5nIvN1ZGbgV6JUOeLbqqCoANaBky9lFeiU1hkhMEC4NncNoT0sFpfTeO355elRID4ze8/gUyv4kT0Grnnt5lHvqNd0IiaGacpfcsHBI2YNTRHWa9fFVRuEiCT6OeCJSswk79JRBKX4p3h1/t8c8sBS0Xlp15cVKHH6zHSwVUj0ZoNDS9GD49JfKxhIX2wWKFFY2hrjS+8CYE7W1+GLUhqMVA1DG2pAFrRilLQ6FnnrNFjrBK9VP/kJL+CsfLI7EExPbjTyJm0jn48cBV/5mgsOU5qkbCjticnm8v+pwBa2oTlyVGvAtN9WfkFRI3SSanhtfEQ13BnylLB15Ej4dUXy1613ccje3eH0XDzLDYtSRzWo23gwI5RD8/FshfH6VFFg9SfR7DpIKqX6wT4HFkRTiod8Iy/D69ET6LS4de7CHFZMvuBKNrAzcTx+VkkUdIClMJVb5Hb73UVgDN0ACOjUUVKH/eyAUcBFRGfVTro6FwXruaac1cDF3iGLUPm0FAJDSAm5kkWMqsUrvZtfay9lTSvBbtpri/rLBIhrubAAqo7CMBwuIZtxOkjSFilHjpb+OF306jPm1BlfQunKmLyEiXe3XLJ0E1A2drh3qKZcX6EE5+GxgVEY3Nnyl98TGFCFFqrgoi+55V2P8rhmLypxDFbQuVYecDMtr2OAXds6tlB2iOWuAVEi005/Py7ruu9aHdzmDizHmuv2LOfdlypJbxUZCBxs4ldH2DhkYLFkcpHx5VmGRuCiL7tmPidQItlph3MUYhAEkQqDVCsdvIy8Lmy9QTVLPWmvDyUPK72KgrImuO6h9XRJcCktQcSQbaJXRGYDBksUkwXC/7uKiLMeQ4IXoSI4hpryBraA1DVDjT9ruU2rF0KMOKIZ2UJtOlgn4+x4qjmQErTLaXHwYAbfnEBdlOcckr8R1VDVV+1feIKqg9REOepD13tuQooF76oJUyHikKtHLBli0HCqOZAWvMqr4UMlv3RIXZTFTqkzABZcqxhShrs02wMoiVmQwG5kD4Ml0IGUR61QZpELW5ykgdo1NMUNQGT19RjJXA8U/rpQdDUhd6MqmTtb3Gp9JitEZJQRa+5x4veIFEoxFrJ2uDFIhc8J6fjLCba+Ihjs7KJXRiFrBRGbhf5NwpkaUiVr9TnUzvFtVlFFpYS3QGlp5cgbE34AdLpA4VFtjpEJGl1BgSSAsU+9mAOOHojJ6UT3P9l+jBW8TiExcA6rShPjFcLLRbqxFKS0EBVqRAdaUF8gCCU0vAe6P2nB2F2vvp3S4vYlpuKcApzIaqbyYWqK4pmwRoFsBpb+0qj9m1mCZ6Ijy/PbHgyOQ7LgKWlVeLAck7D4Sm1CrNkiFvPakFWRkgYM7uNT4F+SnAakyGsnCo+E62i1LqcmAbyGpRK+np/1nuRovJcujtNBzFLQu0tkL8BueItaxQpjtHp7Codv4xysNSJVROFK80GY0S7iCjs6iRFna9KVAC7FsYAadV8DF+yid+AJ1kOz3vNgMSJilRymGglHvasCRlF0+R4sc4akJoKmMzqTal1qPMVVDoR0tsvRXYTeF496YB+UmljmHEXTDeRaDljA5xBOxc+5JulfT/V9PKiSh1k9sYiHLlY+WH6LKqK9vRXl+R6K4m+nRpb+ngK+zjpibFsu8ahXPr5oJW9BqsiYcGfkuUsTaQGa768Tg29HJgLPmN6GcpGyYSTtm0CqjEX0rQk7amKSZ0O4pUvrLMjtxMhMz+S6kgx0oCV+WgtYnL7YCEpgi1tlGpUJqwVqciM/BLgewcPfs6dGFMxWRoBOuKg+A4lHyxlfyMNNKf+f0RjOOaAQVlYrm+xX5hD+RGYEBiX0cToxUSC2Q3C0Kl0XVpDKphjKwzRmgxoaPSAkrBu91Tfz5am4Dqh9GotOrhFiu3e1EVqGHUlpAeRZTFKCT8Ab266oycCRmFgZYk0pMCTAc0ejI4ohk9A6MQO3Y0GeKPp2dTZGKVGmC3yYu6RWZRiCMJzjQTfwVWR3BPxEgZEhkQAKSCqkO3IlRwsAo/E0Xx246D9qyE5FzQ8nw4j1K7nluz45WaQJRM/XkzitdOLY2/q2aD0vx1g/sAgAFARyzj5Fs0epA/2REkinzcO1d4HQ6MnSV0RX24x3vUbLm22rqIoeC6TMcTnKSe2BJNPIoLTTLaQsCMFSvfY55qBCo1EzyMBPCXDfT3gU2syHGj0gqo4gwNRZsLqxfOVZxja+385Vc5M211FikZks1/v2KQcK3369siA9ILBWCpTAYwj0i9moG/PFdpST3GFRGZ9DRPLRHyZrJlNpkeELB9Bmoivyfhq2cEa+HNcbTlofNEvpX4FYjdkosNYMsromv7oELndztteUCVZBqIEfzIh4lMyqh7Q1n9cNT2jg6sDn6dB7zMcjuXsiomCsJfa3Y24q9BGDU/aaTq3UIWLLvLrTaDaYgdYRkeLEeJR9Ejo63+uE1rfAhtLEEeMzX9qNatv0wdwyDjkHudzFoPZ/n6xM9K5xTqVuHoJkvDl8FIt5YxWV4kR4ljwwSLb1mlb9N/+CWLE28MIWdrNsFPDfO5AXNnOdZn+ikcM+sg26RZad22z8bEEzHz2X2VUajdRfAHiXzhHD3xF+XuhWQharIieILF3auf2EnfBxnkhRhDON7Vxkv8YSN+EF9WhwkpXRi7NxwT52OI7nbH1EbEDSVUViGF630PpE2G8XOOL8ER8fIRq8QRQVh5+yHnaw7t20OSpV07TUBO0QnnKr511Q2p+aVEtAoLP89+jYu1nDgkrtTVGOaojL6DtTiPsL7HiUz3LqtCTzfYwavFGTk/OK5T/6wc30PCqWWrrwydUHQfLu8MZVi51GmxDgB2LVJsZ4h0KFgaJSQ5q8UMPKX8Cqj0Z3qwXiUPBFMqQV2xtnRAjIdWrwZlvRhJzb67OXz6asIDwNzWCsEbWIsL3iPGCEHy5IQVVdQDcoGROwvYVVGYUcgofiWIsfWTB9ouCfgEiBOPb3Dtj1x2MkXeJ7QkTgqCLpWtPjBlZY7MW6PTHEyxjRc4/tSTzQO7fSEVBmN6CcgPEpWWEUqXyk00aVL/4v7slLDzlc7TF7gCQ9KOPnU0agT6nxxe4eZsmwRImLYZdYBVcca6jBUgWpVa0Q/AeFRMt4mDmKKM1KXgadA7uYNO1/dML2z4iJHsK1YALIxY21SFjUp0eAUmGhMCUJLnvyX4iqj8E71hB4l4wpqQNur6pIYgmCNZ7DH/xYv7GQLPBHlCcWikjRgROvyRPfI9extOni05Ic99pdiKqPgFjyjHiU3F65aqylx/oDGk0XY2YRyI7B1yMyRznxAVbIbeabiiEylQPElBc+lp/4lWGUULJGYXUQ/aUaZUkvcItJx0dPGj5y9s8nShZ2c5Qlw4FlylG/KozLNHpxAjuGdA1zwkA62ize85Yl/KSq3uzEcV6Jr8B3dTs3tJzC9rH7WcM3Z+4LGh1Ky8oTPwFgtegR4c2cCdioVM0dGPU1dYdht5C9FVEZbizni1HGl1kGGdVj+sPPYF852Ug5imQKz4q6jHAyBKY+6pF+lIwllVkNqflAkAlYtedJf2kGV0SWeqdbamCm1PmkVvsxBpzmh4/xXivIE27dGPvUziI6dzYdrgqcyIXbiPqA6pbBHyhsGzNeM2xuk1+7SZDo2Lx+OM1b/VnbKJhU7vruljCgepbColqDI8aoSly0hOy+XgptXOi0LJ9ZFPrZ/yV1KhUQOdpD2gG5BU2qdziDs5CxPWHV2gh1LAq+9yAGVl/UsE1Wmmy2EfyojNK4JtpB/CfpUnhFRqg0ypdbuLvOw89V640XPXDZT6bQD48xQ1iHqXTHaYyPh6fto5eOa4am88Jvw4oqrK2D/kgJyt020GpR7epvrkBR2so/pNa/cNfsy0avBtlZVtol+Uw0sE6H+TzwtXNxzA05JYGUF6rXDCHUF8C/FQgoNCobugSJVs7mUQcH76MpP3GFn47XFqLmtK0dDhHpWy98RZ7jl+TIMUaehrRoHciE+HB+SwdOEbb78fnbspCbY+kvuxg+44xrEBIHUU+98U2oze5TM/kmlQR961vKEaT2iYWcxGP3ime39UDmbRfuDydSRNsHsmZ0ImDmwkSkpbMxQm9BzgA5nOaQyui3ArafVOmhGoY5jm8Gwk1lPIIWyU15rCAuX+7K0yu8dazDM6pOFp+jYtQUPa64cdk42jib0/EvuAn8pSBS3YdDfX2/PeHaWaAr+qKYQaz5JpSeQ7xoCgwBB1RYFWaBVpXh4fMBRSMBt8FSmrGxN6NmEfykWy/Dz2XZim7FyxwHbUKPKFvbEcAJKAu7+6VQj+wui5X0rxCWFi2ETDbd3YMGDLDQr6NAsLjdCDAonRKhy6hVoUGnZRswKsgb422R4b8ic0uO8Vg7qRxbefFgWkIpSHZhXlzELwp4FMmnpqHFkGz0O35x6AggjZoVmAio4BezPTYXYli7e8r514sLYE4YHAroHO9NAEegGimUxDsEpfflam4nLEygp5beG0TRcBWP1e7JLrFxnKQJX+/c1jzkWDHUkC4+Xw5uKGL12RhIH68NYomUcFd+KrZzkhAtfp5IN0mCE0K4X+9Kl2CKN0nc0A6+tF6sl98XQPgTb7GNw3UpqzYgkkmlxc6o5GDHDOBZTsGNF0QChPLRIoBSv+AMXrQ7eVYsMPPre2ncozmCqidV6OYnilIC731Z/YNG07MoTEHZ1TLnW0Pv7cYDZYr0tQOo7IveDqXenkmThHS5eDnnFDan5ipUl4jZ+/hgkT5DYiJksbLFQyGyMqRAHV2xGyP1gMvCqShZekNtkIj47hp5ilARr3l3tRo2RgdJbhMpJDsntDScrqEeoHwAVOGzZM+LkfhAHVaaS/Kr9u/hTEauQoXdl6UBNJZ31jqnT2IOBZ2kqJzlLyIX3rvR4FUGKt+drS+TqccE1BqGCnolYGAPPfYEz4wpWOclZwBnbkXoAQQmkeBv8p2GrNBl4wwF7hha6V5wWbVzUy4xDaTLtu98niNdlxsQRcVXRZcqFpBCpyJUSwo55S/He7I3yXk+m7NwApxGI1Gjkf5CZce8mzLzRK3hrRk1F0BMw5TtQYSvNGd0zmpuX+dcQm0pw1RAW0aAhNeA0ApGaKH0x5wWecGYcquc1i7HnZTJCl0tul1DeM+e/vTRH7musSOKsIVP2byo8jUAQkeK5CkNmXENwGpZd2clLxK0ZsZTIfEfrL6NKwjUmU7gcgAdNuleKCvQAAZCIITX/NAJBJg8JtWY6wiVSrNZuGVAw5So30F1rNk3uUrzk/RrDyPZulWJqA6YCQ2qKZ9fG0mbG8Q1p3gQ6CeTk8mvPiMYVh5mjvQXWnL8A+B0XmqvFgeFsVwsZUuPsnyncmXHRWzCbNlSWndfpwQ2+/iWrV+8of2fK+SrWHWFXjnhKXLNl4ALaNlMdmdpdFplxqCNctxFLRL1y076N1Y6JjTqSDv2mzomlFMQq05qZnt2RKw0re4U4Pk8R/2N1D0wldiQgvthmOy77eVEFOxx1CKK3E67H+TnjjSvQnOlLpPD+GiyHLY1cjXqwOswNhfRtZZiabwFTFkjHCsqdvyOBVlBL7vbzfuFHqfHY5gDKtYurGIA+NxuefLN8q8gzvLy3oKsNUxhDao45M27qmwR655tm75hdR8trshy94eyp/aGFe2TFWhL2IMeSUYpkzpIjTlXxPUFdqINyMLNlxuVVT9zRhIznZTb6qyTWQ3wdV1Z0rhyYBiwov5mKKvYsw3p+R4fOGjF1jvRspnfd2OvMUMESuMjm2UMNi+M0R+on90LLMikk2B50AccYrvTwmSELr7h5JZDexRhSi4ZB6My4LKpY4qnw/U9cjonbHzDVeUZryiTBO4EBo+1vDmsfuRr1ULwfnYrg8+h0UtqVff0LPHcvMy6N6wRHzB8aH0PrC528h3t8RiBS4GcBAEOblcclQTDtOLnsGCuL9C5gNg15pmUpnhUzu49Md9xC0/buGMDDbLefNpPwqkw3ZwMqVWkeA3BLrgJ7XYWR3h0O3FTZah3n60tcbdtGe2KPU/N7hET04LEDNC67TKejBNwdqFR1tTy4Ic88R/eqD9K7rGcpG9FZcbc5pAYfDt8N/Nr9bfg5vlUirbcO78m1XGZMNDXLrxt3X+Y8dBA/dmMQoANPwvKUwGYpxXulkN6tCIbUeLPiuPdUqWtkp48u3Kq768/0N2mTKMBzocFLi74Pw53LJQ99ySHUtF6o6dkEnsYBKqVZ4JjqDD0JttzHDI16nAl2u7MeGFITlRV3B3aGhNr/YWuT2YNl85y7akOAvlKaRR76ITDOB4eaPaWMeXRwYxA5KKDi3YQqK3ZGgqjtVQsMqQnLipvwWSrygo9lSN9Sak73PnCduPIrQGqNjEBzA0JNxv9pQR4dqFR1d9Q9LcW1xMKWldHIBNK7dcCQWjwrLrlgRxtFcOb12qBCfy8GazlDpT1e8Ik43+UIfA86xh8Lh5lqGvq2Sak6d8JlCXvwjefBF0fLUIrXbCN3c2/897c9tHXy6rq8XlhkH+2NbgiO/b4UOY7hkl4k2CLeBOcHmId+14IVBJldK3KfFmY4qaq95kvfNWMGpHQpXsJ+LVcN6d3YDpWfEqXTDuGgwh8R7hqviHBO/lgUGaa/yzAM/V9omUUxYNvPQTRr10e6L8y7C/P+cnT5sV5I7zaLlS+xKnNxfttqFVwkmEWY2Q1+s/H7YeZ1W3HfkHOWEsfLUCmkd3vuSJd5i0nNLsE904ZLR36RggkpWUHFkcXXYtcPf2HmvEBhpuTLLPs7Me4fwrRfiB2MrBHSu4ZQVOeAE0nLvl2RfJqJlb6s/S2D1OBuq3QJh2E35jbm1Pvb91vmMNPPaDveiVWbowEQqVXkxd3gg8q34369VAfp3Q1rKa3rLrBQfo1+cBbOzwBbvyUqUeVwInMZF0okBtXPETAZbWBitRS7pXK+RK4A4RJCvIL1eLuk1AXp3TGwWRuVsW0NGI+ZEVo1Or0d5qGA56UcTAN5izassyP99p+a8nWNoEWeCj/dYZfAidH406sILSXUIG3WtmfQNpaIz8jOmayhGe5rsmeidy4XKzJd3lMKADk6WcNYuMjzIjObjvTlv12IyGPN2OnO5gjMZaNq11CM+65IFDm6cgc61LCGsfK1S2R9bvRY1Vy8bAHTyJH44Xd2r19OhNxItdjDaw0Ot8zeIfOdB5c6XXfkTkMcn8LYZvZZJLsRNRAip+Urg97Cd+8Slk1Hv2Bby+ovJglL71YDdnC4ZbYWXz0HA8Qy+jV3WnLDyD5u9pt0VlSu2ZmEpxHo6JBAdf7kRj34/duj7rvatY2A9G4tYAN7xk5zE/LhtiTBVUGyoEZUHy5k0LW+UxIkulK8C1m7ocZ+VNSVgGy6BHv4RJAb8T4TUyVggUf6+0UqRzsSrKskPnwqVLGLduRnd6aEHEuZON64u4Blz1v6bDpJ3fjAVYR2X5qDnDlSwOEmviOjY8TVS8du88KzNjard6c6wOUlMtxBC2OkoBjeuKZksjRKQD7sleSQdlJ9564HuxCrHvCIwmh6fZA0yGX0WmyQOcZtXvS7ZSwaGW/arBFT7MFauqGLKCBoO0CKV2A2XdIMPFsFrpMD7dZvdKOBY9JsqjlpkLnvK5+5nkHH93TA0kp6p5hKgqzFF63Qh0GBQRVvF2IDjznyyKajNd4onCKpArXhOTARu3B8cuaU9WU3J6ORRKXSWK9hgSj/9BNkaAyk+TZ53haJg5AwzsblUTG5kXPOuyvcxeTfrK4B9xwsmAJUPHJOe8r6stszfZAZb+sp9d6dYN+Axf0erX/n6eLmBpnZoynR1KwRuOKbrimkJSfbM20eyfvA2ceaTsZWAuff+xv8jh9leEhB/Kh06e27vkPOZd3feuCOxdIQP0t8XYLv2RHumcu67H0bP99zW5c0BQlnA4/jdrau6SZ2ye0tqQjXhSv7xY1kjXCuMvpkO+v0NjrO3PkVUrBK0xV1TZJ1bcLW5aLGP+w5DX3fNiIEqydScE/s2mkCPixrfEk1cCQ5NEXEpwt6dxxS6K2cbfKgX/qJ+lhGIsboS7fpTeAmeeSUKL/QIqo4GIO498mSo7olIt1fuOP9QeSV8rh93HsF2IlrhCkizqPSZBqsURpyGT1/E0yparACe3VBKkx0I5yiq3M7GNojf6SGm5svHDMNQ0+p44CNXfg/54XvrSsJlmwVYQnFFBHvoYPU9Kz5K1Hgier64da8knF0pMAlVUCTQjPjpKWw08hC3BlwMDzBdlqQ+wZz8Z7Cpcbtwu1cf4UwRcQsp7qQJXHPHAPPSETh77OVDJcq5ZcqvT8Q3le21635sCxo4Yxgj0KCo8FwtzdJuaROmCJ6HQn8q0v38W6HSfJOuJ7dKwXIeJY3IHIl/2bmsINyEFlLgibTc3Q+Snfuc09Zst+xJXDFKtXBFBEhlUPWsroTKCNMmxbvrdXevCjMZDaMZJ5kaTdNMMzG9kgli0M4iP8MvdpPx1fcOkWXrNEltcEUUQoBgauliZNsxKAjg4pFk6JiB4hPAkOS3+gXm+L7UBw4C6VAa8QOe5oK6/Am1cx7Sc243n0asa6DZkRyoXCJZ3klZoJSYlr+Dq0OHJG9gRzVksWZmJ38tUtsODVNKG79W2JjS/pXtbhoOL06yToWiTPlM+PymMYGEzwMUM+8lpLiJrFwHDaemRxGlwT9JC77bccFedfYkqqxk+mDgU0RjS6d3rNmzksaMnZBrLl46KJjek32Wk+OUoudGjMXhkn+j4RN1MaLW2vIkmisx40Jfep0I6GOvJGAyvXkn9FOm3148J6ipIT43SRpfO+FL2jbSwnLHgbQi1vPpXI0sNd4ceyuM5+WVXezqopuwmudbGntOcSDO295sdQU3yg9X5bALIxbNhu7Juj7rlxLKkOn5z/TVhxgGnQCuSNwCGdX7+Q16kSvwYHYGl5oWab47C3GrTGVlCVNNowG2nGsbqBuRF6KS2wRUXGW9N15OfDaY1wRnTLjIio8EUtReEq5O2FY2ajqcogEIs+JaFRA6IQdm1xHySqUUTPBdVvSR34jNIr0/e6WuaxIl90dSUJsXGGTfQnjkc2UhrWGMNuHG6Zv++jnW+Yj77A9cCCHRbE7wDMErYfMnc4aVpGJ7g4FPdy5GUsFjDAa4QwJGetGA3qd8TRhcuyA4pb4SJTUJqBLHZXmWKOHJtFynew42imJ5+9JixEvjlR6S07PC6MVTsdCfemnnM1i0UnCpNlS7Ru+6MoakERWmNE09gHf/1pX5l4pPGpRC2ivdWB5shM5W18YvXCaRJrMlYPBEHKVkoYVPS9aWmqRbO/tWvvAKwY3MR+iZEZSJkJXlvmNHEoLY0iNJmcvJqRWCO2i2zB7kclJ4EwR6+RIzl20Xbib0py6PfrViGBONM/5LnXCGGX/c9WgI40V1Dj/WSYH5ePMz3JFYgbk1Fl8XDMl9WWnXy85mgjMScqJ8Zj93C9hTLI5U9JWCmZaiWgnDU3I5k9QYDv6H0KmeeTo6p5TChkM252WJc28bRjLa05pKNkciTiqBrSPQZ8NQ4JkouaI1B3xkCgy9s3HxJ6GTdoJvX0Z0jyfvpI0ZtmL9zpzlP4k5+n9zKxBGjselUCzwALHWZk14WxAGpt6/yia2aT7faJHc2puzNJYZLMm4qwwBI0SlQ0L99qa18iRQup5mulMJRYS3Gwap2VpbIR5zij0KI1VNktCbGXBTw9O0tik2PGYgic6E1FkRhEd6LJRVwpZtzSP1qzhWiONLTUHEZUIUzNYsfjBi5LGKsSOxxkGNx3/BjWYpNIhoET6YITjdY48ga8hx5lf0thlMybkrjLM6WFL0hjmTyjTmLZXls7gBDSMWwLTuLYnslPnmYqFtDi0bIZEXDWDDUvgalQ23Ly/D2OrK4lWs4QwW9Jso2h1n477T/Bv/511fhHHIZsODcfbY2oFexl4WFnDjTVFoVdZt8Rz/xsj54fp8PBwlOBOPPP0XMJJHGdqThrulQhbbdikMeOTifyvxxAdmWo2tooKehv+CLkD17KU1RRzFXK34rhEc6fkrCu4zBjZ51tiDKs/+Xa27jU5UQ1L2R50FPmJOybZXfo9xXGLxqTC1Qw0jT0XFCv6HezSwj7gpC8W35QT7hULOzEy9akrdppp5Y58XjRqebjUGO5EP+eIM6gy6FyYWZnJx592DZs7IhajXdeR9pJPTrsQbOW4rD0unR6BunnfokUczSManSo/oWpwYICEI49cWFkZiGYD2wNoU5eFK/6hHOCjlZS/QcifwobULJIfG2+BwCCOLj3iVEXDPA5d3eg42Vlp3mEJ/p79BR7A5Wh+GfnHLXLso6PNuzGEbytLyDgwlHI04hiSc0lUFe0qDLcEt6zbN1xBmebkpsk7jUG1A15w3fHldk9WTk/LQzdEJJuBypsln15ziKCIY0zGcgSD9r3K3bQktYIzcxK8vBPIs2FIr958ejy9Ededr7oryXViiTp1js4mDyUbVaOgiRmY9DgmDCea8jFao6UJOvqMWUQ7dCtHZY105Y8a97yZm5M8ZtmMHODT3VudwzJxc7KH8acFnfGnG3R8xlLTpeIWDhZx/mVKJux2Mh+b7FYea3IsjWXs0rHWCgwtn+iSxozGcbKi19VoRIqwsTG4qmo4ejk+OnOfsZQWQr4WbwzNvNKyothk47VGQzAurdkAvkZrIclFqpYwxBmjgRaq7uE9BoObM+I6KteC9QWXPaHvOoiLgU0gWjhw1DkYIgiViagfVhJJLlI1A5Vvo652Isg2sHzypgvqqMzpL7DnRgcTGgVU1MLYevsCOZKRUJnBXgeyRWGi23+uD9BCyiMvena8+FuHud4DNQg4Oz5zHJeS8mdvTtWtEQ24BQwDrhWISc5DuPClfmsSNhMGXoDqHTHXnh40EbLjMAd93ihZu+xCPMoDDS28sg3v7ZlAiZyBSzCpUr+Abl1dQefFlAjMFZVy5AXRWy+F/BDCpyY8RD2KVr6gmeNni0RsJjhzmJst9Vs5sNLh+ZQr3rtg0PDpW4u4N3Xn1saYd/8Ch27LDZ4gTET8oL5AYl3C/6TZ6JiY351BIM2TmpYxq25tvSE3wzGCo533vKZqAa1kzmXCzMqKcI1iC6aZXtIeCeKA3chs0M3a5/TAXqMUeof33AiOfLMTG/htyLqNeW/vl0D6LEC0VWfL0KiI1gy1AldatrjjOgt4ZSkQvPYZAn/212rXm3+/H8KDrTWgV3Z34FA7w4btPYqd+VZLZJQA8wSyyTdv3JvVVgrQmT95sbCyR1ekyGYyupvyAewpZ7OuZrloLSBI2X4bXjHhpHimZluCLIZmLtlUElHJ6VJ1HHD0QAKPeDk4VxgeaawSOGI+bI6ObvRnsKhMH2vPaKrSHsT+UnjvqmOgR9vUnthKDiac8C5rcGYbiczpgBLJ/BO0N9jL1juqRDdzpCZCZqFsWFZWzDvYBWJAPdHXPVpz19/r+tIYtSRau5XcB32/Rk4otjrxbtiLIoyxsho7OV4SWcWR+hCxxI8H+d7VEpRQdiwbr/ATIL4J1WgXSe1wRmyi2leIKAbokTLbCRVrDYOiycRK/A6uQGeh3HFnYRbJLgGREw3Ut5krCZNkUn9UHWyYRocffvKPQ7K+msjkOaJ7oqWLfcR7AkMg7qHixQGdpcfnCHv6PjPmfblWJEc6ICO6Qic6XSke1NNoxKGTE5SktkHIs/Al7Sa0UF8T27d2TWoUJK67W9/YeGvjGWhbwt7gZsK7sMyLxEhAwARDj4CtHQA5T22RmAINijtYg+GJCw14nYuVLxwaluPmuPsRbBgdL95syDcbJdAZ+VQ2lExuCSSd4HtQ/cBTOx5HCQhsGOk5THn5QePdcymhn8gParTxTBSr86KHaii/UF6KnvXGNoSSBh3GOBkeLZLmSc7ff93EE9XlQc1EGx41RWILQqvHPMw6NituFWZeuFUtI8PeHCPKMAa/aBGiIh1X8YGirHgjo18i6dIzPY/siemqEQ/qZm0z4RTBEYlqrOnPwwC3Y9cc79YbcZowiewQog2zunrejWsoZrs3rhBtksmYI5j+B0Z+UJ0Y+yzDcroMMCK44Bywk/tEWcBlCIP57tfc4iTeNkhegyM8ifRXZFICmMjdyESJQMRERXlQ9PxFJZ0rMaCauk41Urimi0z0aKu3JG9sUeexojD4DFfKbLBMU6q8m3lCpO0lkyU96nmETDA/qDKkdyVzy2CEPpxTghzK1TFlew2TiRtmo+lenQqORe3hL5hDJNcR3gTDU7rZC2UTQQ4TzerQD6oRvdT9tIKwMpgBsYM9kasHtA/rGNZ7jA+b4h06K26SrQ9T3gZ2aZGpNZxWSi7ZxKHodL6EokWQx0RfNfRH52hnSFSHk8Ijgz3MvrraVFvV0fzYiyU0e87zWJHbh2BD2zA6pZjF+m6Kce+DY6d5lFROEYiaqDQPWhCpp24+hdCK4AzDefbvf6b2JDmn4f01EmeYJnSHVprAKPS7fPUMnq3CZKMNXOK3MyUFe5DCYKnc6ZmfR9gE14PqBkDL/0mgE4FrOpvcOYrREkPpI0oXFM0cLb044pr3d3gYpna5FJVYjHtvdHGN9SWU5ikFcNy7ZXnQVDWA25ktOb0InkEL2LGK7iLRggnqmMbGzrEfPTYMjW4wixIfpDAa97YNNZLmOqn0hQBjyHigV5iju4pBtFWz0jIg2bnZws9p4h/8MZ+4ezjutcwtHJgctGKb2LM7/M1MURhlNu49U0tl9UsqkwAWuQfmY51a8oOqBfFnlZRJBlaGD5udwmevWxPb7CjQq44MLrXVN3yGVBhNYdzbUO88imUuAsShLDdQHnRNlYQ5KQrJliTvppfq4TYqANM9C/Ge2WDUhEoU92zGvSnB0oFOmItlKxjQIINFRA/VDTyoev0zI1lTsEoRVmbqZIn7zuhdOyjTe+OCtyOhce+DVio7yUWnZGH6C8RHDxvYKQjoQZWLheF1Sh4pdEJeMkM8Y9SOJK6sEhr3fnqKipZ5ycUUin09bmSr73WIXVq4pvrBmpRNDILsBO7pXjBX5t0Wr2fvTmjce6NkMSjB2EIx+01ZaBy2EUXjD6odbEnZkcwJEjUvORgK1Nwxtsw7G51YExr3ti2+Taqul1zap1Ao4tkryPnRwxZ40NrUDfakHFJQ7MhoSz5mydBmvrAV8HYuoXHvGZ+NpgQzSmAXCfzWo08zOvdf9HCAHlQ10MzwRKoUf1AmScs/SVku22dSGXAC/a4x21S70KWy10swc6kIpELoI97dmcPWgbGGtQrGIJlSxAoyuSdhD8m67TYcJ5qW6UQdkuIpoXHvZ8LeWUlmKxU9unicNFZi3dpUC46k3Ni4WdrbvudEiqGKOzj0TBfPBMKNyCuhce8DGcKal2QOCWiRkAoVKIeL65pqBScv98NiaG1I+/s9aVsFdk8iVlBOhXHiHLgioiMl677HqWgp0dylAvr2Yh5K5ddYJzDM8HwCurRruXnrHReSJ2UO2NAS58Te+tYjExr33lHpxvMlmebJGEDXiHtU+/26pT6BjL81KUTO+vAbHmw0nCHBak0qbgi2wgi4Wt09oXFv22K+dUbRDEWCqakj8AIkZ5XgTsvI8mHmKXPc/HGBFGnIjSNM7iICVcENUGiWvzzD3n+FXU/YxQigP4Qc3fvVJjTuvSBCf/0SzSyCgx9G2ybxAiS6PqGQ3KxsUEZ+HwYpnS+7FqmC3JDOlV+SYizHHkY2mtvrhS4DeUDP/W0Lk9C49xW/s+tls5cDfKELb/TQ0zCuEti0zEgufumAIQxUOuhzpSLf+z1HomaUkX8Uho3NQY159NDek80pjXur6Fu/vYSxxThLAn9SFb0PBFWCJy1rQMLP6wFtmTX8dGxQHEZFtt2GRmA3WjAG0j6gN8LErWxC495nTA7tbqWxR78wRXBK5EgAsMNFNYKGjxeOHcnBv+YzsvvWExS1bIF5egVQ3SnW8BdHE5kgwm9OD7qHyJ3nl2z6p1ToBAB7KFMjaLlh+gjsnNnPDWAM9gZCyxYIWs5IEGAIudLrHgyWk9zK+5CPT+NB9xkomQlHfRZOr/WXagR9Yk4kG/u9p/DT1IK/iaShF0qKegj6apZceM5NOGzGvQlPafJvpbMViz0N93/5BnnZJHMlV9kcXhGpkAkKWreIFulJqOBlSxY6ztMpgVfQXWpTGvdewOw0LZ1DBkYia3VpI4mdxsANUyCj+LjAQLIP46/qFUnuQqlg5M66Jis5Hb29tnBsMOQVJjTufYERd9cKxxaLhQnUl/9WJRjZ4dGumrgjBI0Lw5MjJu12RcLlXZSI2xo6Q8oBUx5CSuPeCsw5XWQzPMViTsLkratKMKWEUMg5MM7HfvO6gcjfGKb6osIiUuTrTQMYuD3p8cf1fVmmJgQTdRvvGMzOcJxgxPiSzSyESyIq3bqmKoFKzYQUneCeX8Kv+M4LcsDnEmLCJKCYw1E3wYHgydcbZ7zoqtJpOiJJTylqHsCgeBLNLoRbpBHcdB+lvkowc8OVQrFcbGBKdYjdU0NlDpRG39uTy7/zd7yFa/kL3g+s7ZKExr13MKl8iMaUizEJh9etvGoUawzupNAIxvkaYC96Ys/lRWn0vdal/eAmGtRmBh3UXU9C496ugwcZuWDap1wMZPDv81UnWFKzI2GTvWigwn4DRAV74J4msuEmMb+HAsI0lSKh0U8i495wwYOvzC2YSQpWIn2y7XvUCdbUHEg0b4A0Ap94A5RgDpF7GqwNtFNIJlFnU4AL0RMa974bKJy7BbMVjDZd8+LUCbbUGJLMBFtMaQaeAxQVVKG8BBRFFHREs664jElqoGD/TmbcW4EJZSWXs2A0yda11An21NgXJZLEW8w4Al25DNZFgKONqKArFUtqDUrdLLcx29giCl2sTmXc+wSzGw6xtE4KGdr0pvy/VnUCzY4k+V37AjOrWqj7PMByvFFhEQGq3Ihs/sEm0GM4cDtS7D2ZXicy7v0MYAjbS2V6ysXND9CAKf/Z0bIZkHkqfKlFSGYXeCSQ4LOxIErOPc/oqPpjZ/4LvVE/qx/U60TGvTX4X2CTylYwLlYi/xObOsGRnOmPVNlpS7zbNu1esAw87zPkxsYdFgG6PD2+VWr3ecaPeziwmQsM+DMFwZZOY9zbdWBrdTdCMVJocBv0tGkxSTBe8yPXCc6kUDKCbxZGMOttB7/rI7l3kI6CnBlgfjqIgUZDiS/HJ+E2aj3TGPdewbBOyaR9pNBi47TtOG/H5TKy6f0Ot88qQasfdiQJvDWvaOHp5X/Xg7l34JNAZQwmjYSQx3XGEEn/0xtFNJYsN+TworWEGOPsBSsyUaLZoFj2lKSj8h3pGumxRjBeDztsn4KdM69mBT6lfsoWzr0Dn4Qc9nCnLjhEsJppUpanUDgietzcSYx7KzCE7UWiJcGQLmi5OyqfZgbKDVgrAuAhHhWAQbKwfHwiWszQdz2UexcJoOTMqBdHAvaODbphKojAvrMpjHsb8D3YRHILYOd9pgiN2rTz9O7HPd26KgJQd1lNAZfA28R1TyinDmhTZFBmJJJ8xLAmYvCy43gjKjMHsa020o17Uw+aiG0EMjxy4Fddbwa1UHsymR66hp3VW1dtQNlHAIRqfHpuQ4Q3VGUjFHLSO6yaSUTHkgSfIgwMxAuB5xTGvTW4LWeBLLLhUNcPyigo/S/QXn6nuVLj0PF9kNpqANA3xKQwJltVB5aOGcgUIPRcqLoIzZZQM1HRy/hw9vAv7FOEfgwskZzAuLfrhNz5wXIKIpE2AWMZBdCbrvTmdc7pllZ9VDUg+GsyoMRhDB0XaRlnWMQcaAGJuCqpkEOIPhINESGbKufytsKC7wR254SwZNjcCYx7r/DpLkIc3SOHIQqX3FnKMgrnjVmevzD1vStqseqjagLNX3aXIFbsa6VzRRorFkq6gCJwUVVSKdUhXf1GviJe4+nH1AgFNmaZ4vniQwLj3ncDbeVdHLNg0oZn3cqv13Z7PfNrmb11VQT68xGFxuYS0zliRhnCFt+OSLhhiiNEZEJdlojpke/bRew1sQei1WXRYXVP+ZKZoVSkbaVxyCWVsn7kvdn8Ps+RQPR3qwa8T3s+sjBIFNPHAIhMAdK7sXQt8HQy6pSSd4f9SrDEoS3smmGagjAlXMRv3NuA2WuzMBoriAnD7pPOMncDd6qVhTNMnf+Lg4wU/Ik+JUeII6MLHL+bgJyYiEQvpDaKSELLZcaLV4UpbuxFX3E97pHfuPczQt8/Rhjqkc2SkBuj+M4Zpo7VgEccT5fogQpO6QzAsYwAc/MpBk970X0/pmuxMdyWKffLgjl9/Ma9NXxuv5GFFo76Q87hEWANU7t6xZTogSMcwesAZQQwmw5WJfU+TKMKuorencX4mdK7J6Pwli0doY/tSPdUqIPCen7j3q6Dvle0FIJ54Uw+2ahINX0Qpr7qFUuiB3Zw1WZge6xHCiPaYfKe/5X12GMJeoHopqah88N6tTkCO/h28xv33qDg17WSUI8kFIbeJz8VqUrERQk52Ms8G1gZAbI7DykjlGn8xDjP+M5OMjZpwGxLfuPetoH+myyS0NJpPBJWOVz5MChODm1Rkgz7FYY9ygNt2qY84SnpBlpk+I17z1BQdQnBn5cMm1YATaegQnJjM5jZ8upvPyBux50z0Zmcm8IZ9kFJ6xIHOH7qkt+4t4HeimeSg3pEMeOjwelsP1ZHKErIFzUoAz5MPN3EOtCM9npjqYRHkvaF+EL1LqjjZGYES5XZjXs/E5Sfp+VwSOfwSVdHZ5VkTHJHE3pyjoj9RbuQNCpIaZMXKTSkI1c34OMvi+Jp6OfHwTsRd/Ab9z5gvxKk0Dnp7D7p6uisMgBRrksqc5I7Gn8AJSCjTZffqL6U409iEqNpB+hV41FQwvWGe2g/bYduZn7j3k8P+pUgheWRzuqR0JeqSkFUu2E3JZUtyR1P7KBe2NTQBvEFkt/6W+oQgdjqaCMO6LWPYX6jQre3zj2yNYDka6f6qHtLwQhjYVNyYjSWVj2g+HDn1GuWypnkjtHqhi7tj1CzFgo6SXGHPi2Gmql4dUR6UCYCvU+E4CLLb9zbNtAmmWQwPOKZPBJWalddWBzUSFNyudFpa85kZxvGEhpIrpNWz7ZOykjOyjyItL7KAdGSsFNUBStHMu49g34lyGCXz8BNrHzmqC20GizHEwhZb29n4dz9BG0IGBOM6F5JsuSx0qshMdjAaQbNZvf0VrFSlOAeTsDjinRhvxIk0FhprBGCZGrSg/JUWRiuWMJqEcv0SuWc1NK9BoADYA0ib8CzQQXREq7TkwgbjQkpZLwv9GImgXHvZ4LC3zU9+s9gpGxC1xtT7sxTXeHPoFouLFiBJvL9vYByiuAQ1eGd2ES0SsU5chTLnlTuaDHFEA0hb7hgdiUnGVEcsF8JAjjlc3lUDm9dSFMAGWUVi0aLm9OYYU/OQyyoRAh7qymlhoKj44mzHlgUGPpOMHfcEpjzihICEhj3fnrQr4T0DI84NuyXTuXw1oUz46wZYZKIDV8qyhmFoIGTbnC63m3E10dO2pBw8yiGHmd9AWnxBMa9dyjCeKZnlwfihejUNiPrB2BZX064BsnC0nPmh9g/iGIHVMCmkolwKa4+GKcRdDBHJKsJL4k7QyW/tBUPKGwL+pWQHJsBW2KbkfXkbhvyv/suE0rey8iRh7YoPC30adtjI0s+nZwbmwDwjs18nEi8BnTS78RjW8oTW0C/ElJjHoFgN1I69zaqiQIC5tO5CoZQMsYlnQCtCEcPAbV8ZrJbthKMDSvLMGJBhpemZXBJYyatGPYrITFWIBrxbqZVrVLV5LePRByNnVfnHt1N3zTw4g4QMPIwJ47kXHCUxJFYsTGYAWShnkiN9iZSTTC/ce9nAv1KSMyTA8EIHKtcNiMbi0UnxQbw3nEhsVucJcY+KuM2QCTPTl/5/LBVCCbvI4+g6RVyMC+oeOST37j3AfqVUB4Yxk10U6VsRu7Z4ZoEv5jeR8cDOZpZdhNleSW3SBGx89Ms1Fy/ERvJ7kB2vz81M7iioH34jXs/PehXQnHgHKJGfYsG8n6koui7Z8czJpB4m8nnnq33uA9TowrpbGoO/CGTp2oLQfGzJujOgPQSkJktz9J1lIyAHfQroTQcqQYQVP2xGXkhOQSzYNEs/nJzDNA18/dZPMRUQzxYlry9qClc7zUTqwS/DhM+g55PZWKl6HjZFrpzW1j40sCqttiMXLNDY5kp3AHGM20xKOmnPQjX8nU8XO11QfJ182sq4Ij4HJt3ohvTKKfgDwB+494L6FdCCTHQAFLhSwPr2mIzskd+ME/BXC9+dVEHhzUj0OpB+3HL5Gz9i5bkRMd7wIJ6Ge6gFcoLbQ2O37j3lcyvhEY+JzaG3yTobqPVxWbkmRtPm8DW2gDv1wSws5yA7PFty9bz8McWKQyj0eIxCYx7q1R+JbQZgP+WQo0NDoaooqoqVjyyY+Ir2j1U1yI8+jyA3WkCzUa27wFoU5AKPf1B1Tt6ktELXiZHo3UxEhj3PkG/EorIY7okI7LH1ZTZ1qEwklmxTPHgYQBylqYw/InU3DYAJrhAlcJuuPMMOW/je5x4B6V/wJaf8Rv4YD7W6JqUGB5AvxKKgiEUwvRJhnOJrSmGiY7cOPCCxLjANhLw7rDxCjeBzmeD+zjgcuEv6ucPGQrdd01EzGUls8U5WcJpksLoDvqVUEAIB1aKElXUQDcvqSYKViguyVh8aI6z3R8JcnoLSbI6BUSGDkh+xAoIHm7tXU56b/ZFajE2DxxyXtjMpguM56H2vCeBcW8LVT5zlZAkvfprDgPfeqJgheEWC0lsfsbVROIe2LYt0Pll9+CZNc5/WlDKd0iORmwEZMgFaqrGS0YVHEWcEAyxpH538umvUvxBglLKUyF5LHcW3BJU2FVpFKxm+czoBA3umflRpg7TVpRhQhJ6WouXtTMmZ+Nhg7SdTkR23BCCLeTcfBT7riKoIETBRWRBvxJKwk1MtKsUZr0f09YSRgxWNJouqbLHN4mifgOooK6od0JoSs7MgutAgRVExLaDA6oeweXTs5/qLA6SwqgC/UooIylkjfeg76pUEwWrzLhJaRno+O70g3e5iFYqItWv7++yOiUlEFAxCC4y2hbhYXIkxduh5y9Cz7VLYtz7BP1KKCfPkqhnBNcSBaucIBnN6oHPYTMDxzTlpEo+NDcUiWw7dHQuSWg1cjy3BaOTvcPFAANUU0izQrmNwVeJsWhPnpMY934GyK+EgmAZshOYf86nptj27hE8EkiRwDFBHKeFPI6Z6A3LtUT7y8GSGsuy1yX6ha8a4AwlP8JgzQJPwR4TVqHgVrGQP41xbw36lVBGkvQVn9Y8NaXW4jMzNDFyquYV1vnWDzV0iDbl9Zqak0WVciDI/0ekd2cvihhtxYQwyIQbt7x16XMTXQf5lVBKUqRZu+upKJUVzFEa4Vy0ohB7xjJ2JoZD8yeLjYMjcFIBc9tE8qJWKFS+gEoETLRS+TZuNiWVce8V9CuhpDxnm6R/sVcXBSv1/pAJ5+mwKIQPs/dbGo+hNE3UzPhiWDwh9NcjuXQTnIGnoedzQC/n9tSxoFMNz8wcPm1I00WQXwnFgOuroeP9sRVFDf7IDIWO0SF4emCTbHlwk6vBi7Xpi40GAioSKztirWg44wPfF9/sQcpOVKBfCWWCpDjKeRlsPVGDVzE6GST4xYH6THqbhDV1MycjqiNASaIpyrlfaY3UwXABz+wOC4V7lDZGdDaZce8Teq9VWXnuIcnISSiRAlYRegmctMgXFoPCjzNxxgZU4i3WMoRrFyTmcTWo0NAA76Tzg5Qg11EDT/eghf3pjHs/A+RXQv7gXpcYxVFVT8x67My4w/DAri56oT6TfpjG+ekZ07IAbwKBGQrIJtx20yF9rNa+ySsjCAqHk8zC6dcLF9EGhVYKy2OnKqUGP0YYyKNXon0tiVmQ3CiCiB7jp6dPyhHa1iCHZO0VptRJj1ThO9ADkcmdYHr7YFMYpa0YuPNWWh6nqpQa/BWBuMSLfSXmYMO0nkgE60/j0gCrVg+Gns7UmMcAb8UYsoVBpu+tJHxuMqLMJjXuvYJ+JeQPf67vXKPU4Ff4YzBSlgDBVVpsw7XYDzY33gK4KwFwd38inXYdgLBTPdjgcAnVwIDtvoeBpwVcyTU0AZ20xr1vSJ5uzp0ksfM1hRp8eTz2MBNxiR9MpoOiXaBRAHEdxza5p+LyS0pXyyDd29kwXku75+vdENMz7FfQEIa+lNnExr0V5FdCgXm2uqQGHwn3lNoNckk0sUEnxcdmQT096DWcXCub0izRE+Lo1D34jLEzviwSD4wcv5e/MH+IPV+TWq7FdZTvMAOlf4cC8+imOqnBz8R8OowkRmIMjhEV3K5/l0H53YUkKICTdmITMavqKI1Ljt8nE4U+BuKIjXKEz1eFOq+JZxfSmz5CfiWUgCFB+U+TYJBLlEdNUoQlyDAjMU/HWnyg/SLMeQu6KpsMAV7wqG/H7NGSfz865hjJFD7f5qIqph/c6hI3LgUM+pVQWoJcuNqkBn9glxDy+hMz876Ua/HFZbeH5+Nzp4mKbFwZ5d3NdwDB4TP0DaA4NlACf4K4t+sgvxKKzGO6BAPEpG6gsEvw6MQczGY4jtsPHBaegdSrOfPqgPJhzeV4cnNya/dsYVln78JkWfLZk2Tce4X8SigAY5qs0z6BWY9aUpMUT+W3MwMpVnoTfgJtJuU4PnArIwoIedme5codGRkACbeTIe35kyDufTfA/54xf6ZElgcGfjV4VUkUrB4WTwuHxDwTd1LPhmbX/LDeKhHGPAzz/tydUMXpzMsOYHvOMrIad58RmXMA+ZVQaB478qvBTzWDkZmXTcyOTLuQP2UttJs/uhWA4lWXt31g6Otqmb+WbB+KyJ1sJUAB73uCpRQD+pVQGGQqjipXP9Tgb2aOxNxJeDa4n0wOybEN7+jOW16t4b6TAmJqJ88BwvqJqLJvhPxKyJmEFlXYk61z/fAyYWFmTcwzsAMVSW7AEb9MvHjnXXaE4dzMmEsOaC0sgDiDjNmL5PeohvxKKDPsxQpLYNajFjGlZkvCc0Zk08yYVr1q/INv18vvLgidNaP44BXWrTC4sMMz02cB4t6u4/MroS8U7GJsW2DWoxLRuMRciT7cc8yjjK1NuKKbNU3sxiBcMA23RuP0Dk+BtJiU2YP0Hm2QXwmFhl3NYA/MetQhXiYxT8/O7StpMnQTx9OHL1ZqmAorBsvd11N2IIKjgaQb5yyTJseBz4fs/AhivqCMqwtUHI3JKZ5NHWJPzYpK6C1/lx2NuYNyyZg5tDOe+XdzzzOtobv9NXC/g0fkGbzkzG6kTIYZunPJeY6GWw3+aKoQKjWG4+Xg9r9rAXaewiHHDlbDPT9xrZ07d3x+QlGS0QGxSZ5ZgLi3gfxKYMWJR7DiaPg/QlchuqQE9nPYi0RjCpfDievDIgN3xtDC8Ig5zIDbOUWxgqI+ODYpanYmbbIJ8iuBkesWyJL82V9sJxSD0POIrQbxulOzohkJjbDrovKz6sb0HR7F9mlnW+s9han5o2G+ujHSU6RlzRqSce8D8iuB0x2SqzxAo5J1XRR1h8i6QA2+BqFTEshksU+GDoCiWm3a6YFX3M02XBwdUM1Hy31VwBujWW2pAMS9nx7yK4EN22QNX8L+PdxP/Vb3xavBVyCWpOCttVLtQGDyznod7cZiBxOaKUVtJqhSyZ7xCmybFZJfkDarSen5DfIrgY31lftMqtZb9RrdNzLW7+oPAyv4T3ya3YR1Sx+ZiJwHpC4mFEfQde0jXOU3d1C4xCqjZJwliHvbFvIrgYFAr/QSyJqT6/V622uFGvzKTmNTc5OSz9TLThhViIbr49cScV5HZUkT5Vihq3oA1wdYZ8Xi3kCc2Q8YFRP6VSiOBI1T68aaAyWsvDmFaCem5B466pN2VGcfLxKnapPZW200FMpNDkp6CZy9SRUyXJBfCQwEWXt3iXBtZNgCMu04lB1qD2tyNAYOoVowIyzhHvTPABux6xe0F9sfDHW+gLWNlt+OfvDQnSnSGz8B6eWeBfOSyZ4W6CsAcR7Pou451FZ7mJJCsAvL8LTxWpvqYKQjvMCzTSjsPt7+dYLSxnsK9ysJ4t4H5FcCC5NQzqSwfP+04UAtjInqqdpDm5xnTpncM2/5znFb1wW+O9dvDOGLwHXw9eAtEp2DGpVHaFonqZWQIO799IALlQ0D90soNj1M6VUoHez3Aryu9vAyyTkJs1x7qOlHvQb+UX+yQj2ekLYhNKvhm3DHO03vXSEVRv5ZhLj3DvmVwMBaKu40FWxcr+rDnpynT5fcQzg3C10GhgU9dEAYSOysAh7jFVZu5V0h/y1SzBLEvW0L+JVAxzWlQrMzeBqj9Yc5PRshucc/3jSDy9FwFEgYbK8yiiYLV5ZSurga/vry/hDkjUqSWYS49wL5lUDm8JOk8ujSo1gBSpDn+oNKC0rEVMAR4zMty9FHX0itGgTITC2cMlSDecB6rWb4mmRWLu4dc2NtJzNI5XiS07LjZTEM1YfeUkj/9a9TXVn68r3rSDIMMxA9o0q4o/RVTe8Hv6Dpr0SzBHHvZ4L8SiByvyQCfRmMZ8q1MgLvdmTtob0eAZzCXBACAg3aMIHbaa9rikR3Fcs6DTyULpsdHv4GqWYR4t4H8NbPRBaRQP+B/95ck4qVnd57I2oPzflI4OlTuiCE9nRo3fS2G0d+pQZLF9Ff50iU6shok29POKRONRt/xwfyOZH9ShgjaUknjtsnZWOHjbyEm3itG9ws+SRUkt95E6suvdNiX+YFFiIsnIM0a2/hbga4pvbvTYRx753sV8ISfFWKBMrJDYK4KwE2keMAU+VhfWgcnJIOuZnRtx2tyG/mvaorppClLOwqVgazlmTc27ZUvxK0bI4A6JRYwo5mBG6qlKbuoB4JUFOSh1AU7TVdjXdlidqB+VFua3zpOXiXpNPOyjDuveD9SoCD3lso3QOQbGJmp/Uj9FWH0cnhIgTUGS5zI3hlmIpVYdWd8P7gqF2EuPcFvIQFqRUX4RHGGpLw7IvQMQKm8/faAf0PyuGZCHeWyNnQl40s1wbKWL8U0LNSxLhyPSfIqd+RsV+aXwlKNM2NbKHadmWcMIk+MKrm0F2PFIgF+wuNtNK9B+lq/Stbdxhbmphond9TpvQuQ9z7pPmVEKbHZaLwDe7bbmwTW6KIdFdxaM5HDjQp8tYyc59LOxBP3z5nS0o93xPTb4fdInqO13BF1kFwEeLez0DyK8GI5qC0H3K3O5lrbaynLF9x0I8wNKXcn/tnDEYjOmHMCJM8r9LerleQr+18YvqDdrNF1BFeuczCG0jh2Cl+JXSPZBSxOaR7lgnbJNJ7rxDsbKyPNFwnZ8Vm8lOhSCfyRoognd0HuL4UdORj0g6caoEm/o2NsGMZswxxb9cS/EpQotHk1t3udcJvVWJmyFJvmB9xPJukFSv0Se7jVOjGeb8PvU4NnEc4o5f4kc1oVxlr91j35RIzqxb3BmtKQN5Zx2iFyRMyNFb5cFCZX4n03qsNoxOIxd+MSWoe6qG+K3V4p3kfa/TcYVLocWdIm53gd2IfO/0aHBMkyGVjI3hEzixD3Psm+JVwCwXV9u6JJrpEeu9N9YDyB7mAmDNNMqtnTEK6mTq6KvweNHhFNuvaY4Te7kCxJ8PZZyDloiq0XwnDkwmWJi55Slpr73+fVA8If5AVbQmr0FVhQRNwehDh121vAh/Uie3la/WEi9vs/lJZswxx79MLkjERrSVrwK8gwloT6b1XGprzEQjxU2CYP7gOmBgJLyR+N1jN8+qD6olwZ4clq1UTyUqP9n9eYbMMce9nwPqVcJYAkpGPKZXee6VBP4xQjGJ+TAd7yoH9HoBeqsJsT/t3oZwRTJCCDnb2c4vynV1IIa8GnExrIgaGo3Q5gjbykSjzzQuN2zrD+nCCMRd3fvyg4V79TXodR+RJaeaTJcwASIq4Pfj8CpxliHu7DudXgnqi9PlB04k/Xqn03qsM88PKiWaMq2S5Y0LnApoJJyhMHQLscE9liHZnRpGzEHHvFedXgs6JJBPLK5Hee5VhcrwcaLT/uYw9z3sbEHnf3m7ARsG2M22seVYB0eC4O7gyZyHi3neD8SuhsUWAZuTDXgY8dqhcOjRzjaG3Dy/nGdfFIlTMYzVj9M9tJqc3vP8pp9CmYbeY0SAgdhYi7q0wfiWoJxtuxmTqaskHGl173j+OfYd/i/oKAuoPyubZkq9kjVozkjKSzfEVux+h10+CZyHi3ifGrwQNCthmTDojH48NGtPVP7iMkN57faE5H+m4LvHN3YbGjAhFom3aJW/9U8xoQxE9CxH3fgbArwRgHsGQI1QjH6zb/PI26lFh0I94nj3xzcxhy8id69gkofFGxj+qpFb6LETcW8f9SlBPkYDqq9l1mtOZy1Jf2B7p0DJeJhYMuHkYzsZbzL+L9m+NA7C2Kn9WIO6NX3FrYTWscvG6Af1S4LBlr+9Q9eJw/nGsLsxPFhxJo0gTb9rQGr2MHdtgEs9vBNYDIrUUce815ldCY8tFR1L5bHv/wMju2Cija2oLkxOC7of7wBcC7/wO8+8L7izo0o3z6ncxD/wZiyCTWYG4N37FA9zsyDkhWOWz68cJjjKer8rCYJ8MiMUJ2DMMXc9wnBEHhT9MHrd33sRYl3Xd9kgvCsCf5QPymaWIe8+AXwnBU0OsaJTKxc2WTuWz7boqQuQPZgGiFqAUXVJYk/O1+lSH7emO2GnLaZYi7m3CMNl4rwbFVAjOpCqfdYXmfPLhavBRBh7R34EjoNFJenA2LBparNm7IQn7jaBfCWvJ8P12rEpoLPpJCibS394sz/YgMcB1UnGWU0RiKRnOUsS9NehXwpUVJkm9KTWM7UkORN575ohLThzZ4TPTDnUhB4panrMUcW/XAX4lTE9e/wzj+zL0TBe/3pSKhQEiJ3nx6CQyvIpDyncnJRx3b9Muw9D3LfZM9ZTxLEXcewX8StBoynEZ6xeTSwbvK2mkx4gUizgcNsNvpvkikPksRdz7bkK/ElzpcE31YrBPUmgvgRwhujjUKRdsaazHjKAIsxhx7xkonSgd16t20d1PWmgvwRLjQzNL0tlgVbpUJLuoMLMUcW8DlE5U/pnmfHLkbrl327NjcXNI0VxiCSnTrETcGx089RSUWG0Ebd6XY2e6GC9JULnQT5Y8O5rGkATZFmJeUEspG56BGtXKNCsR98bHig8Cc/YrAjVJpqrFlqxQdAjI4yF3wyIPd5Iijl2QyNtehZpViHvjjaRMGiM2I50kwuOmYpH003WMIdJ0EjRFbpUlP2vCpw0Hv9KOQs1ixL035Lt2ZQoxT1bVK6a0nrqeJu0HcEXT3nixVUsPYPBJdg11TrtCzWLEvW3zJ9qbFWky4DbvplqRbzeTITZKl8JbGKNGT0iKVTN0ajYr1SxG3Hv+y7LIijRfTK1/U6tg86I6uwjFgW2PXscSXZopGfe3V2tHqWYx4t6mteXjtfo5HBWJAp3PgMiV8rmeaYONpBhWDzylplSzGHHvZ3/KBlhGNFdpbMcj9LYxWXG9aSES6GddiWd5k/xIW5j5QvtPdTf1E2H1FSAEfemltzut7UzAvbD8BLOaZqSbwiKXVDdLTaKwi2Yum9SKZOfjhp75/irVrEbcm5tVLMm+Ne62SmN7+iLDlRC0DSmmdL3AXiBdqlmNuHeB4G5+5SrNc9JDlilQ3Gb6NG/o/DzYv4pizWrEvXPGJgP8ArC16OYozqncjCC2HvmUGp7UcnMT8U2wfoLZRzEHjKdI9J0K+H/RVqO4S7BooEUdXM+WoOviUUd8DZemWLMicW9eNlnsgwVIeNNVKEwJfgxNZ3QPc3noQQU1/Q5bWxw+wewz8OZXHCLZXmPwo1N+bew1irkEi3aKzqht2UKZhVpz1BDMlu3BGnHvnAEMwe+JmPzRClWheJmnABdF+Kwtwe1Np6cGtgpMFbq+VLMice98WYGMhz3pdtY1iqlsSgkNm+TpRQ6KVrg0ef8Iswvrs9UyAQJxzQ8coe3rE0lKWI+c/tSLrfrhjZxQPAIGP21VqlmRuDcnu8By8PPNnfa/v65PJOgpT9ckMh65Etm41CcXmh/E8M1RqlmRuDcnWiCHH0FNxeBnplYn+KIL4I7lS4PaWjdcTexjGTKwxtghpygSX0SFAHqe8gqRzBC2TypGftQoOsvIewhMC83luzsKO1e8Z2CKdu5+s/sXalYk7p01Z5BFkYYwNTLWJngjJBaqBUDifRrKx40BxZDeMzGL4WfzAWY3nylXVLCl0iyKfKOdtQlWpcOjf4kFrWrD9/F3LXHjgZlDkFhDoWaV4t7EGLFoEi6CDjllZYLFJgTUuPcBmUm9DWz5VxNfKL37MZkPMDsHoW/OQI3bkfTG1CVOPjFQ3b3EY4dkt8/M8vxsG21pK1WkWZW4d55Mwf/W6KJElePVKMYouPZQlQ2pnbV7y0DHE5os0VfiVHlnCfVq0be4aGKLUtW+UpngKZjbmpd0aI0KpxiiRwxy+VGj+JPzf0o0KxL3ZuMQRpBdmG4RHKOdaxS9o0qFZMKzJ1rRGqQQuW7AMHcu/azrgoY+zJcbfleT3jQ1CYawyi3NKwtorRBxUhm4YlS2RaQnt9LPrn7ile3NPGUSXZSscrzqhJ/nRegx2pmAaP1GPtfkb74QSMPRkfBwAJZ99m680vC8iS5KVzlebQIVEEGDkBtNXivvb1rKmHe/yOKb+RrKPRsURnY2ZywiE6HKVY53xkEZmkUOu8e27fthnKZVuIebSC2rwVI/0QN3nBNsoVW3FH32ZMqJU6IRsGj2a1+pTuBSS1bvu9bHeRpz3zYHLzpoTXI2WqJU/pbkmBdONkzGF3z2GZYnd6KLElaOV5lI9DmT/PeYfzRvU8pZeLIPG6JrLvjs4bIntihp7St1iUT7vpXd38P3iCXFl4uIafjLVgN7zV+eWWFBnlwQX1J9ysrxqhHlqciYkuTpDUHtXadTsVe2NKcugq7wPGfK2le6GkXvyO1GfpnzPHQOieGZc4jhnpztwodroZL+fAozHGRPyRiZxBelrByvRvHawr64duj3Tmcuy6zUNA1DrA+QTxnXKbVhP7gzu5hYxFQh0Ihe9/yxZgexNKiv2j5l5Xg1inZ4X5Cl9bnhJr4TUFDPHJXCNQEm1JJC19wUYLaotLhIesrK8SoRib7Fc/7pjhiGFvTwqb9OpiQTZ2FJughR9jVUU2jTIh3rt/1rgoQh8tjmzjc44FM/z2wvGSGLAhnko96Ruwsw3Y5qh5EkCyPhdLNAE2ub96xgLmEQaq86U1aOV+/I5oej7QPvtC1foDv0hN26rGfLipxF2rupd2T+A/fWrj2VkwRYoZAGWo3TwyeZ7SRDWpRmF6GqHdn/QN1ZY0reVtyXig9rY/ichvExZluZkKLjZ8LK8WoqxGUS0K2XbQRshXMknF637rXLdLaoCFrU+Tc1FeayL+hlaITpgTB6x90xfYTZRjKkRYl2Ear6YTL4mVjOiAfyJsbjgQ9CZ/lnXz63SPCLElaOV/m4pEcQuep56s5H2ASiYczPucuJfj5cGaGmDpZ0lePVPe6+z0IvgUGFs9GPxIl2vmJ9H6S4Z/8IcKNlie0rWuV4Jj0rVOApClIUI5dsLkT+3KRdZEEn/Xebl2NQWiiLEta+UuMA1DmzgMum4CgkjDCwpihqOMeYdZSaS6d2IzrbM0+eOV3tK/WO2WuhYvEXvqMU1iWujJckEzLEDi+DFdfmS+2IGYLn1pQSRXy1fbqb+sYCmaptM6qHhWNrJM65J8iEoEYDw63nQQTN+764BoN89flzDSY9z5nupu5wpMO8soHxSHgMcuRer7VDLcCcEAT6hI8d1IYbxRpX0Jyj7S2LOwXq1exMJF7UtOClC9t5ybZ1jjUnGE/+XUvyHWqnnW9Smmm/cY30pfqGd32Evh5tgLP5zXs4RciE1VVVv+cd0ZnJ8evbv1jwwvPa55rHK6sd8Gf5ePWHpKThPvKdGErud4+rxg/pLb8J8/3zydCN3qLn5jffKNC1qoRxJUAFcoR0xO57TF0j/PhsucFXadp8i4pObZgF7bQZRx2EQMehvctxHAyNMuvMDp+YF9r5/Wfzx4Rx2DVPXFvn2DOD0zGXdnOygqC/BahfraeVEO08463/7h2umSKgQLkbGovYfyogWa2e7UGiHr5PDbaVa/k6lzQ2qy+egN4uuW8WOyZyuqFIijmhywFeNHjZocsd1Bxd3xhAbHZ7DaWYtL/EhUjuWHrSMKCzfE//9k75NaFSA+3oXTtRafWTnSn2nenSkMAsB9ipQqobvjiWzg/eo33VpP8bSOGNjpCwDrqStrkQOXT+kJ6idaf7ZsI8/uiXjDkR44IjGTMzOugmLjUcxnNQVuyQPopMLvKcGpEC2a2+x5w+YbCHBArpan2fMRPiLdzRrNQIfMPLFnbim3pHXGOnCJJvuEP6mO7PEA/fhxgTRBr5rulWWvV1R0iiW1/0LQlbCgWXq33VO45MYfZsr0s7QRbrSN3Gtd20Hje1nr5FII7rFvk/7cSxEelZUWGHfqpztHHyvBfbHURvl/vYZlp71xIKLU7Uxoj65yFrVvNyovMMNhQ7NfDmZHJB/9aoiRTnz4KD0ED8FvAHnABdxerduzM2TRaTc3BFySZTRkJQdyNKgjQNlaTvrFY9zvDDnu1lb/gmZpNLyH69+3DM/nb36H1R7/st6+ofrwmX4uC2LXlyMJp+uhSRmzXP5A7C3brPYzjTROORAZKqSRA4u7EysJp+Ok80FCdrSd7dL69qwxUhPsbBlvdhBNi9IwowK/QZ5iY3ZJyLM/rNlo4DE4AZcfDcklOjXGLR3F2A+ww2Tr3hjhAcywlKYxU6b1gkTD2Fsi2EtcqLNjWiorI2R+jvI+OwPtDsSgj6VYuwlnUkA6xTB2AgL7sLthBhn7swd6f64bEK0uBfA4QEfsoyMfKxB0oIVYfUUhF/0qsuRtEWYs5/YOXB7j0uUS5q+ywBqW+jI/xDjJroGvZQtqqDgE/+GzuVYh8I3Mb9GezXqwiQfVibZUVf54BUKdNEgwt2ZmMO+49dxWFYHDpnzj9uem+fksdxmiblHzgliqGKa2kL0Wpft+Lf9FsxFhyKUBuWRFqOuNzJdWH4HrZtDVNCCIYBKXKkdQzti3wyNNuPG5lAOwoRHCX4II77XYB1v53uQC8VhgrJ6LKzvfmhEkKtIX6I9e9jndrkFbjllqkv6/ypMuX9cHeohmL0svwMVUwJQRmK2TBWOYtpK5SgxaUSJfjPTDnnNit7SmN+nFwplLqjhBBxXOWk1CDe9sMweWK8b+nd6X1ATigndrLSNN7jmCjZPx/ZbcNz6Yk91SVjnGW7OHo0lKsb7NUcJYTRwMmreMDYDpM/OmsuSzkCods6T30D1nZZogW6S1YL+ip9tXz+wnRadpKzl5I2jdcchRGAu5nsFNccJYRWw+MsDK49lzrkwrFVWa6qD1TKSyQ75rnunn/anXbIOsl2e4XS87GnIVL+yxk01hwlhOmGXI2KecvDKfCO8aSg9fvhWTkmEuygmMR67shH05pc6qsEF4h0AVJq1ow7kYApAu45nEjo94pjw3tFmYoYRcSBzrX3Dc2W5nKn3v2dYf77dhG3JfTCkHwcRcewW0bLIEsSfA0FtPp82/XeQDOaF290mh5epTTvt7XeKCE0GmEqolsv/Nhi8nbPbn7L8Krp737h//+3oTC8H2bd7oo2kSwTb97TxQ/JDsFQhELKwJUERD3ten+blvNq0yK/yq7GXI94Y9+0u0OotG/zxLB7dt2gFngY+kOnaKK+IH9O2A6KdYlHD601euUSwcngiyh4DwYe0bhEJBhK4RVHCUHHTcbONia/q/okPkRFnvvkDZD98txhISag+H0NYm3V27+4dWjGiXNKOC9OjhRAX8/s3zNjvXmEVShnjC8N3bf1MlZ8W9Te8SAnRKpw6aWdZE/Q3jmXrnbCotfd+Jai2YNsp5jDUV6VxLEBqcZDWIhTEp4+AcxWyJ197yizt8+5VeY6RntJRXPED65+p1akbrvzxvztrKJVhmM/kRo53A59zZnBZm3yZ5AtdeNfoqnpJFOFYU9K66JOHPkB5rpiBcFrzJ2uqHOsQUaxUaGNHsNj+AcFpiSuNeg8oCnvBPCZpepOgWpOgNt/QYgNjgkBaBFZjd4uflepyxxta9Deha2VwTtEdBbU5wh1KAm7C20SR+VeGrGU6iPdKJOPBgTzLg/NSdm5mgSz8tStssR3t6hjV+RRKHAfvpF6ANdyXrUuxic7PgAcC8WVkPDg4dUrprh5ZS8a2OHbRslaz31WHg1CFUe/UJVx73BsIfu75y5ahdvti2LxTOwgehlbvWKLx+l2wNO8Frra06s8vIUlyL2uvRjav21ZmFGtv6HBU6hMEao1mbJX5IkJT5eMIxnAAZCqV5xxb5h6wMTiDnR5xIEs7TXhMnFmbMZ1mAmIqBSoNYWo22QsQk7d4TLc3uy7C9mn5Kg/rVEevTsVt7CeD8faxTNYmCMvC6XV3F2lEOrdhryX+D7X5otiY0sDmDurqhVAkgWT2kzuL+aCzZxbIUyL7isgBci+kyM3mqpWhCJimzSARwypav1zUnbR0K1Tmy43EOsGxUbSah5Lon91a9Xkl7b1HOIrAVJWPODxK36tVhhcB19Rd3RIU7PsLUnU0ORxo1uy9sBrNWcq9ra/mG8yKnOYj8y/Qm5+DDO1q2cLIKQpOTzHc1d8ZJ9iO5/se/iKY21mRA9Bgh1IKeOyrNYTG8lj5zgLAPPOVIy8oPodQ61CYcwmU61xOxvoJe+r36Eb/TYqNJdl2qm5mXzMA7anQBezz73kEofNs9hUYnQywsNWXKWAOiKj2HqTbg1b3A9k6KgVNpbKu7Ob3WdkxjNbVzkKXRLgunR0dUuAd/O9kCaZr2a+KyzxizLPFpZuKEq4fj7lukjqnwy9Cs87YgXnWZMADhyvakVrGZxc6qe3UUTLahJxnjqi0MhCPcNale3ijYjSNrHZXGNL9A2RgrtJh65bArzzwyaA1ITd2yRmFdEGVv42r5cPEY1JzkwRiv5+SnNB70biPLGWM7fDBA5I3BKRpAhIpWP2d4SzWl2OdE7ItR3BWBZ+minIHu1TzosNOhb6NA5xg4dN0Hdj3vvGCQWfH4WT0wgyKoTd6xIopSYjMNmBlgo+WSTZy32x1t5IWyfF40wjoDMwUr06IUlcqUl2A/PGaw+6O56E99d9OdKws1KtBHjxjdYrfvck2x2q+nwaeoYF638jXJuM1RfgrVmTl4QG5uX26OKv3CI4jWlga6PSXzeJvr6WZEyVSoAXt6O6bmf9G6L2tcl5xbL7tvpdvKxtzv9EXHwgd92jUoGpopilGcyycKjduu8anSpzQbGBNLjQVK6f/khprp+pP4Pyj03j/0QcpP9yNLwc3KHqwL5X5i5FM5hR/X60SxN0NKnwHENy3fY/BcksD/R84AV4q+tGJuJEVVJt72E+HINreg0YrJrrdv8F2NnZuUDvAnMNu6gzajkxxa+aIbqj0RefW3pNF4wo712f33awuifDtmxUFgFeeMzA6GXqGHfPdz9d3M5awril+Q/EM6fi+C/dV3yTqpHNGr0thG7vhLd/+5xpCzP6578QFxOUnnxcZwfw9bL5LffjNXnKu+l+iPZvkxdjrP+JeKZETL4n3HXtMiw8pg1Z2lHqv9D8s4FKIFJW3KCBT3Y4lYb8nCm+9AL+7j/S/HODOyQmZsUw2K9I11Q00uzQgENYiE0+/x/psnGC8MeqbsHhPvK8+j2AEbGbKX7xhLgvefNfCdswgvHHqhZemnfL/bwdN2xFK3s9/5kuMyMYf6xq+mX974RhBOGPVVXH/HfiGfnA+GNVHflPOG8FoPnA+GP1D8q8vvAkr4jdYsD4Y/Xvyfwq40AvrGxg/LH612TeqZcM7oYHVDVSrp0l/j2KaQWxtWMC5Y/VKPFNT2/UNf7+kkkG5Y/VJPGPVmAb1V3HOjUUUP5YDRJ/b/zdVgssG9DNUP1dIFNUtyMbccGC8sdqjvgLeLRS0DZCaZXkt91Aa2lzs44ocP5YDRHfTgSnlu2xdgkMveB2XzsOthqpGeLf64nfG/YUhouhnS29yeD8sRohvnXYxsuXYLxq2k6HB1uN1ODw0Ula67d9signwNfTYUH6Y1Xi/tfMtf2Jc0wS6qVjaPiipSX89/o4P3xoB/yyarXJtf0D6Y/VDPEvr6+DS4ehhXbaN78GiO90HinLC9NOiMgd0Rofvs3muJwabDshAn6E68MXkns/M/zIoQfPEBvGR1HSI5/r2/96p7KENvQMfvStn8So3WYKre0sPg0MH+poJdlCapaqHwPD59n5DppTluu2+80T93c5of41MVEHkYfBtxua04t6P+fD73kkQ8M34VKms9dNOL4VuBy3P7Q/rj8ooAZn6GsOls0MXzccDlu+7QulbrF0o1fI1RvYVkh86KwO0JmfobxZvlNWBptCl6hi22NVHZZXo8P9wdLBspHhL6TfzVz1Fdv3JTh8m0zaW/rCWvLYgvY4D2TdOsK3X9k0vU3Y/FGy/N5RK2QLn7VtH5ROeE3HyfDK4efsT1pfT/QnMT+pb2fiJBzdBrYDb9S0LUPjHCrifn1jdzLe9T8JPdH9fcwAviM39nDdRQJueyyvTTPfrQa5bHvY3ZluOEn7nr38Fe9bGGVsEQ1EaslWcLsbSHv/Iubv1j9sAF8Awdn+4xU7uIBD0FStLkmJA+Y/j9oNzQquCl7u6ycxHzYN5Pm9WFSjvr323cIe7Zy02YUM2g7uTd7LYTe8fhHzGjyS1V8KM4otsicwU+pmFzpZ2hVlQ90cr1/D/KOEqe9mIer3M9AJXtK/W7Tg8EAH5sAATfpJzM/RY8H/jZgiQom4WXD/vCdKXNp5A2/YhJfLK5BA6a7zYDvUrkDV8PnkMZLhCxH+Nehl9xh0slPEqvzxZt/H2gwY03DuoSVbszI1YtGGeeljnZ/n7tkKzeq+IGG3C2y0tTNSX3GqgZPCxIXas7EfwjwsMPXtLDTo/dZR/h8F2hkyaAtSwZgq/4+RIZrQbF+G8C7+y2pvw+DM+gfGRzpLlXdaiNOcBFFgary+hh9s3Ku5gQPfsInufoo6JmSNGj/Q9Zs9hbWdL2ihRn3NuLACFuUd2FjRYNvwb6jl8m4js5g97fM/fRMLB9S7YgEZEN0KzoA1N74D5ugabpQowSFKHMnHWvSLuDPq62a4YuP6TB5t4L0QtvdRDs7v/3q/gxse/+rUx7tJ/Q41q403v2EjhWactYkeYZb4l2WFrjlKPICYTOOXYPpi1EXx3Zzk9hoXMSXdOGN6iYrdOmwVYUMdp7NsTK9vimfGt+QOdleVNe+BUGkCX5Mvx3a4AVUQqa/kl5mvnJDO8HwXP6ROA0U8WUOAB2NqCi7+EZkK216SpGp6IJv5dnLA4ID4ISy6268KattCNKPItma1/m5aYK812tdH/fiuqrLXE5rSwkbovaMxKANniIdzavavy6uiXwbLwMGT+/d9WCiaON6qyT/o7OmahnSdyUdQq9mfGn0ncfCAsZLb9vkiLvwDJrrpg6HLGOl7OJRmRkR2wx60VQLU36p/QY+ZKSz4Sqor4MwpQ3XE3XfJA7Ife/IFzqtDTtd+A+BZK7n9UlzkEK8CQFZ3Qz+i+MvAu54L+604ZNvkmhF7PNDwTf8x/Cwvbu7Hy5xznOg13HNMfgw/pmHj/qzqoKPlncj38NzZKn83SmNWcusYflLTRGZ8H22aUt2hmQ12gCD/Cla2cXp09Wm9E1X8h/06vwZPNIR1Vn6x0av5Pti7VPXVuHOUv2S9Igfqv/5fJouANWZxfspHxYqhue8uueucNtMecSamvk/Ru5d1CsnP42N6wZ34YAdamQfsqJ+1jZj0qOTrUax2kbvl5WM+SsDBDjS7qF+92yoX0bf4fgiX9kjRnRW8JpobxvNTPip2sAPTNrxGl/6+iCE1/Ngdff/fwN893qEjYLdwCQ51lj9qvT1XVKx1n3dvKxIf7EAxVr2bXuGcfbzfh9nzB3H5Ujyu3VtsRzHhdg2E2HgbHEFgG5jzRsZZt/H1q7gM1xfijtCAOkb/AsdOFWB4KLDpHcTHgWOa5JgzAX8Lq/hS9uqp6X0zjyIS9oIyB6zX7MK/j8vC8PG1t+fNtd+P/Lym+vlcd9l7gZHAu03X0RoQnaTgV3JZndFeX6laFyDRNb6HQS+lkVmXBEnHq4xLGZzadjYBCjjqb3OSIzxm3704ZGxfv5VLikygmZ/u1U6LLmcGIX7XKrpXc7Jzona2YtOYfbVDOQjp9b6JH9llThWYlPeu7vIOs93QJDzYga6n7kknII7jR8mVOmPj++RXhmJnifcsWlPISKCEgx24JqoSZ3r9OumRXePIuOJEAm8/EtgKOtiBV5OmLzscr58bE/u9KZ747KW4q34fRQyJG31MU7rt+t8bY5p5wl33EtALzbHcEzljs75+bwzCAqmpuLw2PlE3drT/mJ8nhu5qR0lhPr4e6of4GEEBH0+qrSkvXGJvxyvVY35xdNLCqLuIJLAi6fpf4WPk+fpiOKo8KB2pxN6WZI/5zV2kibDqEiDQpy3TpHrMD5RBXhvmTC3pMuUCQ8/JGX+Ej5HoHMclUPW0pWYASiH51tp/j4+RE1atXNLAgsLlXQ5pI7N3m+Y12P4XyiBP3kSTw+SMeF2CRN1657uF9rPjEjPPf3JT4gls7ow45Ii6vQ7/Mb87DCObQE+IJjJbRhg0tv81PkaUhNrA9DK47ylxthdWELMkeox+/UK5uHQvWbk5vF7LhsZTH8CJuiV6TPfL42CeFybwdjCwiQV7MJYxP2Oyx/wikX1LUcKUG4ZsmLzQD7HN9mSP+emh2VOkorLZFEuJRi7M/mZY4qJuv8nHSJGR3SVaBmHJ2lqzEt8d42+CSvaYnyTC01eO954cs7mwB6F6c0RE3X6FjxFq1lqMODB/MGUy4R16uqjVNdv/Ih+TMBkpPBt/SBMHXgXAF1hfUR/6FkZfA4OOBmx+bY9J7BzHlDDRnFoLs5cCixbXGfOhz+CcDTyOA/A10KLfn98oN2ewLC7AM1nQeEUH6Tvul/+Ynx8z57w0gTfLFixnQR9Jc6uE3Lb7lTIxMvJxsgVxWTDF8uiWdKjx9ftDMcXgGka6P4RFNM9srOAqnnxHFzbfanho/t5+Ci3z7Hvwhpr+UTrHsYu0Ej7zZQLmwBoX6Jv17oeQcxBCsp36XH6mTLzCFmwMfNFMdpTZu7/hy8g3L0vgjbnHLZypiH9XNT9ieidO7GHnwnAWkmSAkdSSqr/RO04i5YF31nPnk3xurxGif8aXRdj8SzHek3FWPI1fIecP+UeYiP3AxfiSOvtOlr27/47BdUzkRPbGApfYuWg4aZ10Rt8Cxy/5MlniPE/oyd7c9oa5xFM6Cm7m3l/x3zH8803vH5OJ2+WgIz5LZ/Gbufe3fGl2rvmmn+LdyjoRCy+tE87uN3Pvr/kyGvx8uL9zXKHnfXPpN4idfdfk2bspB+CUYepFj+4+wx4/s/DQcuvns9Li2buCBw+Qu4LQkz3Mu9g3iOWkv7N3w3cJCnPomUbgLY2wrOZEl737s770y0nd3zk1dAK8Vl75rcFxIsve/UETHXcHsZZi5N0XTMtzT/5ZyYwR/7Z/2H9mevc4zlOl2KNVw0H34p+VjCpjE5F3ZuthEpVfToLxS4CnfxnYeO4pd/adLHv3XwYWBrYkKgN8pJu927/VHiTTM58EgT0a+/8yMAi17Xizocre/e2TePcT08XBdjZk2bv/NFxuMmeimvuE0o5eDuP+bwOGfs9UgTMfoav+MXwt678NaIZ7Sp59F33bgPnfBjYyQ6qKlbmIuC1O2esfBliGC2+yl3MxsX1b7AFD6f5tYCLfU7b7uD32sZRWdFRegwjNBnoqOw+o0FAzwfjYLfLYyZHwNssemEA9z2NnzGOnRsIbQ91z+JGbxYciPfYGH/tvBSfVBSu2Qwwmb9iWtq9/Ni6ahqEeNKKF1AG73D8fj2XGPjVp+Bs7an89XZkfe+6sjx0cCW8LsoiBOPygw4y2XvJjB0fC28hWxHAfO6IVog0D+h+Tx7LE3lp6EYM1Gi9U68/SuvD7PxEFprAaBW5SEcPtdcwKhvDZxXsg/b8QF+L42ROFRgxbwacfbP4Tc0k2ANHt6Y009H+oLt20HhepryT/Y3WBGx85XsTwz9elGWd931P3+tfs8r//2H/sP//7j/3H/mP/sf/Yf+w/9h/7j/3H/mP/sf/Yf+w/9h/7j/3H/mP/sf/Yf+w/9h/7j/3H/mP/sf/Yf+w/9p//LPIC;" vertex="1" parent="1">
          <mxGeometry x="83" y="136" width="140.46" height="150.5" as="geometry" />
        </mxCell>
        <mxCell id="ocqf6F87zvbqWiO9Ts27-5" value="&lt;pre style=&quot;font-size: 14px;&quot;&gt;&lt;i&gt;&lt;b&gt;LICENCIATURA EN:&lt;br&gt;NEGOCIOS DIGITALES&lt;/b&gt;&lt;/i&gt;&lt;/pre&gt;" style="text;html=1;align=center;verticalAlign=middle;whiteSpace=wrap;rounded=0;" vertex="1" parent="1">
          <mxGeometry x="339" y="396.5" width="156" height="30" as="geometry" />
        </mxCell>
        <mxCell id="ocqf6F87zvbqWiO9Ts27-6" value="&lt;font face=&quot;Times New Roman&quot;&gt;2GM1&lt;/font&gt;" style="text;html=1;align=center;verticalAlign=middle;whiteSpace=wrap;rounded=0;" vertex="1" parent="1">
          <mxGeometry x="387" y="666.5" width="60" height="30" as="geometry" />
        </mxCell>
        <mxCell id="ocqf6F87zvbqWiO9Ts27-7" value="&lt;i&gt;PROFESOR: JOVAN DEL PRADO&amp;nbsp;&lt;/i&gt;" style="text;html=1;align=center;verticalAlign=middle;whiteSpace=wrap;rounded=0;" vertex="1" parent="1">
          <mxGeometry x="321" y="626" width="209" height="30" as="geometry" />
        </mxCell>
        <mxCell id="ocqf6F87zvbqWiO9Ts27-8" value="Diagramas de sistema de renta" style="text;html=1;align=center;verticalAlign=middle;whiteSpace=wrap;rounded=0;fontSize=17;" vertex="1" parent="1">
          <mxGeometry x="323" y="576" width="247" height="30" as="geometry" />
        </mxCell>
        <mxCell id="ocqf6F87zvbqWiO9Ts27-9" value="&lt;div&gt;â€¢&lt;span style=&quot;background-color: transparent; color: light-dark(rgb(0, 0, 0), rgb(255, 255, 255));&quot;&gt;CHAVEZ MENDOZA BRENDA&amp;nbsp;&lt;/span&gt;&lt;span style=&quot;background-color: initial; color: light-dark(rgb(0, 0, 0), rgb(255, 255, 255));&quot;&gt;YAMILETH&lt;/span&gt;&lt;/div&gt;" style="text;html=1;align=left;verticalAlign=middle;whiteSpace=wrap;rounded=0;" vertex="1" parent="1">
          <mxGeometry x="278" y="496" width="334" height="30" as="geometry" />
        </mxCell>
        <mxCell id="ocqf6F87zvbqWiO9Ts27-10" value="&lt;pre style=&quot;font-size: 14px;&quot;&gt;&lt;b&gt;&lt;i&gt;alumna:&lt;/i&gt;&lt;/b&gt;&lt;/pre&gt;" style="text;html=1;align=center;verticalAlign=middle;whiteSpace=wrap;rounded=0;" vertex="1" parent="1">
          <mxGeometry x="347.5" y="466" width="156" height="30" as="geometry" />
        </mxCell>
      </root>
    </mxGraphModel>
  </diagram>
  <diagram id="M7W3lKG1HLdw9DiKDCpT" name="PÃ¡gina-2">
    <mxGraphModel grid="1" page="1" gridSize="10" guides="1" tooltips="1" connect="1" arrows="1" fold="1" pageScale="1" pageWidth="827" pageHeight="1169" math="0" shadow="0">
      <root>
        <mxCell id="0" />
        <mxCell id="1" parent="0" />
        <mxCell id="u9zrjukdHwVOA8j2bUgU-88" value="Diagrama de sistema de renta" style="swimlane;whiteSpace=wrap;html=1;" vertex="1" parent="1">
          <mxGeometry x="5" y="133" width="810" height="842" as="geometry" />
        </mxCell>
        <mxCell id="u9zrjukdHwVOA8j2bUgU-14" value="Buscar contenido" style="ellipse;whiteSpace=wrap;html=1;" vertex="1" parent="u9zrjukdHwVOA8j2bUgU-88">
          <mxGeometry x="216" y="455" width="120" height="80" as="geometry" />
        </mxCell>
        <mxCell id="u9zrjukdHwVOA8j2bUgU-84" value="Agregar a la lista de deseos" style="ellipse;whiteSpace=wrap;html=1;" vertex="1" parent="u9zrjukdHwVOA8j2bUgU-88">
          <mxGeometry x="196" y="577" width="140" height="70" as="geometry" />
        </mxCell>
        <mxCell id="u9zrjukdHwVOA8j2bUgU-1" style="rounded=0;orthogonalLoop=1;jettySize=auto;html=1;entryX=0;entryY=0.5;entryDx=0;entryDy=0;endArrow=none;endFill=0;" edge="1" parent="1" source="u9zrjukdHwVOA8j2bUgU-3" target="u9zrjukdHwVOA8j2bUgU-6">
          <mxGeometry relative="1" as="geometry" />
        </mxCell>
        <mxCell id="u9zrjukdHwVOA8j2bUgU-2" style="rounded=0;orthogonalLoop=1;jettySize=auto;html=1;entryX=0;entryY=0.5;entryDx=0;entryDy=0;endArrow=none;endFill=0;" edge="1" parent="1" source="u9zrjukdHwVOA8j2bUgU-3" target="u9zrjukdHwVOA8j2bUgU-85">
          <mxGeometry relative="1" as="geometry" />
        </mxCell>
        <mxCell id="u9zrjukdHwVOA8j2bUgU-3" value="Empleado" style="shape=umlActor;verticalLabelPosition=bottom;verticalAlign=top;html=1;outlineConnect=0;" vertex="1" parent="1">
          <mxGeometry x="91" y="369.5" width="30" height="60" as="geometry" />
        </mxCell>
        <mxCell id="u9zrjukdHwVOA8j2bUgU-4" style="rounded=0;orthogonalLoop=1;jettySize=auto;html=1;dashed=1;endArrow=open;endFill=0;" edge="1" parent="1" source="u9zrjukdHwVOA8j2bUgU-6" target="u9zrjukdHwVOA8j2bUgU-9">
          <mxGeometry relative="1" as="geometry" />
        </mxCell>
        <mxCell id="u9zrjukdHwVOA8j2bUgU-5" value="Include" style="edgeLabel;html=1;align=center;verticalAlign=middle;resizable=0;points=[];" connectable="0" vertex="1" parent="u9zrjukdHwVOA8j2bUgU-4">
          <mxGeometry x="-0.0628" y="1" relative="1" as="geometry">
            <mxPoint as="offset" />
          </mxGeometry>
        </mxCell>
        <mxCell id="u9zrjukdHwVOA8j2bUgU-6" value="Registrarse" style="ellipse;whiteSpace=wrap;html=1;" vertex="1" parent="1">
          <mxGeometry x="221" y="209" width="120" height="80" as="geometry" />
        </mxCell>
        <mxCell id="u9zrjukdHwVOA8j2bUgU-7" style="rounded=0;orthogonalLoop=1;jettySize=auto;html=1;startArrow=open;startFill=0;endArrow=none;endFill=0;dashed=1;" edge="1" parent="1" source="u9zrjukdHwVOA8j2bUgU-9" target="u9zrjukdHwVOA8j2bUgU-15">
          <mxGeometry relative="1" as="geometry">
            <mxPoint x="851" y="58" as="targetPoint" />
          </mxGeometry>
        </mxCell>
        <mxCell id="u9zrjukdHwVOA8j2bUgU-8" value="Extend" style="edgeLabel;html=1;align=center;verticalAlign=middle;resizable=0;points=[];" connectable="0" vertex="1" parent="u9zrjukdHwVOA8j2bUgU-7">
          <mxGeometry x="0.0889" y="-1" relative="1" as="geometry">
            <mxPoint as="offset" />
          </mxGeometry>
        </mxCell>
        <mxCell id="u9zrjukdHwVOA8j2bUgU-9" value="Iniciar seciÃ³n" style="ellipse;whiteSpace=wrap;html=1;" vertex="1" parent="1">
          <mxGeometry x="411" y="208" width="120" height="80" as="geometry" />
        </mxCell>
        <mxCell id="u9zrjukdHwVOA8j2bUgU-10" style="rounded=0;orthogonalLoop=1;jettySize=auto;html=1;entryX=0;entryY=0.5;entryDx=0;entryDy=0;dashed=1;endArrow=open;endFill=0;" edge="1" parent="1" source="u9zrjukdHwVOA8j2bUgU-14" target="u9zrjukdHwVOA8j2bUgU-17">
          <mxGeometry relative="1" as="geometry" />
        </mxCell>
        <mxCell id="u9zrjukdHwVOA8j2bUgU-11" value="Extend" style="edgeLabel;html=1;align=center;verticalAlign=middle;resizable=0;points=[];" connectable="0" vertex="1" parent="u9zrjukdHwVOA8j2bUgU-10">
          <mxGeometry x="0.3388" y="-2" relative="1" as="geometry">
            <mxPoint as="offset" />
          </mxGeometry>
        </mxCell>
        <mxCell id="u9zrjukdHwVOA8j2bUgU-12" style="rounded=0;orthogonalLoop=1;jettySize=auto;html=1;entryX=0;entryY=0.5;entryDx=0;entryDy=0;endArrow=open;endFill=0;dashed=1;" edge="1" parent="1" source="u9zrjukdHwVOA8j2bUgU-14" target="u9zrjukdHwVOA8j2bUgU-56">
          <mxGeometry relative="1" as="geometry" />
        </mxCell>
        <mxCell id="u9zrjukdHwVOA8j2bUgU-13" value="Extend" style="edgeLabel;html=1;align=center;verticalAlign=middle;resizable=0;points=[];" connectable="0" vertex="1" parent="u9zrjukdHwVOA8j2bUgU-12">
          <mxGeometry x="0.176" y="-1" relative="1" as="geometry">
            <mxPoint as="offset" />
          </mxGeometry>
        </mxCell>
        <mxCell id="u9zrjukdHwVOA8j2bUgU-15" value="Restablecer contraseÃ±a" style="ellipse;whiteSpace=wrap;html=1;" vertex="1" parent="1">
          <mxGeometry x="601" y="208" width="120" height="80" as="geometry" />
        </mxCell>
        <mxCell id="u9zrjukdHwVOA8j2bUgU-16" value="Ver detalles de contenido" style="ellipse;whiteSpace=wrap;html=1;" vertex="1" parent="1">
          <mxGeometry x="421" y="578.5" width="120" height="80" as="geometry" />
        </mxCell>
        <mxCell id="u9zrjukdHwVOA8j2bUgU-17" value="Filtrar por gÃ©nero&amp;nbsp;" style="ellipse;whiteSpace=wrap;html=1;" vertex="1" parent="1">
          <mxGeometry x="421" y="758" width="120" height="80" as="geometry" />
        </mxCell>
        <mxCell id="u9zrjukdHwVOA8j2bUgU-18" style="rounded=0;orthogonalLoop=1;jettySize=auto;html=1;entryX=0.017;entryY=0.625;entryDx=0;entryDy=0;entryPerimeter=0;dashed=1;endArrow=open;endFill=0;" edge="1" parent="1" source="u9zrjukdHwVOA8j2bUgU-14" target="u9zrjukdHwVOA8j2bUgU-16">
          <mxGeometry relative="1" as="geometry" />
        </mxCell>
        <mxCell id="u9zrjukdHwVOA8j2bUgU-19" value="Extend" style="edgeLabel;html=1;align=center;verticalAlign=middle;resizable=0;points=[];" connectable="0" vertex="1" parent="u9zrjukdHwVOA8j2bUgU-18">
          <mxGeometry x="0.0882" y="-2" relative="1" as="geometry">
            <mxPoint as="offset" />
          </mxGeometry>
        </mxCell>
        <mxCell id="u9zrjukdHwVOA8j2bUgU-20" style="rounded=0;orthogonalLoop=1;jettySize=auto;html=1;entryX=0;entryY=0.5;entryDx=0;entryDy=0;startArrow=open;startFill=0;endArrow=none;endFill=0;dashed=1;" edge="1" parent="1" source="u9zrjukdHwVOA8j2bUgU-22" target="u9zrjukdHwVOA8j2bUgU-23">
          <mxGeometry relative="1" as="geometry" />
        </mxCell>
        <mxCell id="u9zrjukdHwVOA8j2bUgU-21" value="Extend" style="edgeLabel;html=1;align=center;verticalAlign=middle;resizable=0;points=[];" connectable="0" vertex="1" parent="u9zrjukdHwVOA8j2bUgU-20">
          <mxGeometry x="0.1007" y="1" relative="1" as="geometry">
            <mxPoint as="offset" />
          </mxGeometry>
        </mxCell>
        <mxCell id="u9zrjukdHwVOA8j2bUgU-22" value="Reproducir video" style="ellipse;whiteSpace=wrap;html=1;" vertex="1" parent="1">
          <mxGeometry x="231" y="459" width="120" height="80" as="geometry" />
        </mxCell>
        <mxCell id="u9zrjukdHwVOA8j2bUgU-23" value="Pausar video" style="ellipse;whiteSpace=wrap;html=1;" vertex="1" parent="1">
          <mxGeometry x="421" y="479" width="120" height="80" as="geometry" />
        </mxCell>
        <mxCell id="u9zrjukdHwVOA8j2bUgU-24" style="rounded=0;orthogonalLoop=1;jettySize=auto;html=1;dashed=1;endArrow=open;endFill=0;" edge="1" parent="1" source="u9zrjukdHwVOA8j2bUgU-26" target="u9zrjukdHwVOA8j2bUgU-22">
          <mxGeometry relative="1" as="geometry" />
        </mxCell>
        <mxCell id="u9zrjukdHwVOA8j2bUgU-25" value="Extend" style="edgeLabel;html=1;align=center;verticalAlign=middle;resizable=0;points=[];" connectable="0" vertex="1" parent="u9zrjukdHwVOA8j2bUgU-24">
          <mxGeometry x="-0.0039" relative="1" as="geometry">
            <mxPoint as="offset" />
          </mxGeometry>
        </mxCell>
        <mxCell id="u9zrjukdHwVOA8j2bUgU-26" value="Reanudar video" style="ellipse;whiteSpace=wrap;html=1;" vertex="1" parent="1">
          <mxGeometry x="421" y="388" width="120" height="80" as="geometry" />
        </mxCell>
        <mxCell id="u9zrjukdHwVOA8j2bUgU-27" style="rounded=0;orthogonalLoop=1;jettySize=auto;html=1;entryX=0;entryY=0.413;entryDx=0;entryDy=0;entryPerimeter=0;endArrow=none;endFill=0;" edge="1" parent="1" source="u9zrjukdHwVOA8j2bUgU-3" target="u9zrjukdHwVOA8j2bUgU-22">
          <mxGeometry relative="1" as="geometry" />
        </mxCell>
        <mxCell id="u9zrjukdHwVOA8j2bUgU-56" value="Calificar contenido" style="ellipse;whiteSpace=wrap;html=1;" vertex="1" parent="1">
          <mxGeometry x="411" y="668" width="140" height="70" as="geometry" />
        </mxCell>
        <mxCell id="u9zrjukdHwVOA8j2bUgU-63" style="rounded=0;orthogonalLoop=1;jettySize=auto;html=1;entryX=0;entryY=0.5;entryDx=0;entryDy=0;endArrow=none;endFill=0;" edge="1" parent="1" source="u9zrjukdHwVOA8j2bUgU-67" target="u9zrjukdHwVOA8j2bUgU-14">
          <mxGeometry relative="1" as="geometry" />
        </mxCell>
        <mxCell id="u9zrjukdHwVOA8j2bUgU-64" style="rounded=0;orthogonalLoop=1;jettySize=auto;html=1;entryX=0;entryY=0.5;entryDx=0;entryDy=0;endArrow=none;endFill=0;" edge="1" parent="1" source="u9zrjukdHwVOA8j2bUgU-67" target="u9zrjukdHwVOA8j2bUgU-22">
          <mxGeometry relative="1" as="geometry" />
        </mxCell>
        <mxCell id="u9zrjukdHwVOA8j2bUgU-65" style="rounded=0;orthogonalLoop=1;jettySize=auto;html=1;entryX=0;entryY=0.5;entryDx=0;entryDy=0;endArrow=none;endFill=0;" edge="1" parent="1" source="u9zrjukdHwVOA8j2bUgU-67" target="u9zrjukdHwVOA8j2bUgU-84">
          <mxGeometry relative="1" as="geometry" />
        </mxCell>
        <mxCell id="u9zrjukdHwVOA8j2bUgU-66" style="rounded=0;orthogonalLoop=1;jettySize=auto;html=1;entryX=0;entryY=0.5;entryDx=0;entryDy=0;endArrow=none;endFill=0;" edge="1" parent="1" source="u9zrjukdHwVOA8j2bUgU-67" target="u9zrjukdHwVOA8j2bUgU-87">
          <mxGeometry relative="1" as="geometry" />
        </mxCell>
        <mxCell id="u9zrjukdHwVOA8j2bUgU-67" value="Cliente" style="shape=umlActor;verticalLabelPosition=bottom;verticalAlign=top;html=1;" vertex="1" parent="1">
          <mxGeometry x="91" y="559" width="30" height="60" as="geometry" />
        </mxCell>
        <mxCell id="u9zrjukdHwVOA8j2bUgU-85" value="Gestionar perfil" style="ellipse;whiteSpace=wrap;html=1;" vertex="1" parent="1">
          <mxGeometry x="211" y="328.5" width="140" height="70" as="geometry" />
        </mxCell>
        <mxCell id="u9zrjukdHwVOA8j2bUgU-87" value="Reproducir una pelÃ­cula /serie" style="ellipse;whiteSpace=wrap;html=1;" vertex="1" parent="1">
          <mxGeometry x="191" y="858.5" width="140" height="70" as="geometry" />
        </mxCell>
      </root>
    </mxGraphModel>
  </diagram>
</mxfile>
